Anaheim-Regular.ufo
<glyph name="exclam" format="1">
  <advance width="446"/>
  <unicode hex="0021"/>
  <outline>
    <contour>
      <point x="151" y="1284" type="line" smooth="no"/>
      <point x="288" y="1284" type="line" smooth="no"/>
      <point x="250" y="341" type="line" smooth="no"/>
      <point x="191" y="341" type="line" smooth="no"/>
    </contour>
    <contour>
      <point x="157" y="154" type="line" smooth="no"/>
      <point x="295" y="154" type="line" smooth="no"/>
      <point x="295" y="0" type="line" smooth="no"/>
      <point x="157" y="0" type="line" smooth="no"/>
    </contour>
  </outline>
</glyph>
<glyph name="quotedbl" format="1">
  <advance width="634"/>
  <unicode hex="0022"/>
  <outline>
    <contour>
      <point x="125" y="1411" type="line" smooth="no"/>
      <point x="246" y="1411" type="line" smooth="no"/>
      <point x="246" y="1229" type="line" smooth="no"/>
      <point x="237" y="950" type="line" smooth="no"/>
      <point x="125" y="950" type="line" smooth="no"/>
    </contour>
    <contour>
      <point x="388" y="1411" type="line" smooth="no"/>
      <point x="510" y="1411" type="line" smooth="no"/>
      <point x="503" y="1217" type="line" smooth="no"/>
      <point x="503" y="950" type="line" smooth="no"/>
      <point x="388" y="950" type="line" smooth="no"/>
    </contour>
  </outline>
</glyph>
<glyph name="numbersign" format="1">
  <advance width="1082"/>
  <unicode hex="0023"/>
  <outline>
    <contour>
      <point x="720" y="449" type="line" smooth="no"/>
      <point x="679" y="92" type="line" smooth="no"/>
      <point x="573" y="92" type="line" smooth="no"/>
      <point x="615" y="449" type="line" smooth="no"/>
      <point x="399" y="449" type="line" smooth="no"/>
      <point x="359" y="92" type="line" smooth="no"/>
      <point x="252" y="92" type="line" smooth="no"/>
      <point x="294" y="449" type="line" smooth="no"/>
      <point x="126" y="449" type="line" smooth="no"/>
      <point x="126" y="553" type="line" smooth="no"/>
      <point x="307" y="553" type="line" smooth="no"/>
      <point x="350" y="928" type="line" smooth="no"/>
      <point x="162" y="928" type="line" smooth="no"/>
      <point x="162" y="1030" type="line" smooth="no"/>
      <point x="360" y="1030" type="line" smooth="no"/>
      <point x="399" y="1364" type="line" smooth="no"/>
      <point x="504" y="1364" type="line" smooth="no"/>
      <point x="466" y="1030" type="line" smooth="no"/>
      <point x="681" y="1030" type="line" smooth="no"/>
      <point x="720" y="1364" type="line" smooth="no"/>
      <point x="823" y="1364" type="line" smooth="no"/>
      <point x="786" y="1030" type="line" smooth="no"/>
      <point x="953" y="1030" type="line" smooth="no"/>
      <point x="953" y="928" type="line" smooth="no"/>
      <point x="774" y="928" type="line" smooth="no"/>
      <point x="733" y="553" type="line" smooth="no"/>
      <point x="918" y="553" type="line" smooth="no"/>
      <point x="918" y="449" type="line" smooth="no"/>
    </contour>
    <contour>
      <point x="630" y="553" type="line" smooth="no"/>
      <point x="674" y="928" type="line" smooth="no"/>
      <point x="450" y="928" type="line" smooth="no"/>
      <point x="408" y="553" type="line" smooth="no"/>
    </contour>
  </outline>
</glyph>
<glyph name="dollar" format="1">
  <advance width="947"/>
  <unicode hex="0024"/>
  <outline>
    <contour>
      <point x="458" y="746" type="line"/>
      <point x="458" y="1193" type="line"/>
      <point x="330" y="1181"/>
      <point x="233" y="1122"/>
      <point x="233" y="972" type="curve" smooth="yes"/>
      <point x="233" y="867"/>
      <point x="265" y="816"/>
      <point x="417" y="761" type="curve" smooth="yes"/>
    </contour>
    <contour>
      <point x="538" y="590" type="curve"/>
      <point x="538" y="101" type="line"/>
      <point x="664" y="121"/>
      <point x="745" y="201"/>
      <point x="745" y="355" type="curve" smooth="yes"/>
      <point x="745" y="499"/>
      <point x="674" y="542"/>
    </contour>
    <contour>
      <point x="538" y="-188" type="line"/>
      <point x="459" y="-188" type="line"/>
      <point x="459" y="-10" type="line"/>
      <point x="336" y="-8"/>
      <point x="205" y="14"/>
      <point x="105" y="68" type="curve"/>
      <point x="133" y="173" type="line"/>
      <point x="207" y="141"/>
      <point x="305" y="98"/>
      <point x="459" y="96" type="curve"/>
      <point x="459" y="616" type="line"/>
      <point x="376" y="644" type="line" smooth="yes"/>
      <point x="209" y="700"/>
      <point x="105" y="786"/>
      <point x="105" y="969" type="curve" smooth="yes"/>
      <point x="105" y="1198"/>
      <point x="261" y="1290"/>
      <point x="458" y="1300" type="curve"/>
      <point x="458" y="1465" type="line"/>
      <point x="538" y="1465" type="line"/>
      <point x="538" y="1300" type="line"/>
      <point x="642" y="1296"/>
      <point x="746" y="1279"/>
      <point x="842" y="1239" type="curve"/>
      <point x="819" y="1137" type="line"/>
      <point x="739" y="1167"/>
      <point x="653" y="1192"/>
      <point x="538" y="1195" type="curve"/>
      <point x="538" y="717" type="line"/>
      <point x="699" y="659"/>
      <point x="873" y="613"/>
      <point x="873" y="353" type="curve" smooth="yes"/>
      <point x="873" y="137"/>
      <point x="742" y="12"/>
      <point x="538" y="-7" type="curve"/>
    </contour>
  </outline>
</glyph>
<glyph name="percent" format="1">
  <advance width="1471"/>
  <unicode hex="0025"/>
  <outline>
    <contour>
      <point x="1404" y="265" type="curve" smooth="yes"/>
      <point x="1404" y="81"/>
      <point x="1273" y="-10"/>
      <point x="1144" y="-10" type="curve" smooth="yes"/>
      <point x="1013" y="-10"/>
      <point x="882" y="84"/>
      <point x="882" y="265" type="curve" smooth="yes"/>
      <point x="882" y="449"/>
      <point x="1014" y="539"/>
      <point x="1144" y="539" type="curve" smooth="yes"/>
      <point x="1274" y="539"/>
      <point x="1404" y="449"/>
    </contour>
    <contour>
      <point x="1306" y="265" type="curve" smooth="yes"/>
      <point x="1306" y="390"/>
      <point x="1226" y="449"/>
      <point x="1144" y="449" type="curve" smooth="yes"/>
      <point x="1063" y="449"/>
      <point x="980" y="386"/>
      <point x="980" y="265" type="curve" smooth="yes"/>
      <point x="980" y="140"/>
      <point x="1062" y="78"/>
      <point x="1144" y="78" type="curve" smooth="yes"/>
      <point x="1225" y="78"/>
      <point x="1306" y="141"/>
    </contour>
    <contour>
      <point x="994" y="1368" type="line"/>
      <point x="1088" y="1337" type="line"/>
      <point x="522" y="-44" type="line"/>
      <point x="432" y="-10" type="line"/>
    </contour>
    <contour>
      <point x="590" y="1027" type="curve" smooth="yes"/>
      <point x="590" y="843"/>
      <point x="460" y="752"/>
      <point x="331" y="752" type="curve" smooth="yes"/>
      <point x="200" y="752"/>
      <point x="69" y="846"/>
      <point x="69" y="1027" type="curve" smooth="yes"/>
      <point x="69" y="1211"/>
      <point x="201" y="1301"/>
      <point x="331" y="1301" type="curve" smooth="yes"/>
      <point x="461" y="1301"/>
      <point x="590" y="1211"/>
    </contour>
    <contour>
      <point x="493" y="1027" type="curve" smooth="yes"/>
      <point x="493" y="1152"/>
      <point x="413" y="1211"/>
      <point x="331" y="1211" type="curve" smooth="yes"/>
      <point x="250" y="1211"/>
      <point x="167" y="1148"/>
      <point x="167" y="1027" type="curve" smooth="yes"/>
      <point x="167" y="902"/>
      <point x="249" y="840"/>
      <point x="331" y="840" type="curve" smooth="yes"/>
      <point x="412" y="840"/>
      <point x="493" y="903"/>
    </contour>
  </outline>
</glyph>
<glyph name="ampersand" format="1">
  <advance width="1100"/>
  <unicode hex="0026"/>
  <outline>
    <contour>
      <point x="449" y="606" type="line"/>
      <point x="342" y="519"/>
      <point x="252" y="426"/>
      <point x="252" y="297" type="curve" smooth="yes"/>
      <point x="252" y="169"/>
      <point x="332" y="96"/>
      <point x="519" y="96" type="curve" smooth="yes"/>
      <point x="615" y="96"/>
      <point x="690" y="130"/>
      <point x="751" y="191" type="curve"/>
    </contour>
    <contour>
      <point x="465" y="753" type="line"/>
      <point x="561" y="833"/>
      <point x="640" y="922"/>
      <point x="640" y="1033" type="curve" smooth="yes"/>
      <point x="640" y="1145"/>
      <point x="589" y="1196"/>
      <point x="492" y="1196" type="curve" smooth="yes"/>
      <point x="397" y="1196"/>
      <point x="337" y="1145"/>
      <point x="337" y="1044" type="curve" smooth="yes"/>
      <point x="337" y="945"/>
      <point x="380" y="871"/>
      <point x="436" y="792" type="curve"/>
    </contour>
    <contour>
      <point x="1024" y="489" type="line"/>
      <point x="1000" y="382"/>
      <point x="959" y="277"/>
      <point x="898" y="191" type="curve"/>
      <point x="1002" y="54" type="line"/>
      <point x="908" y="-19" type="line"/>
      <point x="819" y="100" type="line"/>
      <point x="739" y="28"/>
      <point x="636" y="-10"/>
      <point x="505" y="-10" type="curve" smooth="yes"/>
      <point x="261" y="-10"/>
      <point x="124" y="96"/>
      <point x="124" y="291" type="curve" smooth="yes"/>
      <point x="124" y="472"/>
      <point x="250" y="586"/>
      <point x="378" y="689" type="curve"/>
      <point x="312" y="778" type="line"/>
      <point x="255" y="859"/>
      <point x="209" y="954"/>
      <point x="209" y="1041" type="curve" smooth="yes"/>
      <point x="209" y="1222"/>
      <point x="349" y="1301"/>
      <point x="489" y="1301" type="curve" smooth="yes"/>
      <point x="645" y="1301"/>
      <point x="768" y="1220"/>
      <point x="768" y="1038" type="curve" smooth="yes"/>
      <point x="768" y="886"/>
      <point x="657" y="769"/>
      <point x="537" y="667" type="curve"/>
      <point x="824" y="288" type="line"/>
      <point x="861" y="353"/>
      <point x="891" y="432"/>
      <point x="915" y="522" type="curve"/>
    </contour>
  </outline>
</glyph>
<glyph name="quotesingle" format="1">
  <advance width="371"/>
  <unicode hex="0027"/>
  <outline>
    <contour>
      <point x="125" y="1411" type="line" smooth="no"/>
      <point x="248" y="1411" type="line" smooth="no"/>
      <point x="239" y="1212" type="line" smooth="no"/>
      <point x="239" y="950" type="line" smooth="no"/>
      <point x="125" y="950" type="line" smooth="no"/>
    </contour>
  </outline>
</glyph>
<glyph name="parenleft" format="1">
  <advance width="520"/>
  <unicode hex="0028"/>
  <outline>
    <contour>
      <point x="382" y="-305" type="line"/>
      <point x="177" y="-32"/>
      <point x="74" y="309"/>
      <point x="74" y="650" type="curve" smooth="yes"/>
      <point x="74" y="991"/>
      <point x="177" y="1331"/>
      <point x="382" y="1604" type="curve"/>
      <point x="461" y="1528" type="line"/>
      <point x="291" y="1270"/>
      <point x="205" y="957"/>
      <point x="205" y="645" type="curve" smooth="yes"/>
      <point x="205" y="335"/>
      <point x="290" y="25"/>
      <point x="461" y="-231" type="curve"/>
      <point x="382" y="-307" type="line"/>
    </contour>
  </outline>
</glyph>
<glyph name="parenright" format="1">
  <advance width="520"/>
  <unicode hex="0029"/>
  <outline>
    <contour>
      <point x="141" y="-305" type="curve"/>
      <point x="141" y="-307" type="line"/>
      <point x="62" y="-231" type="line"/>
      <point x="233" y="25"/>
      <point x="318" y="335"/>
      <point x="318" y="645" type="curve" smooth="yes"/>
      <point x="318" y="957"/>
      <point x="232" y="1270"/>
      <point x="62" y="1528" type="curve"/>
      <point x="141" y="1604" type="line"/>
      <point x="346" y="1331"/>
      <point x="449" y="991"/>
      <point x="449" y="650" type="curve" smooth="yes"/>
      <point x="449" y="309"/>
      <point x="346" y="-32"/>
    </contour>
  </outline>
</glyph>
<glyph name="asterisk" format="1">
  <advance width="923"/>
  <unicode hex="002a"/>
  <outline>
    <contour>
      <point x="786" y="1223" type="line" smooth="no"/>
      <point x="812" y="1138" type="line" smooth="no"/>
      <point x="534" y="1043" type="line" smooth="no"/>
      <point x="708" y="807" type="line" smooth="no"/>
      <point x="635" y="753" type="line" smooth="no"/>
      <point x="460" y="989" type="line" smooth="no"/>
      <point x="286" y="753" type="line" smooth="no"/>
      <point x="213" y="807" type="line" smooth="no"/>
      <point x="386" y="1043" type="line" smooth="no"/>
      <point x="108" y="1137" type="line" smooth="no"/>
      <point x="134" y="1223" type="line" smooth="no"/>
      <point x="415" y="1130" type="line" smooth="no"/>
      <point x="415" y="1425" type="line" smooth="no"/>
      <point x="506" y="1425" type="line" smooth="no"/>
      <point x="506" y="1130" type="line" smooth="no"/>
    </contour>
  </outline>
</glyph>
<glyph name="plus" format="1">
  <advance width="996"/>
  <unicode hex="002b"/>
  <outline>
    <contour>
      <point x="550" y="1010" type="line" smooth="no"/>
      <point x="550" y="645" type="line" smooth="no"/>
      <point x="884" y="645" type="line" smooth="no"/>
      <point x="884" y="541" type="line" smooth="no"/>
      <point x="550" y="541" type="line" smooth="no"/>
      <point x="550" y="176" type="line" smooth="no"/>
      <point x="445" y="176" type="line" smooth="no"/>
      <point x="445" y="541" type="line" smooth="no"/>
      <point x="110" y="541" type="line" smooth="no"/>
      <point x="110" y="645" type="line" smooth="no"/>
      <point x="445" y="645" type="line" smooth="no"/>
      <point x="445" y="1010" type="line" smooth="no"/>
    </contour>
  </outline>
</glyph>
<glyph name="comma" format="1">
  <advance width="491"/>
  <unicode hex="002c"/>
  <outline>
    <contour>
      <point x="341" y="39" type="line" smooth="yes"/>
      <point x="341" y="-89"/>
      <point x="288" y="-178"/>
      <point x="205" y="-274" type="curve" smooth="no"/>
      <point x="158" y="-221" type="line" smooth="no"/>
      <point x="212" y="-138"/>
      <point x="241" y="-61"/>
      <point x="244" y="0" type="curve" smooth="no"/>
      <point x="149" y="0" type="line" smooth="no"/>
      <point x="149" y="210" type="line" smooth="no"/>
      <point x="341" y="210" type="line" smooth="no"/>
    </contour>
  </outline>
</glyph>
<glyph name="hyphen" format="1">
  <advance width="750"/>
  <unicode hex="002d"/>
  <outline>
    <contour>
      <point x="114" y="449" type="line" smooth="no"/>
      <point x="114" y="565" type="line" smooth="no"/>
      <point x="633" y="565" type="line" smooth="no"/>
      <point x="633" y="449" type="line" smooth="no"/>
    </contour>
  </outline>
</glyph>
<glyph name="period" format="1">
  <advance width="452"/>
  <unicode hex="002e"/>
  <outline>
    <contour>
      <point x="305" y="202" type="line" smooth="no"/>
      <point x="305" y="0" type="line" smooth="no"/>
      <point x="145" y="0" type="line" smooth="no"/>
      <point x="145" y="202" type="line" smooth="no"/>
    </contour>
  </outline>
</glyph>
<glyph name="slash" format="1">
  <advance width="888"/>
  <unicode hex="002f"/>
  <outline>
    <contour>
      <point x="812" y="1458" type="line" smooth="no"/>
      <point x="178" y="-121" type="line" smooth="no"/>
      <point x="99" y="-84" type="line" smooth="no"/>
      <point x="731" y="1497" type="line" smooth="no"/>
    </contour>
  </outline>
</glyph>
<glyph name="zero" format="1">
  <advance width="1012"/>
  <unicode hex="0030"/>
  <outline>
    <contour>
      <point x="133" y="646" type="curve" smooth="yes"/>
      <point x="133" y="1030"/>
      <point x="190" y="1301"/>
      <point x="507" y="1301" type="curve" smooth="yes"/>
      <point x="830" y="1301"/>
      <point x="879" y="1003"/>
      <point x="879" y="646" type="curve" smooth="yes"/>
      <point x="879" y="289"/>
      <point x="828" y="-10"/>
      <point x="507" y="-10" type="curve" smooth="yes"/>
      <point x="181" y="-10"/>
      <point x="133" y="293"/>
    </contour>
    <contour>
      <point x="507" y="1195" type="curve" smooth="yes"/>
      <point x="265" y="1195"/>
      <point x="249" y="938"/>
      <point x="249" y="646" type="curve" smooth="yes"/>
      <point x="249" y="310"/>
      <point x="277" y="96"/>
      <point x="507" y="96" type="curve" smooth="yes"/>
      <point x="763" y="96"/>
      <point x="763" y="402"/>
      <point x="763" y="646" type="curve" smooth="yes"/>
      <point x="763" y="983"/>
      <point x="735" y="1195"/>
    </contour>
  </outline>
</glyph>
<glyph name="one" format="1">
  <advance width="799"/>
  <unicode hex="0031"/>
  <outline>
    <contour>
      <point x="512" y="100" type="line"/>
      <point x="704" y="100" type="line"/>
      <point x="704" y="0" type="line"/>
      <point x="160" y="0" type="line"/>
      <point x="160" y="100" type="line"/>
      <point x="384" y="100" type="line"/>
      <point x="384" y="1167" type="line"/>
      <point x="157" y="1061" type="line"/>
      <point x="119" y="1154" type="line"/>
      <point x="118" y="1155" type="line"/>
      <point x="399" y="1284" type="line"/>
      <point x="512" y="1284" type="line"/>
    </contour>
  </outline>
</glyph>
<glyph name="two" format="1">
  <advance width="961"/>
  <unicode hex="0032"/>
  <outline>
    <contour>
      <point x="162" y="1125" type="curve"/>
      <point x="122" y="1226" type="line"/>
      <point x="220" y="1271"/>
      <point x="304" y="1301"/>
      <point x="453" y="1301" type="curve" smooth="yes"/>
      <point x="708" y="1301"/>
      <point x="824" y="1144"/>
      <point x="824" y="956" type="curve" smooth="yes"/>
      <point x="824" y="748"/>
      <point x="677" y="622"/>
      <point x="514" y="458" type="curve" smooth="yes"/>
      <point x="409" y="353"/>
      <point x="287" y="240"/>
      <point x="265" y="100" type="curve"/>
      <point x="798" y="100" type="line"/>
      <point x="813" y="0" type="line"/>
      <point x="131" y="0" type="line"/>
      <point x="133" y="269"/>
      <point x="319" y="429"/>
      <point x="482" y="584" type="curve" smooth="yes"/>
      <point x="602" y="698"/>
      <point x="707" y="807"/>
      <point x="707" y="952" type="curve" smooth="yes"/>
      <point x="707" y="1100"/>
      <point x="634" y="1195"/>
      <point x="444" y="1195" type="curve" smooth="yes"/>
      <point x="309" y="1195"/>
      <point x="185" y="1137"/>
    </contour>
  </outline>
</glyph>
<glyph name="three" format="1">
  <advance width="1002"/>
  <unicode hex="0033"/>
  <outline>
    <contour>
      <point x="441" y="-10" type="curve" smooth="yes"/>
      <point x="334" y="-10"/>
      <point x="231" y="3"/>
      <point x="132" y="40" type="curve"/>
      <point x="159" y="145" type="line"/>
      <point x="249" y="111"/>
      <point x="362" y="96"/>
      <point x="446" y="96" type="curve" smooth="yes"/>
      <point x="612" y="96"/>
      <point x="755" y="150"/>
      <point x="755" y="360" type="curve" smooth="yes"/>
      <point x="755" y="543"/>
      <point x="608" y="627"/>
      <point x="460" y="627" type="curve" smooth="yes"/>
      <point x="407" y="627"/>
      <point x="334" y="619"/>
      <point x="285" y="608" type="curve"/>
      <point x="276" y="711" type="line"/>
      <point x="531" y="744"/>
      <point x="704" y="795"/>
      <point x="704" y="980" type="curve" smooth="yes"/>
      <point x="704" y="1120"/>
      <point x="610" y="1195"/>
      <point x="453" y="1195" type="curve" smooth="yes"/>
      <point x="356" y="1195"/>
      <point x="258" y="1178"/>
      <point x="159" y="1144" type="curve"/>
      <point x="132" y="1245" type="line"/>
      <point x="245" y="1282"/>
      <point x="351" y="1301"/>
      <point x="448" y="1301" type="curve" smooth="yes"/>
      <point x="672" y="1301"/>
      <point x="819" y="1197"/>
      <point x="819" y="994" type="curve" smooth="yes"/>
      <point x="819" y="820"/>
      <point x="728" y="739"/>
      <point x="569" y="691" type="curve"/>
      <point x="728" y="677"/>
      <point x="871" y="529"/>
      <point x="871" y="349" type="curve" smooth="yes"/>
      <point x="871" y="79"/>
      <point x="664" y="-10"/>
    </contour>
  </outline>
</glyph>
<glyph name="four" format="1">
  <advance width="1002"/>
  <unicode hex="0034"/>
  <outline>
    <contour>
      <point x="608" y="0" type="line"/>
      <point x="608" y="260" type="line"/>
      <point x="64" y="260" type="line"/>
      <point x="64" y="356" type="line"/>
      <point x="411" y="1284" type="line"/>
      <point x="536" y="1284" type="line"/>
      <point x="201" y="360" type="line"/>
      <point x="608" y="360" type="line"/>
      <point x="608" y="797" type="line"/>
      <point x="736" y="797" type="line"/>
      <point x="736" y="360" type="line"/>
      <point x="896" y="360" type="line"/>
      <point x="896" y="260" type="line"/>
      <point x="736" y="260" type="line"/>
      <point x="736" y="0" type="line"/>
    </contour>
  </outline>
</glyph>
<glyph name="five" format="1">
  <advance width="999"/>
  <unicode hex="0035"/>
  <outline>
    <contour>
      <point x="736" y="371" type="curve" smooth="yes"/>
      <point x="736" y="580"/>
      <point x="640" y="683"/>
      <point x="497" y="683" type="curve" smooth="yes"/>
      <point x="412" y="683"/>
      <point x="329" y="667"/>
      <point x="250" y="608" type="curve"/>
      <point x="179" y="637" type="line"/>
      <point x="179" y="1284" type="line"/>
      <point x="796" y="1284" type="line"/>
      <point x="796" y="1184" type="line"/>
      <point x="292" y="1184" type="line"/>
      <point x="277" y="726" type="line"/>
      <point x="343" y="771"/>
      <point x="419" y="787"/>
      <point x="498" y="787" type="curve" smooth="yes"/>
      <point x="718" y="787"/>
      <point x="864" y="626"/>
      <point x="864" y="369" type="curve" smooth="yes"/>
      <point x="864" y="119"/>
      <point x="692" y="-10"/>
      <point x="443" y="-10" type="curve" smooth="yes"/>
      <point x="347" y="-10"/>
      <point x="198" y="17"/>
      <point x="131" y="50" type="curve"/>
      <point x="157" y="159" type="line"/>
      <point x="227" y="126"/>
      <point x="360" y="96"/>
      <point x="450" y="96" type="curve" smooth="yes"/>
      <point x="634" y="96"/>
      <point x="736" y="196"/>
    </contour>
  </outline>
</glyph>
<glyph name="six" format="1">
  <advance width="998"/>
  <unicode hex="0036"/>
  <outline>
    <contour>
      <point x="224" y="529" type="line" smooth="yes"/>
      <point x="224" y="241"/>
      <point x="294" y="96"/>
      <point x="474" y="96" type="curve" smooth="yes"/>
      <point x="642" y="96"/>
      <point x="720" y="197"/>
      <point x="720" y="422" type="curve" smooth="yes"/>
      <point x="720" y="628"/>
      <point x="642" y="715"/>
      <point x="499" y="715" type="curve" smooth="yes"/>
      <point x="412" y="715"/>
      <point x="343" y="690"/>
      <point x="224" y="613" type="curve"/>
    </contour>
    <contour>
      <point x="231" y="727" type="curve"/>
      <point x="335" y="800"/>
      <point x="416" y="825"/>
      <point x="514" y="825" type="curve" smooth="yes"/>
      <point x="702" y="825"/>
      <point x="848" y="698"/>
      <point x="848" y="421" type="curve" smooth="yes"/>
      <point x="848" y="148"/>
      <point x="711" y="-10"/>
      <point x="479" y="-10" type="curve" smooth="yes"/>
      <point x="207" y="-10"/>
      <point x="96" y="190"/>
      <point x="96" y="551" type="curve" smooth="yes"/>
      <point x="96" y="1106"/>
      <point x="311" y="1262"/>
      <point x="699" y="1301" type="curve"/>
      <point x="720" y="1189" type="line"/>
      <point x="376" y="1181"/>
      <point x="242" y="996"/>
    </contour>
  </outline>
</glyph>
<glyph name="seven" format="1">
  <advance width="875"/>
  <unicode hex="0037"/>
  <outline>
    <contour>
      <point x="779" y="1198" type="line"/>
      <point x="704" y="1081"/>
      <point x="379" y="417"/>
      <point x="379" y="0" type="curve"/>
      <point x="243" y="0" type="line"/>
      <point x="253" y="373"/>
      <point x="421" y="763"/>
      <point x="638" y="1195" type="curve"/>
      <point x="106" y="1195" type="line"/>
      <point x="106" y="1301" type="line"/>
      <point x="769" y="1301" type="line"/>
    </contour>
  </outline>
</glyph>
<glyph name="eight" format="1">
  <advance width="1034"/>
  <unicode hex="0038"/>
  <outline>
    <contour>
      <point x="160" y="994" type="curve" smooth="yes"/>
      <point x="160" y="1211"/>
      <point x="334" y="1301"/>
      <point x="528" y="1301" type="curve" smooth="yes"/>
      <point x="723" y="1301"/>
      <point x="896" y="1197"/>
      <point x="896" y="998" type="curve" smooth="yes"/>
      <point x="896" y="863"/>
      <point x="800" y="727"/>
      <point x="654" y="665" type="curve"/>
      <point x="783" y="597"/>
      <point x="896" y="496"/>
      <point x="896" y="306" type="curve" smooth="yes"/>
      <point x="896" y="89"/>
      <point x="707" y="-10"/>
      <point x="512" y="-10" type="curve" smooth="yes"/>
      <point x="303" y="-10"/>
      <point x="128" y="93"/>
      <point x="128" y="304" type="curve" smooth="yes"/>
      <point x="128" y="445"/>
      <point x="213" y="597"/>
      <point x="383" y="675" type="curve"/>
      <point x="266" y="736"/>
      <point x="160" y="825"/>
    </contour>
    <contour>
      <point x="545" y="716" type="curve"/>
      <point x="676" y="761"/>
      <point x="768" y="875"/>
      <point x="768" y="987" type="curve" smooth="yes"/>
      <point x="768" y="1107"/>
      <point x="696" y="1195"/>
      <point x="530" y="1195" type="curve" smooth="yes"/>
      <point x="404" y="1195"/>
      <point x="288" y="1149"/>
      <point x="288" y="989" type="curve" smooth="yes"/>
      <point x="288" y="840"/>
      <point x="408" y="776"/>
    </contour>
    <contour>
      <point x="512" y="96" type="curve" smooth="yes"/>
      <point x="646" y="96"/>
      <point x="768" y="152"/>
      <point x="768" y="321" type="curve" smooth="yes"/>
      <point x="768" y="487"/>
      <point x="625" y="568"/>
      <point x="492" y="626" type="curve"/>
      <point x="333" y="546"/>
      <point x="256" y="440"/>
      <point x="256" y="317" type="curve" smooth="yes"/>
      <point x="256" y="157"/>
      <point x="369" y="96"/>
    </contour>
  </outline>
</glyph>
<glyph name="nine" format="1">
  <advance width="1002"/>
  <unicode hex="0039"/>
  <outline>
    <contour>
      <point x="713" y="565" type="curve"/>
      <point x="609" y="492"/>
      <point x="528" y="467"/>
      <point x="430" y="467" type="curve" smooth="yes"/>
      <point x="242" y="467"/>
      <point x="96" y="594"/>
      <point x="96" y="871" type="curve" smooth="yes"/>
      <point x="96" y="1144"/>
      <point x="233" y="1301"/>
      <point x="465" y="1301" type="curve" smooth="yes"/>
      <point x="737" y="1301"/>
      <point x="848" y="1105"/>
      <point x="848" y="741" type="curve" smooth="yes"/>
      <point x="848" y="186"/>
      <point x="624" y="13"/>
      <point x="245" y="-10" type="curve"/>
      <point x="224" y="96" type="line"/>
      <point x="568" y="104"/>
      <point x="713" y="310"/>
    </contour>
    <contour>
      <point x="720" y="763" type="line" smooth="yes"/>
      <point x="720" y="1051"/>
      <point x="650" y="1195"/>
      <point x="470" y="1195" type="curve" smooth="yes"/>
      <point x="302" y="1195"/>
      <point x="224" y="1095"/>
      <point x="224" y="870" type="curve" smooth="yes"/>
      <point x="224" y="664"/>
      <point x="302" y="577"/>
      <point x="445" y="577" type="curve" smooth="yes"/>
      <point x="532" y="577"/>
      <point x="601" y="602"/>
      <point x="720" y="679" type="curve"/>
    </contour>
  </outline>
</glyph>
<glyph name="colon" format="1">
  <advance width="481"/>
  <unicode hex="003a"/>
  <outline>
    <contour>
      <point x="308" y="243" type="line" smooth="no"/>
      <point x="308" y="47" type="line" smooth="no"/>
      <point x="145" y="47" type="line" smooth="no"/>
      <point x="145" y="243" type="line" smooth="no"/>
    </contour>
    <contour>
      <point x="308" y="841" type="line" smooth="no"/>
      <point x="308" y="639" type="line" smooth="no"/>
      <point x="145" y="639" type="line" smooth="no"/>
      <point x="145" y="841" type="line" smooth="no"/>
    </contour>
  </outline>
</glyph>
<glyph name="semicolon" format="1">
  <advance width="462"/>
  <unicode hex="003b"/>
  <outline>
    <contour>
      <point x="145" y="846" type="line" smooth="no"/>
      <point x="307" y="846" type="line" smooth="no"/>
      <point x="307" y="636" type="line" smooth="no"/>
      <point x="145" y="636" type="line" smooth="no"/>
    </contour>
    <contour>
      <point x="323" y="129" type="line" smooth="yes"/>
      <point x="323" y="-2"/>
      <point x="269" y="-90"/>
      <point x="184" y="-186" type="curve" smooth="no"/>
      <point x="138" y="-133" type="line" smooth="no"/>
      <point x="190" y="-51"/>
      <point x="219" y="22"/>
      <point x="224" y="86" type="curve" smooth="no"/>
      <point x="150" y="86" type="line" smooth="no"/>
      <point x="150" y="302" type="line" smooth="no"/>
      <point x="323" y="302" type="line" smooth="no"/>
    </contour>
  </outline>
</glyph>
<glyph name="less" format="1">
  <advance width="1005"/>
  <unicode hex="003C"/>
  <outline>
    <contour>
      <point x="233" y="596" type="line"/>
      <point x="874" y="150" type="line"/>
      <point x="819" y="61" type="line"/>
      <point x="108" y="563" type="line"/>
      <point x="108" y="629" type="line"/>
      <point x="819" y="1116" type="line"/>
      <point x="876" y="1030" type="line"/>
    </contour>
  </outline>
</glyph>
<glyph name="equal" format="1">
  <advance width="1025"/>
  <unicode hex="003d"/>
  <outline>
    <contour>
      <point x="123" y="780" type="line" smooth="no"/>
      <point x="897" y="780" type="line" smooth="no"/>
      <point x="897" y="684" type="line" smooth="no"/>
      <point x="123" y="684" type="line" smooth="no"/>
    </contour>
    <contour>
      <point x="123" y="467" type="line" smooth="no"/>
      <point x="897" y="467" type="line" smooth="no"/>
      <point x="897" y="371" type="line" smooth="no"/>
      <point x="123" y="371" type="line" smooth="no"/>
    </contour>
  </outline>
</glyph>
<glyph name="greater" format="1">
  <advance width="1009"/>
  <unicode hex="003e"/>
  <outline>
    <contour>
      <point x="774" y="596" type="line" smooth="no"/>
      <point x="130" y="1030" type="line" smooth="no"/>
      <point x="186" y="1116" type="line" smooth="no"/>
      <point x="899" y="629" type="line" smooth="no"/>
      <point x="899" y="563" type="line" smooth="no"/>
      <point x="186" y="61" type="line" smooth="no"/>
      <point x="130" y="150" type="line" smooth="no"/>
    </contour>
  </outline>
</glyph>
<glyph name="question" format="1">
  <advance width="881"/>
  <unicode hex="003F"/>
  <outline>
    <contour>
      <point x="766" y="1005" type="curve" smooth="yes"/>
      <point x="766" y="721"/>
      <point x="437" y="659"/>
      <point x="437" y="412" type="curve" smooth="yes"/>
      <point x="437" y="389"/>
      <point x="441" y="335"/>
      <point x="444" y="293" type="curve"/>
      <point x="361" y="293" type="line"/>
      <point x="353" y="321"/>
      <point x="340" y="455"/>
      <point x="340" y="455" type="curve"/>
      <point x="340" y="673"/>
      <point x="647" y="803"/>
      <point x="647" y="998" type="curve" smooth="yes"/>
      <point x="647" y="1107"/>
      <point x="584" y="1195"/>
      <point x="458" y="1195" type="curve" smooth="yes"/>
      <point x="330" y="1195"/>
      <point x="245" y="1153"/>
      <point x="158" y="1071" type="curve"/>
      <point x="102" y="1151" type="line"/>
      <point x="170" y="1229"/>
      <point x="303" y="1301"/>
      <point x="449" y="1301" type="curve" smooth="yes"/>
      <point x="635" y="1301"/>
      <point x="766" y="1184"/>
    </contour>
    <contour>
      <point x="345" y="135" type="line"/>
      <point x="470" y="135" type="line"/>
      <point x="470" y="-6" type="line"/>
      <point x="345" y="-6" type="line"/>
    </contour>
  </outline>
</glyph>
<glyph name="at" format="1">
  <advance width="1512"/>
  <unicode hex="0040"/>
  <outline>
    <contour>
      <point x="736" y="326" type="curve" smooth="yes"/>
      <point x="777" y="326"/>
      <point x="843" y="353"/>
      <point x="891" y="405" type="curve" smooth="yes"/>
      <point x="918" y="434"/>
      <point x="923" y="522"/>
      <point x="923" y="648" type="curve" smooth="yes"/>
      <point x="923" y="864" type="line"/>
      <point x="879" y="886"/>
      <point x="825" y="897"/>
      <point x="761" y="897" type="curve" smooth="yes"/>
      <point x="627" y="897"/>
      <point x="562" y="748"/>
      <point x="562" y="602" type="curve" smooth="yes"/>
      <point x="562" y="463"/>
      <point x="621" y="326"/>
    </contour>
    <contour>
      <point x="1100" y="256" type="curve" smooth="yes"/>
      <point x="1014" y="256"/>
      <point x="961" y="309"/>
      <point x="928" y="375" type="curve"/>
      <point x="889" y="307"/>
      <point x="819" y="242"/>
      <point x="713" y="242" type="curve" smooth="yes"/>
      <point x="593" y="242"/>
      <point x="454" y="343"/>
      <point x="454" y="598" type="curve" smooth="yes"/>
      <point x="454" y="815"/>
      <point x="561" y="987"/>
      <point x="753" y="987" type="curve" smooth="yes"/>
      <point x="786" y="987"/>
      <point x="944" y="976"/>
      <point x="1024" y="903" type="curve"/>
      <point x="1024" y="406" type="line" smooth="yes"/>
      <point x="1024" y="393"/>
      <point x="1030" y="362"/>
      <point x="1102" y="362" type="curve" smooth="yes"/>
      <point x="1204" y="362"/>
      <point x="1264" y="547"/>
      <point x="1264" y="687" type="curve" smooth="yes"/>
      <point x="1264" y="921"/>
      <point x="1124" y="1195"/>
      <point x="763" y="1195" type="curve" smooth="yes"/>
      <point x="496" y="1195"/>
      <point x="261" y="951"/>
      <point x="261" y="607" type="curve" smooth="yes"/>
      <point x="261" y="274"/>
      <point x="483" y="36"/>
      <point x="779" y="36" type="curve" smooth="yes"/>
      <point x="867" y="36"/>
      <point x="952" y="56"/>
      <point x="1058" y="95" type="curve"/>
      <point x="1084" y="4" type="line"/>
      <point x="978" y="-39"/>
      <point x="878" y="-63"/>
      <point x="773" y="-63" type="curve" smooth="yes"/>
      <point x="444" y="-63"/>
      <point x="140" y="198"/>
      <point x="140" y="600" type="curve" smooth="yes"/>
      <point x="140" y="1025"/>
      <point x="415" y="1301"/>
      <point x="754" y="1301" type="curve" smooth="yes"/>
      <point x="1197" y="1300"/>
      <point x="1372" y="979"/>
      <point x="1372" y="692" type="curve" smooth="yes"/>
      <point x="1372" y="468"/>
      <point x="1273" y="256"/>
    </contour>
  </outline>
</glyph>
<glyph name="A" format="1">
  <advance width="1081"/>
  <unicode hex="0041"/>
  <outline>
    <contour>
      <point x="897" y="0" type="line" smooth="no"/>
      <point x="800" y="328" type="line" smooth="no"/>
      <point x="293" y="328" type="line" smooth="no"/>
      <point x="193" y="0" type="line" smooth="no"/>
      <point x="54" y="0" type="line" smooth="no"/>
      <point x="454" y="1284" type="line" smooth="no"/>
      <point x="645" y="1284" type="line" smooth="no"/>
      <point x="1027" y="0" type="line" smooth="no"/>
    </contour>
    <contour>
      <point x="769" y="420" type="line" smooth="no"/>
      <point x="550" y="1174" type="line" smooth="no"/>
      <point x="323" y="420" type="line" smooth="no"/>
    </contour>
  </outline>
</glyph>
<glyph name="B" format="1">
  <advance width="1041"/>
  <unicode hex="0042"/>
  <outline>
    <contour>
      <point x="510" y="723" type="line" smooth="yes"/>
      <point x="700" y="723"/>
      <point x="791" y="781"/>
      <point x="791" y="971" type="curve" smooth="yes"/>
      <point x="791" y="1132"/>
      <point x="701" y="1184"/>
      <point x="494" y="1184" type="curve" smooth="yes"/>
      <point x="277" y="1184" type="line"/>
      <point x="277" y="723" type="line"/>
    </contour>
    <contour>
      <point x="821" y="375" type="curve" smooth="yes"/>
      <point x="821" y="555"/>
      <point x="712" y="629"/>
      <point x="511" y="629" type="curve" smooth="yes"/>
      <point x="277" y="629" type="line"/>
      <point x="277" y="100" type="line"/>
      <point x="474" y="100" type="line" smooth="yes"/>
      <point x="694" y="100"/>
      <point x="821" y="139"/>
    </contour>
    <contour>
      <point x="709" y="687" type="curve"/>
      <point x="852" y="654"/>
      <point x="949" y="556"/>
      <point x="949" y="377" type="curve" smooth="yes"/>
      <point x="949" y="65"/>
      <point x="780" y="0"/>
      <point x="467" y="0" type="curve" smooth="yes"/>
      <point x="149" y="0" type="line"/>
      <point x="149" y="1284" type="line"/>
      <point x="470" y="1284" type="line" smooth="yes"/>
      <point x="764" y="1284"/>
      <point x="903" y="1222"/>
      <point x="903" y="971" type="curve" smooth="yes"/>
      <point x="903" y="810"/>
      <point x="853" y="722"/>
    </contour>
  </outline>
</glyph>
<glyph name="C" format="1">
  <advance width="1014"/>
  <unicode hex="0043"/>
  <outline>
    <contour>
      <point x="246" y="638" type="curve" smooth="yes"/>
      <point x="246" y="252"/>
      <point x="401" y="96"/>
      <point x="606" y="96" type="curve" smooth="yes"/>
      <point x="693" y="96"/>
      <point x="780" y="112"/>
      <point x="883" y="161" type="curve"/>
      <point x="923" y="64" type="line"/>
      <point x="806" y="8"/>
      <point x="702" y="-10"/>
      <point x="598" y="-10" type="curve" smooth="yes"/>
      <point x="329" y="-10"/>
      <point x="118" y="189"/>
      <point x="118" y="641" type="curve" smooth="yes"/>
      <point x="118" y="1114"/>
      <point x="270" y="1301"/>
      <point x="586" y="1301" type="curve" smooth="yes"/>
      <point x="685" y="1301"/>
      <point x="786" y="1280"/>
      <point x="896" y="1226" type="curve"/>
      <point x="896" y="984" type="line"/>
      <point x="787" y="984" type="line"/>
      <point x="787" y="1157" type="line"/>
      <point x="735" y="1180"/>
      <point x="668" y="1195"/>
      <point x="597" y="1195" type="curve" smooth="yes"/>
      <point x="371" y="1195"/>
      <point x="246" y="1092"/>
    </contour>
  </outline>
</glyph>
<glyph name="E" format="1">
  <advance width="921"/>
  <unicode hex="0045"/>
  <outline>
    <contour>
      <point x="277" y="626" type="line" smooth="no"/>
      <point x="277" y="100" type="line" smooth="no"/>
      <point x="822" y="100" type="line" smooth="no"/>
      <point x="838" y="0" type="line" smooth="no"/>
      <point x="149" y="0" type="line" smooth="no"/>
      <point x="149" y="1284" type="line" smooth="no"/>
      <point x="834" y="1284" type="line" smooth="no"/>
      <point x="812" y="1184" type="line" smooth="no"/>
      <point x="277" y="1184" type="line" smooth="no"/>
      <point x="277" y="722" type="line" smooth="no"/>
      <point x="778" y="722" type="line" smooth="no"/>
      <point x="778" y="626" type="line" smooth="no"/>
    </contour>
  </outline>
</glyph>
<glyph name="F" format="1">
  <advance width="852"/>
  <unicode hex="0046"/>
  <outline>
    <contour>
      <point x="277" y="697" type="line" smooth="no"/>
      <point x="733" y="697" type="line" smooth="no"/>
      <point x="733" y="603" type="line" smooth="no"/>
      <point x="277" y="603" type="line" smooth="no"/>
      <point x="277" y="0" type="line" smooth="no"/>
      <point x="149" y="0" type="line" smooth="no"/>
      <point x="149" y="1284" type="line" smooth="no"/>
      <point x="816" y="1284" type="line" smooth="no"/>
      <point x="797" y="1184" type="line" smooth="no"/>
      <point x="277" y="1184" type="line" smooth="no"/>
    </contour>
  </outline>
</glyph>
<glyph name="G" format="1">
  <advance width="1094"/>
  <unicode hex="0047"/>
  <outline>
    <contour>
      <point x="964" y="92" type="line"/>
      <point x="901" y="58"/>
      <point x="778" y="-10"/>
      <point x="584" y="-10" type="curve" smooth="yes"/>
      <point x="231" y="-10"/>
      <point x="110" y="198"/>
      <point x="110" y="650" type="curve" smooth="yes"/>
      <point x="110" y="1123"/>
      <point x="283" y="1301"/>
      <point x="599" y="1301" type="curve" smooth="yes"/>
      <point x="698" y="1301"/>
      <point x="819" y="1280"/>
      <point x="929" y="1226" type="curve"/>
      <point x="929" y="984" type="line"/>
      <point x="820" y="984" type="line"/>
      <point x="820" y="1157" type="line"/>
      <point x="768" y="1180"/>
      <point x="681" y="1195"/>
      <point x="610" y="1195" type="curve" smooth="yes"/>
      <point x="386" y="1195"/>
      <point x="236" y="1103"/>
      <point x="235" y="659" type="curve" smooth="yes"/>
      <point x="235" y="263"/>
      <point x="319" y="96"/>
      <point x="590" y="96" type="curve" smooth="yes"/>
      <point x="678" y="96"/>
      <point x="779" y="112"/>
      <point x="848" y="145" type="curve"/>
      <point x="848" y="567" type="line"/>
      <point x="612" y="567" type="line"/>
      <point x="612" y="665" type="line"/>
      <point x="964" y="665" type="line"/>
    </contour>
  </outline>
</glyph>
<glyph name="H" format="1">
  <advance width="1134"/>
  <unicode hex="0048"/>
  <outline>
    <contour>
      <point x="857" y="1284" type="line" smooth="no"/>
      <point x="985" y="1284" type="line" smooth="no"/>
      <point x="985" y="0" type="line" smooth="no"/>
      <point x="857" y="0" type="line" smooth="no"/>
      <point x="857" y="602" type="line" smooth="no"/>
      <point x="277" y="602" type="line" smooth="no"/>
      <point x="277" y="0" type="line" smooth="no"/>
      <point x="149" y="0" type="line" smooth="no"/>
      <point x="149" y="1284" type="line" smooth="no"/>
      <point x="277" y="1284" type="line" smooth="no"/>
      <point x="277" y="703" type="line" smooth="no"/>
      <point x="857" y="703" type="line" smooth="no"/>
    </contour>
  </outline>
</glyph>
<glyph name="I" format="1">
  <advance width="730"/>
  <unicode hex="0049"/>
  <outline>
    <contour>
      <point x="432" y="1184" type="line" smooth="no"/>
      <point x="432" y="100" type="line" smooth="no"/>
      <point x="620" y="100" type="line" smooth="no"/>
      <point x="620" y="0" type="line" smooth="no"/>
      <point x="110" y="0" type="line" smooth="no"/>
      <point x="110" y="100" type="line" smooth="no"/>
      <point x="304" y="100" type="line" smooth="no"/>
      <point x="304" y="1184" type="line" smooth="no"/>
      <point x="110" y="1184" type="line" smooth="no"/>
      <point x="110" y="1284" type="line" smooth="no"/>
      <point x="616" y="1284" type="line" smooth="no"/>
      <point x="616" y="1184" type="line" smooth="no"/>
    </contour>
  </outline>
</glyph>
<glyph name="J" format="1">
  <advance width="643"/>
  <unicode hex="004A"/>
  <outline>
    <contour>
      <point x="494" y="1284" type="line"/>
      <point x="494" y="91" type="line" smooth="yes"/>
      <point x="494" y="-155"/>
      <point x="395" y="-232"/>
      <point x="223" y="-232" type="curve" smooth="yes"/>
      <point x="166" y="-232"/>
      <point x="102" y="-221"/>
      <point x="47" y="-200" type="curve"/>
      <point x="62" y="-99" type="line"/>
      <point x="110" y="-116"/>
      <point x="167" y="-127"/>
      <point x="214" y="-127" type="curve" smooth="yes"/>
      <point x="327" y="-127"/>
      <point x="366" y="-62"/>
      <point x="366" y="91" type="curve" smooth="yes"/>
      <point x="366" y="1184" type="line"/>
      <point x="105" y="1184" type="line"/>
      <point x="105" y="1284" type="line"/>
    </contour>
  </outline>
</glyph>
<glyph name="K" format="1">
  <advance width="1032"/>
  <unicode hex="004b"/>
  <outline>
    <contour>
      <point x="277" y="0" type="line" smooth="no"/>
      <point x="149" y="0" type="line" smooth="no"/>
      <point x="149" y="1284" type="line" smooth="no"/>
      <point x="277" y="1284" type="line" smooth="no"/>
      <point x="277" y="609" type="line" smooth="no"/>
      <point x="432" y="778" type="line" smooth="no"/>
      <point x="825" y="1284" type="line" smooth="no"/>
      <point x="975" y="1284" type="line" smooth="no"/>
      <point x="550" y="721" type="line" smooth="no"/>
      <point x="1001" y="0" type="line" smooth="no"/>
      <point x="860" y="0" type="line" smooth="no"/>
      <point x="453" y="652" type="line" smooth="no"/>
      <point x="277" y="480" type="line" smooth="no"/>
    </contour>
  </outline>
</glyph>
<glyph name="L" format="1">
  <advance width="825"/>
  <unicode hex="004c"/>
  <outline>
    <contour>
      <point x="277" y="1284" type="line" smooth="no"/>
      <point x="277" y="100" type="line" smooth="no"/>
      <point x="769" y="100" type="line" smooth="no"/>
      <point x="786" y="0" type="line" smooth="no"/>
      <point x="149" y="0" type="line" smooth="no"/>
      <point x="149" y="1284" type="line" smooth="no"/>
    </contour>
  </outline>
</glyph>
<glyph name="M" format="1">
  <advance width="1362"/>
  <unicode hex="004d"/>
  <outline>
    <contour>
      <point x="1012" y="1099" type="line" smooth="no"/>
      <point x="739" y="438" type="line" smooth="no"/>
      <point x="624" y="438" type="line" smooth="no"/>
      <point x="341" y="1101" type="line" smooth="no"/>
      <point x="255" y="0" type="line" smooth="no"/>
      <point x="137" y="0" type="line" smooth="no"/>
      <point x="237" y="1284" type="line" smooth="no"/>
      <point x="379" y="1284" type="line" smooth="no"/>
      <point x="681" y="582" type="line" smooth="no"/>
      <point x="975" y="1284" type="line" smooth="no"/>
      <point x="1116" y="1284" type="line" smooth="no"/>
      <point x="1225" y="0" type="line" smooth="no"/>
      <point x="1107" y="0" type="line" smooth="no"/>
    </contour>
  </outline>
</glyph>
<glyph name="N" format="1">
  <advance width="1193"/>
  <unicode hex="004e"/>
  <outline>
    <contour>
      <point x="928" y="1284" type="line" smooth="no"/>
      <point x="1044" y="1284" type="line" smooth="no"/>
      <point x="1044" y="0" type="line" smooth="no"/>
      <point x="918" y="0" type="line" smooth="no"/>
      <point x="271" y="1081" type="line" smooth="no"/>
      <point x="271" y="0" type="line" smooth="no"/>
      <point x="149" y="0" type="line" smooth="no"/>
      <point x="149" y="1284" type="line" smooth="no"/>
      <point x="285" y="1284" type="line" smooth="no"/>
      <point x="928" y="219" type="line" smooth="no"/>
    </contour>
  </outline>
</glyph>
<glyph name="O" format="1">
  <advance width="1128"/>
  <unicode hex="004F"/>
  <outline>
    <contour>
      <point x="564" y="96" type="curve" smooth="yes"/>
      <point x="814" y="96"/>
      <point x="884" y="264"/>
      <point x="884" y="645" type="curve" smooth="yes"/>
      <point x="884" y="1030"/>
      <point x="811" y="1195"/>
      <point x="564" y="1195" type="curve" smooth="yes"/>
      <point x="317" y="1195"/>
      <point x="244" y="1030"/>
      <point x="244" y="645" type="curve" smooth="yes"/>
      <point x="244" y="264"/>
      <point x="314" y="96"/>
    </contour>
    <contour>
      <point x="564" y="1301" type="curve" smooth="yes"/>
      <point x="913" y="1301"/>
      <point x="1012" y="1065"/>
      <point x="1012" y="648" type="curve" smooth="yes"/>
      <point x="1012" y="232"/>
      <point x="925" y="-10"/>
      <point x="564" y="-10" type="curve" smooth="yes"/>
      <point x="203" y="-10"/>
      <point x="116" y="232"/>
      <point x="116" y="648" type="curve" smooth="yes"/>
      <point x="116" y="1065"/>
      <point x="215" y="1301"/>
    </contour>
  </outline>
</glyph>
<glyph name="P" format="1">
  <advance width="981"/>
  <unicode hex="0050"/>
  <outline>
    <contour>
      <point x="498" y="1284" type="line" smooth="yes"/>
      <point x="757" y="1284"/>
      <point x="917" y="1200"/>
      <point x="917" y="905" type="curve" smooth="yes"/>
      <point x="917" y="597"/>
      <point x="729" y="536"/>
      <point x="384" y="536" type="curve" smooth="yes"/>
      <point x="277" y="536" type="line"/>
      <point x="277" y="0" type="line"/>
      <point x="149" y="0" type="line"/>
      <point x="149" y="1284" type="line"/>
    </contour>
    <contour>
      <point x="277" y="640" type="line"/>
      <point x="361" y="640" type="line" smooth="yes"/>
      <point x="651" y="640"/>
      <point x="789" y="647"/>
      <point x="789" y="903" type="curve" smooth="yes"/>
      <point x="789" y="1127"/>
      <point x="694" y="1184"/>
      <point x="506" y="1184" type="curve" smooth="yes"/>
      <point x="277" y="1184" type="line"/>
    </contour>
  </outline>
</glyph>
<glyph name="Q" format="1">
  <advance width="1132"/>
  <unicode hex="0051"/>
  <outline>
    <contour>
      <point x="922" y="-159" type="line"/>
      <point x="787" y="29" type="line"/>
      <point x="728" y="-1"/>
      <point x="656" y="-16"/>
      <point x="566" y="-16" type="curve" smooth="yes"/>
      <point x="205" y="-16"/>
      <point x="118" y="232"/>
      <point x="118" y="648" type="curve" smooth="yes"/>
      <point x="118" y="1065"/>
      <point x="217" y="1308"/>
      <point x="566" y="1308" type="curve" smooth="yes"/>
      <point x="915" y="1308"/>
      <point x="1014" y="1065"/>
      <point x="1014" y="648" type="curve" smooth="yes"/>
      <point x="1014" y="384"/>
      <point x="979" y="188"/>
      <point x="861" y="80" type="curve"/>
      <point x="993" y="-104" type="line"/>
    </contour>
    <contour>
      <point x="566" y="96" type="curve" smooth="yes"/>
      <point x="627" y="96"/>
      <point x="678" y="102"/>
      <point x="719" y="124" type="curve"/>
      <point x="596" y="295" type="line"/>
      <point x="667" y="351" type="line"/>
      <point x="789" y="180" type="line"/>
      <point x="861" y="267"/>
      <point x="886" y="419"/>
      <point x="886" y="645" type="curve" smooth="yes"/>
      <point x="886" y="1030"/>
      <point x="813" y="1196"/>
      <point x="566" y="1196" type="curve" smooth="yes"/>
      <point x="319" y="1196"/>
      <point x="246" y="1030"/>
      <point x="246" y="645" type="curve" smooth="yes"/>
      <point x="246" y="264"/>
      <point x="316" y="96"/>
    </contour>
  </outline>
</glyph>
<glyph name="R" format="1">
  <advance width="1053"/>
  <unicode hex="0052"/>
  <outline>
    <contour>
      <point x="975" y="41" type="curve"/>
      <point x="870" y="-25" type="line"/>
      <point x="870" y="-25"/>
      <point x="663" y="316"/>
      <point x="550" y="573" type="curve"/>
      <point x="502" y="569"/>
      <point x="444" y="567"/>
      <point x="387" y="567" type="curve" smooth="yes"/>
      <point x="277" y="567" type="line"/>
      <point x="277" y="0" type="line"/>
      <point x="149" y="0" type="line"/>
      <point x="149" y="1284" type="line"/>
      <point x="402" y="1284" type="line" smooth="yes"/>
      <point x="743" y="1284"/>
      <point x="917" y="1238"/>
      <point x="917" y="922" type="curve" smooth="yes"/>
      <point x="917" y="722"/>
      <point x="834" y="629"/>
      <point x="669" y="591" type="curve"/>
      <point x="762" y="381"/>
      <point x="975" y="41"/>
    </contour>
    <contour>
      <point x="789" y="920" type="curve" smooth="yes"/>
      <point x="789" y="1166"/>
      <point x="656" y="1184"/>
      <point x="396" y="1184" type="curve" smooth="yes"/>
      <point x="277" y="1184" type="line"/>
      <point x="277" y="662" type="line"/>
      <point x="364" y="662" type="line" smooth="yes"/>
      <point x="689" y="662"/>
      <point x="789" y="697"/>
    </contour>
  </outline>
</glyph>
<glyph name="S" format="1">
  <advance width="947"/>
  <unicode hex="0053"/>
  <outline>
    <contour>
      <point x="819" y="1137" type="line"/>
      <point x="734" y="1169"/>
      <point x="641" y="1195"/>
      <point x="514" y="1195" type="curve" smooth="yes"/>
      <point x="359" y="1195"/>
      <point x="233" y="1143"/>
      <point x="233" y="972" type="curve" smooth="yes"/>
      <point x="233" y="867"/>
      <point x="265" y="816"/>
      <point x="417" y="761" type="curve" smooth="yes"/>
      <point x="531" y="720" type="line" smooth="yes"/>
      <point x="694" y="661"/>
      <point x="873" y="617"/>
      <point x="873" y="353" type="curve" smooth="yes"/>
      <point x="873" y="117"/>
      <point x="717" y="-10"/>
      <point x="481" y="-10" type="curve" smooth="yes"/>
      <point x="352" y="-10"/>
      <point x="211" y="11"/>
      <point x="105" y="68" type="curve"/>
      <point x="133" y="173" type="line"/>
      <point x="209" y="140"/>
      <point x="310" y="96"/>
      <point x="471" y="96" type="curve" smooth="yes"/>
      <point x="634" y="96"/>
      <point x="745" y="175"/>
      <point x="745" y="355" type="curve" smooth="yes"/>
      <point x="745" y="512"/>
      <point x="660" y="549"/>
      <point x="499" y="603" type="curve" smooth="yes"/>
      <point x="376" y="644" type="line" smooth="yes"/>
      <point x="209" y="700"/>
      <point x="105" y="786"/>
      <point x="105" y="969" type="curve" smooth="yes"/>
      <point x="105" y="1213"/>
      <point x="282" y="1301"/>
      <point x="497" y="1301" type="curve" smooth="yes"/>
      <point x="615" y="1301"/>
      <point x="733" y="1284"/>
      <point x="842" y="1239" type="curve"/>
    </contour>
  </outline>
</glyph>
<glyph name="T" format="1">
  <advance width="891"/>
  <unicode hex="0054"/>
  <outline>
    <contour>
      <point x="35" y="1184" type="line" smooth="no"/>
      <point x="35" y="1284" type="line" smooth="no"/>
      <point x="856" y="1284" type="line" smooth="no"/>
      <point x="856" y="1184" type="line" smooth="no"/>
      <point x="507" y="1184" type="line" smooth="no"/>
      <point x="507" y="0" type="line" smooth="no"/>
      <point x="379" y="0" type="line" smooth="no"/>
      <point x="379" y="1184" type="line" smooth="no"/>
    </contour>
  </outline>
</glyph>
<glyph name="U" format="1">
  <advance width="1080"/>
  <unicode hex="0055"/>
  <outline>
    <contour>
      <point x="540" y="96" type="curve" smooth="yes"/>
      <point x="813" y="96"/>
      <point x="828" y="263"/>
      <point x="828" y="540" type="curve" smooth="yes"/>
      <point x="828" y="1284" type="line"/>
      <point x="956" y="1284" type="line"/>
      <point x="956" y="635" type="line" smooth="yes"/>
      <point x="956" y="224"/>
      <point x="926" y="-16"/>
      <point x="540" y="-16" type="curve" smooth="yes"/>
      <point x="154" y="-16"/>
      <point x="124" y="224"/>
      <point x="124" y="635" type="curve" smooth="yes"/>
      <point x="124" y="1284" type="line"/>
      <point x="252" y="1284" type="line"/>
      <point x="252" y="540" type="line" smooth="yes"/>
      <point x="252" y="263"/>
      <point x="267" y="96"/>
    </contour>
  </outline>
</glyph>
<glyph name="V" format="1">
  <advance width="1008"/>
  <unicode hex="0056"/>
  <outline>
    <contour>
      <point x="188" y="1285" type="line"/>
      <point x="303" y="838"/>
      <point x="415" y="468"/>
      <point x="504" y="134" type="curve"/>
      <point x="593" y="468"/>
      <point x="702" y="838"/>
      <point x="817" y="1285" type="curve"/>
      <point x="952" y="1285" type="line"/>
      <point x="583" y="0" type="line"/>
      <point x="425" y="0" type="line"/>
      <point x="56" y="1285" type="line"/>
    </contour>
  </outline>
</glyph>
<glyph name="W" format="1">
  <advance width="1337"/>
  <unicode hex="0057"/>
  <outline>
    <contour>
      <point x="390" y="185" type="line" smooth="no"/>
      <point x="623" y="846" type="line" smooth="no"/>
      <point x="738" y="846" type="line" smooth="no"/>
      <point x="981" y="183" type="line" smooth="no"/>
      <point x="1087" y="1284" type="line" smooth="no"/>
      <point x="1205" y="1284" type="line" smooth="no"/>
      <point x="1085" y="0" type="line" smooth="no"/>
      <point x="943" y="0" type="line" smooth="no"/>
      <point x="681" y="702" type="line" smooth="no"/>
      <point x="427" y="0" type="line" smooth="no"/>
      <point x="286" y="0" type="line" smooth="no"/>
      <point x="157" y="1284" type="line" smooth="no"/>
      <point x="275" y="1284" type="line" smooth="no"/>
    </contour>
  </outline>
</glyph>
<glyph name="X" format="1">
  <advance width="899"/>
  <unicode hex="0058"/>
  <outline>
    <contour>
      <point x="70" y="1284" type="line"/>
      <point x="200" y="1284" type="line"/>
      <point x="452" y="745" type="line"/>
      <point x="702" y="1284" type="line"/>
      <point x="820" y="1284" type="line"/>
      <point x="535" y="657" type="line"/>
      <point x="855" y="0" type="line"/>
      <point x="727" y="0" type="line"/>
      <point x="453" y="569" type="line"/>
      <point x="182" y="0" type="line"/>
      <point x="44" y="0" type="line"/>
      <point x="362" y="658" type="line"/>
    </contour>
  </outline>
</glyph>
<glyph name="Y" format="1">
  <advance width="926"/>
  <unicode hex="0059"/>
  <outline>
    <contour>
      <point x="399" y="586" type="line"/>
      <point x="15" y="1284" type="line"/>
      <point x="157" y="1284" type="line"/>
      <point x="463" y="704" type="line"/>
      <point x="765" y="1284" type="line"/>
      <point x="911" y="1284" type="line"/>
      <point x="527" y="588" type="line"/>
      <point x="527" y="0" type="line"/>
      <point x="399" y="0" type="line"/>
    </contour>
  </outline>
</glyph>
<glyph name="Z" format="1">
  <advance width="927"/>
  <unicode hex="005a"/>
  <outline>
    <contour>
      <point x="841" y="100" type="line" smooth="no"/>
      <point x="841" y="0" type="line" smooth="no"/>
      <point x="125" y="0" type="line" smooth="no"/>
      <point x="104" y="98" type="line" smooth="no"/>
      <point x="673" y="1184" type="line" smooth="no"/>
      <point x="135" y="1184" type="line" smooth="no"/>
      <point x="135" y="1284" type="line" smooth="no"/>
      <point x="804" y="1284" type="line" smooth="no"/>
      <point x="820" y="1176" type="line" smooth="no"/>
      <point x="252" y="100" type="line" smooth="no"/>
    </contour>
  </outline>
</glyph>
<glyph name="bracketleft" format="1">
  <advance width="604"/>
  <unicode hex="005b"/>
  <outline>
    <contour>
      <point x="288" y="0" type="line" smooth="no"/>
      <point x="544" y="0" type="line" smooth="no"/>
      <point x="544" y="-103" type="line" smooth="no"/>
      <point x="160" y="-103" type="line" smooth="no"/>
      <point x="160" y="1358" type="line" smooth="no"/>
      <point x="544" y="1358" type="line" smooth="no"/>
      <point x="544" y="1254" type="line" smooth="no"/>
      <point x="288" y="1254" type="line" smooth="no"/>
    </contour>
  </outline>
</glyph>
<glyph name="backslash" format="1">
  <advance width="884"/>
  <unicode hex="005c"/>
  <outline>
    <contour>
      <point x="159" y="1473" type="line" smooth="no"/>
      <point x="784" y="-55" type="line" smooth="no"/>
      <point x="709" y="-96" type="line" smooth="no"/>
      <point x="83" y="1432" type="line" smooth="no"/>
    </contour>
  </outline>
</glyph>
<glyph name="bracketright" format="1">
  <advance width="604"/>
  <unicode hex="005d"/>
  <outline>
    <contour>
      <point x="416" y="1255" type="line" smooth="no"/>
      <point x="160" y="1255" type="line" smooth="no"/>
      <point x="160" y="1358" type="line" smooth="no"/>
      <point x="544" y="1358" type="line" smooth="no"/>
      <point x="544" y="-103" type="line" smooth="no"/>
      <point x="160" y="-103" type="line" smooth="no"/>
      <point x="160" y="1" type="line" smooth="no"/>
      <point x="416" y="1" type="line" smooth="no"/>
    </contour>
  </outline>
</glyph>
<glyph name="asciicircum" format="1">
  <advance width="943"/>
  <unicode hex="005e"/>
  <outline>
    <contour>
      <point x="448" y="1211" type="line" smooth="no"/>
      <point x="247" y="775" type="line" smooth="no"/>
      <point x="128" y="775" type="line" smooth="no"/>
      <point x="380" y="1308" type="line" smooth="no"/>
      <point x="517" y="1308" type="line" smooth="no"/>
      <point x="768" y="776" type="line" smooth="no"/>
      <point x="654" y="776" type="line" smooth="no"/>
    </contour>
  </outline>
</glyph>
<glyph name="underscore" format="1">
  <advance width="1066"/>
  <unicode hex="005f"/>
  <outline>
    <contour>
      <point x="100" y="-219" type="line" smooth="no"/>
      <point x="100" y="-125" type="line" smooth="no"/>
      <point x="968" y="-125" type="line" smooth="no"/>
      <point x="968" y="-219" type="line" smooth="no"/>
    </contour>
  </outline>
</glyph>
<glyph name="grave" format="1">
  <advance width="486"/>
  <unicode hex="0060"/>
  <outline>
    <contour>
      <point x="419" y="1022" type="line"/>
      <point x="366" y="973" type="line"/>
      <point x="366" y="973"/>
      <point x="214" y="1106"/>
      <point x="167" y="1164" type="curve" smooth="yes"/>
      <point x="68" y="1283" type="line"/>
      <point x="174" y="1363" type="line"/>
    </contour>
  </outline>
</glyph>
<glyph name="a" format="1">
  <advance width="953"/>
  <unicode hex="0061"/>
  <outline>
    <contour>
      <point x="166" y="942" type="line"/>
      <point x="270" y="976"/>
      <point x="377" y="1000"/>
      <point x="474" y="1000" type="curve" smooth="yes"/>
      <point x="663" y="1000"/>
      <point x="810" y="902"/>
      <point x="810" y="617" type="curve" smooth="yes"/>
      <point x="810" y="0" type="line"/>
      <point x="718" y="0" type="line"/>
      <point x="698" y="66" type="line"/>
      <point x="653" y="30"/>
      <point x="532" y="-10"/>
      <point x="425" y="-10" type="curve" smooth="yes"/>
      <point x="241" y="-10"/>
      <point x="109" y="85"/>
      <point x="109" y="284" type="curve" smooth="yes"/>
      <point x="109" y="429"/>
      <point x="223" y="567"/>
      <point x="597" y="567" type="curve" smooth="yes"/>
      <point x="685" y="567" type="line"/>
      <point x="685" y="599" type="line" smooth="yes"/>
      <point x="684" y="831"/>
      <point x="594" y="895"/>
      <point x="468" y="895" type="curve" smooth="yes"/>
      <point x="386" y="895"/>
      <point x="289" y="868"/>
      <point x="191" y="843" type="curve"/>
    </contour>
    <contour>
      <point x="229" y="278" type="curve" smooth="yes"/>
      <point x="229" y="153"/>
      <point x="305" y="92"/>
      <point x="445" y="92" type="curve" smooth="yes"/>
      <point x="533" y="92"/>
      <point x="630" y="122"/>
      <point x="685" y="158" type="curve"/>
      <point x="685" y="473" type="line"/>
      <point x="629" y="473" type="line" smooth="yes"/>
      <point x="462" y="473"/>
      <point x="229" y="455"/>
    </contour>
  </outline>
</glyph>
<glyph name="b" format="1">
  <advance width="984"/>
  <unicode hex="0062"/>
  <outline>
    <contour>
      <point x="268" y="137" type="line"/>
      <point x="350" y="99"/>
      <point x="408" y="96"/>
      <point x="463" y="96" type="curve" smooth="yes"/>
      <point x="492" y="96" type="line" smooth="yes"/>
      <point x="672" y="96"/>
      <point x="748" y="206"/>
      <point x="748" y="491" type="curve" smooth="yes"/>
      <point x="748" y="767"/>
      <point x="681" y="895"/>
      <point x="524" y="895" type="curve" smooth="yes"/>
      <point x="456" y="895"/>
      <point x="377" y="872"/>
      <point x="268" y="809" type="curve"/>
    </contour>
    <contour>
      <point x="268" y="1358" type="line"/>
      <point x="268" y="923" type="line"/>
      <point x="370" y="986"/>
      <point x="456" y="1000"/>
      <point x="540" y="1000" type="curve" smooth="yes"/>
      <point x="740" y="1000"/>
      <point x="876" y="852"/>
      <point x="876" y="493" type="curve" smooth="yes"/>
      <point x="876" y="126"/>
      <point x="747" y="-10"/>
      <point x="510" y="-10" type="curve" smooth="yes"/>
      <point x="435" y="-10"/>
      <point x="336" y="6"/>
      <point x="254" y="50" type="curve"/>
      <point x="244" y="0" type="line"/>
      <point x="140" y="0" type="line"/>
      <point x="140" y="1358" type="line"/>
    </contour>
  </outline>
</glyph>
<glyph name="c" format="1">
  <advance width="864"/>
  <unicode hex="0063"/>
  <outline>
    <contour>
      <point x="750" y="170" type="curve"/>
      <point x="798" y="79" type="line"/>
      <point x="705" y="11"/>
      <point x="610" y="-10"/>
      <point x="507" y="-10" type="curve" smooth="yes"/>
      <point x="285" y="-10"/>
      <point x="108" y="158"/>
      <point x="108" y="495" type="curve" smooth="yes"/>
      <point x="108" y="831"/>
      <point x="237" y="1000"/>
      <point x="496" y="1000" type="curve" smooth="yes"/>
      <point x="587" y="1000"/>
      <point x="674" y="980"/>
      <point x="759" y="940" type="curve"/>
      <point x="759" y="682" type="line"/>
      <point x="657" y="672" type="line"/>
      <point x="657" y="872" type="line"/>
      <point x="606" y="892"/>
      <point x="551" y="898"/>
      <point x="494" y="898" type="curve" smooth="yes"/>
      <point x="292" y="898"/>
      <point x="236" y="732"/>
      <point x="236" y="493" type="curve" smooth="yes"/>
      <point x="236" y="233"/>
      <point x="351" y="94"/>
      <point x="521" y="94" type="curve" smooth="yes"/>
      <point x="594" y="94"/>
      <point x="666" y="113"/>
    </contour>
  </outline>
</glyph>
<glyph name="d" format="1">
  <advance width="1010"/>
  <unicode hex="0064"/>
  <outline>
    <contour>
      <point x="742" y="137" type="curve"/>
      <point x="742" y="809" type="line"/>
      <point x="633" y="872"/>
      <point x="568" y="895"/>
      <point x="500" y="895" type="curve" smooth="yes"/>
      <point x="343" y="895"/>
      <point x="236" y="767"/>
      <point x="236" y="491" type="curve" smooth="yes"/>
      <point x="236" y="206"/>
      <point x="352" y="96"/>
      <point x="532" y="96" type="curve" smooth="yes"/>
      <point x="560" y="96" type="line" smooth="yes"/>
      <point x="612" y="96"/>
      <point x="660" y="99"/>
    </contour>
    <contour>
      <point x="742" y="1358" type="line"/>
      <point x="870" y="1358" type="line"/>
      <point x="870" y="0" type="line"/>
      <point x="766" y="0" type="line"/>
      <point x="756" y="50" type="line"/>
      <point x="674" y="6"/>
      <point x="589" y="-10"/>
      <point x="514" y="-10" type="curve" smooth="yes"/>
      <point x="277" y="-10"/>
      <point x="108" y="126"/>
      <point x="108" y="493" type="curve" smooth="yes"/>
      <point x="108" y="852"/>
      <point x="284" y="1000"/>
      <point x="484" y="1000" type="curve" smooth="yes"/>
      <point x="568" y="1000"/>
      <point x="640" y="986"/>
      <point x="742" y="923" type="curve"/>
    </contour>
  </outline>
</glyph>
<glyph name="e" format="1">
  <advance width="964"/>
  <unicode hex="0065"/>
  <outline>
    <contour>
      <point x="525" y="96" type="curve" smooth="yes"/>
      <point x="625" y="96"/>
      <point x="712" y="117"/>
      <point x="805" y="176" type="curve"/>
      <point x="844" y="75" type="line"/>
      <point x="748" y="16"/>
      <point x="627" y="-10"/>
      <point x="532" y="-10" type="curve" smooth="yes"/>
      <point x="275" y="-10"/>
      <point x="108" y="134"/>
      <point x="108" y="496" type="curve" smooth="yes"/>
      <point x="108" y="843"/>
      <point x="274" y="1000"/>
      <point x="507" y="1000" type="curve" smooth="yes"/>
      <point x="729" y="1000"/>
      <point x="862" y="841"/>
      <point x="862" y="604" type="curve" smooth="yes"/>
      <point x="862" y="574"/>
      <point x="859" y="528"/>
      <point x="854" y="469" type="curve"/>
      <point x="236" y="469" type="line"/>
      <point x="240" y="162"/>
      <point x="379" y="96"/>
    </contour>
    <contour>
      <point x="508" y="895" type="curve" smooth="yes"/>
      <point x="335" y="895"/>
      <point x="251" y="766"/>
      <point x="236" y="559" type="curve"/>
      <point x="743" y="559" type="line"/>
      <point x="743" y="609" type="line" smooth="yes"/>
      <point x="743" y="783"/>
      <point x="653" y="895"/>
    </contour>
  </outline>
</glyph>
<glyph name="f" format="1">
  <advance width="686"/>
  <unicode hex="0066"/>
  <outline>
    <contour>
      <point x="254" y="0" type="line"/>
      <point x="254" y="893" type="line"/>
      <point x="62" y="893" type="line"/>
      <point x="62" y="985" type="line"/>
      <point x="254" y="985" type="line"/>
      <point x="254" y="1271"/>
      <point x="300" y="1387"/>
      <point x="513" y="1394" type="curve"/>
      <point x="569" y="1394"/>
      <point x="631" y="1391"/>
      <point x="698" y="1368" type="curve"/>
      <point x="682" y="1268" type="line"/>
      <point x="660" y="1274"/>
      <point x="579" y="1289"/>
      <point x="541" y="1289" type="curve" smooth="yes"/>
      <point x="425" y="1289"/>
      <point x="382" y="1250"/>
      <point x="382" y="985" type="curve"/>
      <point x="606" y="985" type="line"/>
      <point x="606" y="893" type="line"/>
      <point x="382" y="893" type="line"/>
      <point x="382" y="0" type="line"/>
    </contour>
  </outline>
</glyph>
<glyph name="g" format="1">
  <advance width="1092"/>
  <unicode hex="0067"/>
  <outline>
    <contour>
      <point x="545" y="905" type="curve" smooth="yes"/>
      <point x="351" y="905"/>
      <point x="278" y="811"/>
      <point x="278" y="689" type="curve" smooth="yes"/>
      <point x="278" y="548"/>
      <point x="376" y="475"/>
      <point x="535" y="475" type="curve" smooth="yes"/>
      <point x="704" y="475"/>
      <point x="797" y="542"/>
      <point x="797" y="678" type="curve" smooth="yes"/>
      <point x="797" y="800"/>
      <point x="720" y="905"/>
    </contour>
    <contour>
      <point x="742" y="977" type="curve" smooth="yes"/>
      <point x="1029" y="977" type="line"/>
      <point x="1029" y="883" type="line"/>
      <point x="806" y="883" type="line"/>
      <point x="877" y="829"/>
      <point x="914" y="746"/>
      <point x="914" y="674" type="curve" smooth="yes"/>
      <point x="914" y="491"/>
      <point x="763" y="377"/>
      <point x="544" y="377" type="curve" smooth="yes"/>
      <point x="477" y="377"/>
      <point x="398" y="390"/>
      <point x="338" y="414" type="curve"/>
      <point x="306" y="362"/>
      <point x="272" y="321"/>
      <point x="272" y="274" type="curve" smooth="yes"/>
      <point x="272" y="220"/>
      <point x="303" y="196"/>
      <point x="303" y="196" type="curve"/>
      <point x="682" y="196" type="line" smooth="yes"/>
      <point x="900" y="196"/>
      <point x="965" y="128"/>
      <point x="965" y="-10" type="curve" smooth="yes"/>
      <point x="965" y="-137"/>
      <point x="869" y="-309"/>
      <point x="515" y="-309" type="curve" smooth="yes"/>
      <point x="182" y="-309"/>
      <point x="118" y="-153"/>
      <point x="118" y="-62" type="curve" smooth="yes"/>
      <point x="118" y="21"/>
      <point x="189" y="104"/>
      <point x="229" y="127" type="curve"/>
      <point x="184" y="157"/>
      <point x="158" y="207"/>
      <point x="158" y="257" type="curve" smooth="yes"/>
      <point x="158" y="333"/>
      <point x="193" y="369"/>
      <point x="261" y="465" type="curve"/>
      <point x="200" y="516"/>
      <point x="150" y="589"/>
      <point x="150" y="688" type="curve" smooth="yes"/>
      <point x="150" y="909"/>
      <point x="325" y="1000"/>
      <point x="539" y="1000" type="curve" smooth="yes"/>
      <point x="626" y="1000"/>
      <point x="663" y="977"/>
    </contour>
    <contour>
      <point x="521" y="-204" type="curve" smooth="yes"/>
      <point x="753" y="-204"/>
      <point x="837" y="-108"/>
      <point x="837" y="-18" type="curve" smooth="yes"/>
      <point x="837" y="49"/>
      <point x="817" y="96"/>
      <point x="690" y="96" type="curve" smooth="yes"/>
      <point x="319" y="96" type="line"/>
      <point x="280" y="59"/>
      <point x="246" y="13"/>
      <point x="246" y="-48" type="curve" smooth="yes"/>
      <point x="246" y="-114"/>
      <point x="258" y="-204"/>
    </contour>
  </outline>
</glyph>
<glyph name="h" format="1">
  <advance width="972"/>
  <unicode hex="0068"/>
  <outline>
    <contour>
      <point x="268" y="800" type="curve"/>
      <point x="268" y="0" type="line"/>
      <point x="140" y="0" type="line"/>
      <point x="140" y="1358" type="line"/>
      <point x="268" y="1358" type="line"/>
      <point x="268" y="911" type="line"/>
      <point x="375" y="970"/>
      <point x="472" y="1000"/>
      <point x="567" y="1000" type="curve" smooth="yes"/>
      <point x="753" y="1000"/>
      <point x="844" y="900"/>
      <point x="844" y="663" type="curve" smooth="yes"/>
      <point x="844" y="0" type="line"/>
      <point x="716" y="0" type="line"/>
      <point x="716" y="669" type="line" smooth="yes"/>
      <point x="716" y="826"/>
      <point x="678" y="895"/>
      <point x="559" y="895" type="curve" smooth="yes"/>
      <point x="488" y="895"/>
      <point x="398" y="870"/>
    </contour>
  </outline>
</glyph>
<glyph name="i" format="1">
  <advance width="673"/>
  <unicode hex="0069"/>
  <outline>
    <contour>
      <point x="111" y="895" type="line"/>
      <point x="111" y="985" type="line"/>
      <point x="431" y="985" type="line"/>
      <point x="431" y="90" type="line"/>
      <point x="623" y="90" type="line"/>
      <point x="623" y="0" type="line"/>
      <point x="111" y="0" type="line"/>
      <point x="111" y="90" type="line"/>
      <point x="303" y="90" type="line"/>
      <point x="303" y="895" type="line"/>
    </contour>
    <contour>
      <point x="276" y="1264" type="curve" smooth="yes"/>
      <point x="276" y="1321"/>
      <point x="316" y="1356"/>
      <point x="367" y="1356" type="curve" smooth="yes"/>
      <point x="420" y="1356"/>
      <point x="457" y="1326"/>
      <point x="457" y="1266" type="curve" smooth="yes"/>
      <point x="457" y="1206"/>
      <point x="420" y="1176"/>
      <point x="367" y="1176" type="curve" smooth="yes"/>
      <point x="316" y="1176"/>
      <point x="276" y="1208"/>
    </contour>
  </outline>
</glyph>
<glyph name="j" format="1">
  <advance width="626"/>
  <unicode hex="006A"/>
  <outline>
    <contour>
      <point x="310" y="1264" type="curve" smooth="yes"/>
      <point x="310" y="1321"/>
      <point x="350" y="1356"/>
      <point x="401" y="1356" type="curve" smooth="yes"/>
      <point x="454" y="1356"/>
      <point x="491" y="1326"/>
      <point x="491" y="1266" type="curve" smooth="yes"/>
      <point x="491" y="1206"/>
      <point x="454" y="1176"/>
      <point x="401" y="1176" type="curve" smooth="yes"/>
      <point x="350" y="1176"/>
      <point x="310" y="1208"/>
    </contour>
    <contour>
      <point x="202" y="-182" type="curve" smooth="yes"/>
      <point x="315" y="-182"/>
      <point x="339" y="-123"/>
      <point x="339" y="28" type="curve" smooth="yes"/>
      <point x="339" y="895" type="line"/>
      <point x="115" y="895" type="line"/>
      <point x="115" y="985" type="line"/>
      <point x="467" y="985" type="line"/>
      <point x="467" y="18" type="line" smooth="yes"/>
      <point x="467" y="-203"/>
      <point x="378" y="-295"/>
      <point x="206" y="-295" type="curve" smooth="yes"/>
      <point x="149" y="-295"/>
      <point x="93" y="-291"/>
      <point x="38" y="-275" type="curve"/>
      <point x="54" y="-166" type="line"/>
      <point x="99" y="-177"/>
      <point x="139" y="-182"/>
    </contour>
  </outline>
</glyph>
<glyph name="k" format="1">
  <advance width="937"/>
  <unicode hex="006b"/>
  <outline>
    <contour>
      <point x="140" y="0" type="line" smooth="no"/>
      <point x="140" y="1358" type="line" smooth="no"/>
      <point x="268" y="1358" type="line" smooth="no"/>
      <point x="268" y="494" type="line" smooth="no"/>
      <point x="370" y="603"/>
      <point x="520" y="760"/>
      <point x="719" y="985" type="curve" smooth="no"/>
      <point x="872" y="985" type="line" smooth="no"/>
      <point x="456" y="522" type="line" smooth="no"/>
      <point x="908" y="0" type="line" smooth="no"/>
      <point x="760" y="0" type="line" smooth="no"/>
      <point x="567" y="216"/>
      <point x="385" y="429"/>
      <point x="385" y="429" type="curve" smooth="no"/>
      <point x="359" y="458" type="line" smooth="no"/>
      <point x="268" y="377" type="line" smooth="no"/>
      <point x="268" y="0" type="line" smooth="no"/>
    </contour>
  </outline>
</glyph>
<glyph name="l" format="1">
  <advance width="682"/>
  <unicode hex="006C"/>
  <outline>
    <contour>
      <point x="72" y="1358" type="line"/>
      <point x="421" y="1358" type="line"/>
      <point x="421" y="90" type="line"/>
      <point x="632" y="90" type="line"/>
      <point x="632" y="0" type="line"/>
      <point x="70" y="0" type="line"/>
      <point x="70" y="90" type="line"/>
      <point x="293" y="90" type="line"/>
      <point x="293" y="1267" type="line"/>
      <point x="72" y="1267" type="line"/>
    </contour>
  </outline>
</glyph>
<glyph name="m" format="1">
  <advance width="1501"/>
  <unicode hex="006D"/>
  <outline>
    <contour>
      <point x="1080" y="1000" type="curve" smooth="yes"/>
      <point x="1265" y="1000"/>
      <point x="1373" y="894"/>
      <point x="1373" y="671" type="curve" smooth="yes"/>
      <point x="1373" y="0" type="line"/>
      <point x="1245" y="0" type="line"/>
      <point x="1245" y="672" type="line" smooth="yes"/>
      <point x="1245" y="827"/>
      <point x="1187" y="895"/>
      <point x="1084" y="895" type="curve" smooth="yes"/>
      <point x="1035" y="895"/>
      <point x="914" y="891"/>
      <point x="817" y="830" type="curve"/>
      <point x="819" y="820"/>
      <point x="829" y="728"/>
      <point x="829" y="664" type="curve" smooth="yes"/>
      <point x="829" y="0" type="line"/>
      <point x="701" y="0" type="line"/>
      <point x="701" y="668" type="line" smooth="yes"/>
      <point x="701" y="826"/>
      <point x="663" y="895"/>
      <point x="543" y="896" type="curve" smooth="yes"/>
      <point x="541" y="896" type="line" smooth="yes"/>
      <point x="482" y="896"/>
      <point x="370" y="879"/>
      <point x="268" y="823" type="curve"/>
      <point x="268" y="0" type="line"/>
      <point x="140" y="0" type="line"/>
      <point x="140" y="985" type="line"/>
      <point x="258" y="985" type="line"/>
      <point x="263" y="922" type="line"/>
      <point x="364" y="978"/>
      <point x="474" y="1000"/>
      <point x="560" y="1000" type="curve" smooth="yes"/>
      <point x="647" y="1000"/>
      <point x="730" y="978"/>
      <point x="770" y="918" type="curve"/>
      <point x="889" y="982"/>
      <point x="999" y="1000"/>
    </contour>
  </outline>
</glyph>
<glyph name="n" format="1">
  <advance width="985"/>
  <unicode hex="006e"/>
  <outline>
    <contour>
      <point x="268" y="822" type="curve" smooth="no"/>
      <point x="268" y="0" type="line" smooth="no"/>
      <point x="140" y="0" type="line" smooth="no"/>
      <point x="140" y="985" type="line" smooth="no"/>
      <point x="245" y="985" type="line" smooth="no"/>
      <point x="254" y="921" type="line" smooth="no"/>
      <point x="389" y="985"/>
      <point x="463" y="1000"/>
      <point x="560" y="1000" type="curve" smooth="yes"/>
      <point x="763" y="1000"/>
      <point x="857" y="891"/>
      <point x="857" y="663" type="curve" smooth="yes"/>
      <point x="857" y="0" type="line" smooth="no"/>
      <point x="729" y="0" type="line" smooth="no"/>
      <point x="729" y="668" type="line" smooth="yes"/>
      <point x="729" y="825"/>
      <point x="689" y="895"/>
      <point x="553" y="895" type="curve" smooth="yes"/>
      <point x="479" y="895"/>
      <point x="388" y="888"/>
    </contour>
  </outline>
</glyph>
<glyph name="o" format="1">
  <advance width="984"/>
  <unicode hex="006F"/>
  <outline>
    <contour>
      <point x="492" y="895" type="curve" smooth="yes"/>
      <point x="295" y="895"/>
      <point x="236" y="730"/>
      <point x="236" y="495" type="curve" smooth="yes"/>
      <point x="236" y="257"/>
      <point x="292" y="96"/>
      <point x="492" y="96" type="curve" smooth="yes"/>
      <point x="692" y="96"/>
      <point x="748" y="257"/>
      <point x="748" y="495" type="curve" smooth="yes"/>
      <point x="748" y="730"/>
      <point x="689" y="895"/>
    </contour>
    <contour>
      <point x="492" y="-10" type="curve" smooth="yes"/>
      <point x="225" y="-10"/>
      <point x="108" y="182"/>
      <point x="108" y="495" type="curve" smooth="yes"/>
      <point x="108" y="826"/>
      <point x="223" y="1000"/>
      <point x="492" y="1000" type="curve" smooth="yes"/>
      <point x="761" y="1000"/>
      <point x="876" y="826"/>
      <point x="876" y="495" type="curve" smooth="yes"/>
      <point x="876" y="182"/>
      <point x="759" y="-10"/>
    </contour>
  </outline>
</glyph>
<glyph name="p" format="1">
  <advance width="982"/>
  <unicode hex="0070"/>
  <outline>
    <contour>
      <point x="268" y="809" type="curve"/>
      <point x="268" y="137" type="line"/>
      <point x="350" y="99"/>
      <point x="408" y="96"/>
      <point x="463" y="96" type="curve" smooth="yes"/>
      <point x="492" y="96" type="line" smooth="yes"/>
      <point x="672" y="96"/>
      <point x="748" y="206"/>
      <point x="748" y="491" type="curve" smooth="yes"/>
      <point x="748" y="767"/>
      <point x="681" y="895"/>
      <point x="524" y="895" type="curve" smooth="yes"/>
      <point x="456" y="895"/>
      <point x="377" y="872"/>
    </contour>
    <contour>
      <point x="268" y="43" type="curve"/>
      <point x="268" y="-389" type="line"/>
      <point x="140" y="-389" type="line"/>
      <point x="140" y="985" type="line"/>
      <point x="245" y="985" type="line"/>
      <point x="257" y="916" type="line"/>
      <point x="363" y="985"/>
      <point x="457" y="1000"/>
      <point x="540" y="1000" type="curve" smooth="yes"/>
      <point x="740" y="1000"/>
      <point x="876" y="852"/>
      <point x="876" y="493" type="curve" smooth="yes"/>
      <point x="876" y="126"/>
      <point x="747" y="-10"/>
      <point x="510" y="-10" type="curve" smooth="yes"/>
      <point x="439" y="-10"/>
      <point x="347" y="4"/>
    </contour>
  </outline>
</glyph>
<glyph name="q" format="1">
  <advance width="984"/>
  <unicode hex="0071"/>
  <outline>
    <contour>
      <point x="487" y="96" type="curve" smooth="yes"/>
      <point x="550" y="96"/>
      <point x="628" y="97"/>
      <point x="716" y="137" type="curve"/>
      <point x="716" y="821" type="line"/>
      <point x="607" y="884"/>
      <point x="542" y="895"/>
      <point x="474" y="895" type="curve" smooth="yes"/>
      <point x="317" y="895"/>
      <point x="236" y="767"/>
      <point x="236" y="491" type="curve" smooth="yes"/>
      <point x="236" y="206"/>
      <point x="307" y="96"/>
    </contour>
    <contour>
      <point x="716" y="42" type="line"/>
      <point x="642" y="0"/>
      <point x="551" y="-10"/>
      <point x="481" y="-10" type="curve" smooth="yes"/>
      <point x="244" y="-10"/>
      <point x="108" y="126"/>
      <point x="108" y="493" type="curve" smooth="yes"/>
      <point x="108" y="866"/>
      <point x="257" y="1000"/>
      <point x="462" y="1000" type="curve" smooth="yes"/>
      <point x="546" y="1000"/>
      <point x="616" y="985"/>
      <point x="717" y="923" type="curve"/>
      <point x="738" y="985" type="line"/>
      <point x="844" y="985" type="line"/>
      <point x="844" y="-389" type="line"/>
      <point x="716" y="-389" type="line"/>
    </contour>
  </outline>
</glyph>
<glyph name="r" format="1">
  <advance width="651"/>
  <unicode hex="0072"/>
  <outline>
    <contour>
      <point x="273" y="899" type="line"/>
      <point x="351" y="952"/>
      <point x="487" y="996"/>
      <point x="589" y="1000" type="curve"/>
      <point x="589" y="893" type="line"/>
      <point x="467" y="893"/>
      <point x="336" y="849"/>
      <point x="274" y="804" type="curve"/>
      <point x="274" y="0" type="line"/>
      <point x="146" y="0" type="line"/>
      <point x="146" y="985" type="line"/>
      <point x="268" y="985" type="line"/>
    </contour>
  </outline>
</glyph>
<glyph name="s" format="1">
  <advance width="838"/>
  <unicode hex="0073"/>
  <outline>
    <contour>
      <point x="150" y="167" type="line"/>
      <point x="211" y="133"/>
      <point x="328" y="96"/>
      <point x="432" y="96" type="curve" smooth="yes"/>
      <point x="542" y="96"/>
      <point x="637" y="137"/>
      <point x="637" y="265" type="curve" smooth="yes"/>
      <point x="637" y="364"/>
      <point x="587" y="400"/>
      <point x="506" y="425" type="curve" smooth="yes"/>
      <point x="356" y="472" type="line" smooth="yes"/>
      <point x="211" y="518"/>
      <point x="123" y="568"/>
      <point x="123" y="735" type="curve" smooth="yes"/>
      <point x="123" y="926"/>
      <point x="277" y="1000"/>
      <point x="447" y="1000" type="curve" smooth="yes"/>
      <point x="539" y="1000"/>
      <point x="635" y="978"/>
      <point x="713" y="942" type="curve"/>
      <point x="675" y="846" type="line"/>
      <point x="614" y="875"/>
      <point x="532" y="895"/>
      <point x="456" y="895" type="curve" smooth="yes"/>
      <point x="344" y="895"/>
      <point x="245" y="852"/>
      <point x="245" y="730" type="curve" smooth="yes"/>
      <point x="245" y="637"/>
      <point x="298" y="618"/>
      <point x="394" y="587" type="curve" smooth="yes"/>
      <point x="541" y="540" type="line" smooth="yes"/>
      <point x="694" y="491"/>
      <point x="762" y="432"/>
      <point x="762" y="271" type="curve" smooth="yes"/>
      <point x="762" y="63"/>
      <point x="609" y="-10"/>
      <point x="438" y="-10" type="curve" smooth="yes"/>
      <point x="327" y="-10"/>
      <point x="206" y="22"/>
      <point x="109" y="69" type="curve"/>
    </contour>
  </outline>
</glyph>
<glyph name="t" format="1">
  <advance width="742"/>
  <unicode hex="0074"/>
  <outline>
    <contour>
      <point x="472" y="-10" type="curve"/>
      <point x="258" y="-4"/>
      <point x="209" y="119"/>
      <point x="209" y="388" type="curve" smooth="yes"/>
      <point x="209" y="895" type="line"/>
      <point x="56" y="895" type="line"/>
      <point x="56" y="985" type="line"/>
      <point x="213" y="985" type="line"/>
      <point x="238" y="1267" type="line"/>
      <point x="337" y="1267" type="line"/>
      <point x="337" y="985" type="line"/>
      <point x="645" y="985" type="line"/>
      <point x="645" y="895" type="line"/>
      <point x="337" y="895" type="line"/>
      <point x="337" y="386" type="line" smooth="yes"/>
      <point x="337" y="123"/>
      <point x="400" y="96"/>
      <point x="506" y="96" type="curve" smooth="yes"/>
      <point x="568" y="96"/>
      <point x="629" y="99"/>
      <point x="656" y="103" type="curve"/>
      <point x="661" y="0" type="line"/>
      <point x="597" y="-8"/>
      <point x="533" y="-10"/>
    </contour>
  </outline>
</glyph>
<glyph name="u" format="1">
  <advance width="986"/>
  <unicode hex="0075"/>
  <outline>
    <contour>
      <point x="717" y="163" type="curve"/>
      <point x="717" y="985" type="line"/>
      <point x="845" y="985" type="line"/>
      <point x="845" y="0" type="line"/>
      <point x="740" y="0" type="line"/>
      <point x="731" y="64" type="line"/>
      <point x="596" y="0"/>
      <point x="519" y="-10"/>
      <point x="422" y="-10" type="curve" smooth="yes"/>
      <point x="219" y="-10"/>
      <point x="128" y="93"/>
      <point x="128" y="321" type="curve" smooth="yes"/>
      <point x="128" y="985" type="line"/>
      <point x="256" y="985" type="line"/>
      <point x="256" y="316" type="line" smooth="yes"/>
      <point x="256" y="159"/>
      <point x="299" y="96"/>
      <point x="435" y="96" type="curve" smooth="yes"/>
      <point x="509" y="96"/>
      <point x="597" y="97"/>
    </contour>
  </outline>
</glyph>
<glyph name="v" format="1">
  <advance width="912"/>
  <unicode hex="0076"/>
  <outline>
    <contour>
      <point x="463" y="137" type="line"/>
      <point x="716" y="985" type="line"/>
      <point x="847" y="985" type="line"/>
      <point x="531" y="0" type="line"/>
      <point x="394" y="0" type="line"/>
      <point x="65" y="985" type="line"/>
      <point x="195" y="985" type="line"/>
    </contour>
  </outline>
</glyph>
<glyph name="w" format="1">
  <advance width="1298"/>
  <unicode hex="0077"/>
  <outline>
    <contour>
      <point x="716" y="763" type="line" smooth="no"/>
      <point x="930" y="113" type="line" smooth="no"/>
      <point x="1108" y="985" type="line" smooth="no"/>
      <point x="1233" y="985" type="line" smooth="no"/>
      <point x="1009" y="0" type="line" smooth="no"/>
      <point x="869" y="0" type="line" smooth="no"/>
      <point x="657" y="627" type="line" smooth="no"/>
      <point x="446" y="0" type="line" smooth="no"/>
      <point x="304" y="0" type="line" smooth="no"/>
      <point x="65" y="985" type="line" smooth="no"/>
      <point x="190" y="985" type="line" smooth="no"/>
      <point x="381" y="113" type="line" smooth="no"/>
      <point x="598" y="763" type="line" smooth="no"/>
    </contour>
  </outline>
</glyph>
<glyph name="x" format="1">
  <advance width="844"/>
  <unicode hex="0078"/>
  <outline>
    <contour>
      <point x="664" y="0" type="line"/>
      <point x="428" y="423" type="line"/>
      <point x="188" y="0" type="line"/>
      <point x="58" y="0" type="line"/>
      <point x="355" y="504" type="line"/>
      <point x="70" y="985" type="line"/>
      <point x="196" y="985" type="line"/>
      <point x="427" y="579" type="line"/>
      <point x="639" y="985" type="line"/>
      <point x="767" y="985" type="line"/>
      <point x="501" y="503" type="line"/>
      <point x="786" y="0" type="line"/>
    </contour>
  </outline>
</glyph>
<glyph name="y" format="1">
  <advance width="963"/>
  <unicode hex="0079"/>
  <outline>
    <contour>
      <point x="285" y="-390" type="curve" smooth="yes"/>
      <point x="234" y="-390"/>
      <point x="180" y="-378"/>
      <point x="120" y="-355" type="curve"/>
      <point x="140" y="-253" type="line"/>
      <point x="141" y="-252" type="line"/>
      <point x="201" y="-270"/>
      <point x="246" y="-279"/>
      <point x="276" y="-279" type="curve" smooth="yes"/>
      <point x="367" y="-279"/>
      <point x="392" y="-169"/>
      <point x="430" y="-55" type="curve" smooth="yes"/>
      <point x="457" y="26" type="line"/>
      <point x="52" y="985" type="line"/>
      <point x="189" y="985" type="line"/>
      <point x="203" y="948"/>
      <point x="513" y="166"/>
      <point x="513" y="166" type="curve"/>
      <point x="778" y="985" type="line"/>
      <point x="914" y="985" type="line"/>
      <point x="568" y="-16" type="line" smooth="yes"/>
      <point x="486" y="-254"/>
      <point x="432" y="-390"/>
    </contour>
  </outline>
</glyph>
<glyph name="z" format="1">
  <advance width="799"/>
  <unicode hex="007a"/>
  <outline>
    <contour>
      <point x="571" y="895" type="line" smooth="no"/>
      <point x="130" y="895" type="line" smooth="no"/>
      <point x="130" y="985" type="line" smooth="no"/>
      <point x="700" y="985" type="line" smooth="no"/>
      <point x="710" y="900" type="line" smooth="no"/>
      <point x="260" y="90" type="line" smooth="no"/>
      <point x="725" y="90" type="line" smooth="no"/>
      <point x="725" y="0" type="line" smooth="no"/>
      <point x="133" y="0" type="line" smooth="no"/>
      <point x="119" y="96" type="line" smooth="no"/>
    </contour>
  </outline>
</glyph>
<glyph name="braceleft" format="1">
  <advance width="620"/>
  <unicode hex="007B"/>
  <outline>
    <contour>
      <point x="64" y="712" type="line"/>
      <point x="210" y="801" type="line"/>
      <point x="214" y="853"/>
      <point x="216" y="905"/>
      <point x="216" y="985" type="curve" smooth="yes"/>
      <point x="216" y="1017" type="line" smooth="yes"/>
      <point x="215" y="1146" type="line"/>
      <point x="215" y="1452"/>
      <point x="262" y="1484"/>
      <point x="544" y="1484" type="curve"/>
      <point x="552" y="1392" type="line"/>
      <point x="527" y="1392" type="line" smooth="yes"/>
      <point x="348" y="1392"/>
      <point x="320" y="1387"/>
      <point x="320" y="1135" type="curve" smooth="yes"/>
      <point x="320" y="749" type="line"/>
      <point x="175" y="664" type="line"/>
      <point x="320" y="579" type="line"/>
      <point x="320" y="193" type="line" smooth="yes"/>
      <point x="320" y="-59"/>
      <point x="348" y="-64"/>
      <point x="527" y="-64" type="curve" smooth="yes"/>
      <point x="552" y="-64" type="line"/>
      <point x="544" y="-156" type="line"/>
      <point x="262" y="-156"/>
      <point x="215" y="-124"/>
      <point x="215" y="182" type="curve"/>
      <point x="216" y="311" type="line" smooth="yes"/>
      <point x="216" y="343" type="line" smooth="yes"/>
      <point x="216" y="423"/>
      <point x="214" y="475"/>
      <point x="210" y="527" type="curve"/>
      <point x="64" y="616" type="line"/>
    </contour>
  </outline>
</glyph>
<glyph name="bar" format="1">
  <advance width="423"/>
  <unicode hex="007c"/>
  <outline>
    <contour>
      <point x="162" y="-65" type="line" smooth="no"/>
      <point x="162" y="1331" type="line" smooth="no"/>
      <point x="269" y="1331" type="line" smooth="no"/>
      <point x="269" y="-65" type="line" smooth="no"/>
    </contour>
  </outline>
</glyph>
<glyph name="braceright" format="1">
  <advance width="620"/>
  <unicode hex="007D"/>
  <outline>
    <contour>
      <point x="558" y="616" type="line"/>
      <point x="412" y="527" type="line"/>
      <point x="408" y="475"/>
      <point x="406" y="423"/>
      <point x="406" y="343" type="curve" smooth="yes"/>
      <point x="406" y="311" type="line" smooth="yes"/>
      <point x="407" y="182" type="line"/>
      <point x="407" y="-124"/>
      <point x="360" y="-156"/>
      <point x="78" y="-156" type="curve"/>
      <point x="70" y="-64" type="line"/>
      <point x="95" y="-64" type="line" smooth="yes"/>
      <point x="274" y="-64"/>
      <point x="302" y="-59"/>
      <point x="302" y="193" type="curve" smooth="yes"/>
      <point x="302" y="579" type="line"/>
      <point x="447" y="664" type="line"/>
      <point x="302" y="749" type="line"/>
      <point x="302" y="1135" type="line" smooth="yes"/>
      <point x="302" y="1387"/>
      <point x="274" y="1392"/>
      <point x="95" y="1392" type="curve" smooth="yes"/>
      <point x="70" y="1392" type="line"/>
      <point x="78" y="1484" type="line"/>
      <point x="360" y="1484"/>
      <point x="407" y="1452"/>
      <point x="407" y="1146" type="curve"/>
      <point x="406" y="1017" type="line" smooth="yes"/>
      <point x="406" y="985" type="line" smooth="yes"/>
      <point x="406" y="905"/>
      <point x="408" y="853"/>
      <point x="412" y="801" type="curve"/>
      <point x="558" y="712" type="line"/>
    </contour>
  </outline>
</glyph>
<glyph name="asciitilde" format="1">
  <advance width="1038"/>
  <unicode hex="007E"/>
  <outline>
    <contour>
      <point x="108" y="530" type="line"/>
      <point x="177" y="637"/>
      <point x="245" y="717"/>
      <point x="334" y="717" type="curve" smooth="yes"/>
      <point x="386" y="717"/>
      <point x="423" y="698"/>
      <point x="555" y="622" type="curve" smooth="yes"/>
      <point x="636" y="575"/>
      <point x="678" y="553"/>
      <point x="707" y="553" type="curve" smooth="yes"/>
      <point x="756" y="553"/>
      <point x="799" y="602"/>
      <point x="854" y="679" type="curve"/>
      <point x="930" y="620" type="line"/>
      <point x="880" y="538"/>
      <point x="817" y="437"/>
      <point x="703" y="437" type="curve" smooth="yes"/>
      <point x="646" y="437"/>
      <point x="605" y="457"/>
      <point x="483" y="531" type="curve"/>
      <point x="409" y="578"/>
      <point x="367" y="599"/>
      <point x="338" y="599" type="curve" smooth="yes"/>
      <point x="286" y="599"/>
      <point x="244" y="558"/>
      <point x="183" y="469" type="curve"/>
      <point x="105" y="530" type="line"/>
    </contour>
  </outline>
</glyph>
<glyph name="cent" format="1">
  <advance width="878"/>
  <unicode hex="00A2"/>
  <outline>
    <contour>
      <point x="445" y="-15" type="line"/>
      <point x="226" y="11"/>
      <point x="124" y="198"/>
      <point x="124" y="486" type="curve" smooth="yes"/>
      <point x="124" y="792"/>
      <point x="230" y="957"/>
      <point x="441" y="982" type="curve"/>
      <point x="441" y="1125" type="line"/>
      <point x="539" y="1125" type="line"/>
      <point x="539" y="984" type="line"/>
      <point x="608" y="977"/>
      <point x="668" y="964"/>
      <point x="719" y="946" type="curve"/>
      <point x="696" y="844" type="line"/>
      <point x="627" y="869"/>
      <point x="559" y="881"/>
      <point x="492" y="881" type="curve" smooth="yes"/>
      <point x="295" y="881"/>
      <point x="229" y="705"/>
      <point x="229" y="487" type="curve" smooth="yes"/>
      <point x="229" y="237"/>
      <point x="316" y="86"/>
      <point x="492" y="86" type="curve" smooth="yes"/>
      <point x="550" y="86"/>
      <point x="627" y="105"/>
      <point x="723" y="143" type="curve"/>
      <point x="751" y="41" type="line"/>
      <point x="680" y="11"/>
      <point x="611" y="-8"/>
      <point x="543" y="-16" type="curve"/>
      <point x="543" y="-147" type="line"/>
      <point x="445" y="-147" type="line"/>
    </contour>
  </outline>
</glyph>
<glyph name="sterling" format="1">
  <advance width="913"/>
  <unicode hex="00A3"/>
  <outline>
    <contour>
      <point x="156" y="-1" type="line"/>
      <point x="117" y="117" type="line"/>
      <point x="200" y="204"/>
      <point x="261" y="307"/>
      <point x="261" y="455" type="curve" smooth="yes"/>
      <point x="261" y="504"/>
      <point x="255" y="557"/>
      <point x="240" y="616" type="curve"/>
      <point x="85" y="616" type="line"/>
      <point x="85" y="712" type="line"/>
      <point x="218" y="712" type="line"/>
      <point x="191" y="803"/>
      <point x="178" y="884"/>
      <point x="178" y="954" type="curve" smooth="yes"/>
      <point x="178" y="1183"/>
      <point x="315" y="1303"/>
      <point x="549" y="1303" type="curve" smooth="yes"/>
      <point x="634" y="1303"/>
      <point x="721" y="1276"/>
      <point x="797" y="1221" type="curve"/>
      <point x="755" y="1128" type="line"/>
      <point x="694" y="1171"/>
      <point x="621" y="1195"/>
      <point x="551" y="1195" type="curve" smooth="yes"/>
      <point x="374" y="1195"/>
      <point x="291" y="1104"/>
      <point x="291" y="938" type="curve" smooth="yes"/>
      <point x="291" y="874"/>
      <point x="304" y="798"/>
      <point x="328" y="712" type="curve"/>
      <point x="665" y="712" type="line"/>
      <point x="665" y="616" type="line"/>
      <point x="350" y="616" type="line"/>
      <point x="362" y="552"/>
      <point x="374" y="483"/>
      <point x="374" y="413" type="curve" smooth="yes"/>
      <point x="374" y="305"/>
      <point x="346" y="195"/>
      <point x="250" y="96" type="curve"/>
      <point x="822" y="96" type="line"/>
      <point x="823" y="0" type="line"/>
    </contour>
  </outline>
</glyph>
<glyph name="currency" format="1">
  <advance width="1048"/>
  <unicode hex="00A4"/>
  <outline>
    <contour>
      <point x="767" y="720" type="curve" smooth="yes"/>
      <point x="767" y="884"/>
      <point x="646" y="966"/>
      <point x="524" y="966" type="curve" smooth="yes"/>
      <point x="402" y="966"/>
      <point x="280" y="883"/>
      <point x="280" y="719" type="curve" smooth="yes"/>
      <point x="280" y="556"/>
      <point x="402" y="473"/>
      <point x="524" y="473" type="curve" smooth="yes"/>
      <point x="646" y="473"/>
      <point x="767" y="554"/>
    </contour>
    <contour>
      <point x="209" y="333" type="line"/>
      <point x="132" y="412" type="line"/>
      <point x="245" y="526" type="line"/>
      <point x="204" y="578"/>
      <point x="183" y="649"/>
      <point x="183" y="720" type="curve" smooth="yes"/>
      <point x="183" y="791"/>
      <point x="204" y="862"/>
      <point x="245" y="914" type="curve"/>
      <point x="132" y="1030" type="line"/>
      <point x="209" y="1109" type="line"/>
      <point x="329" y="986" type="line"/>
      <point x="384" y="1029"/>
      <point x="455" y="1051"/>
      <point x="524" y="1051" type="curve" smooth="yes"/>
      <point x="593" y="1051"/>
      <point x="663" y="1029"/>
      <point x="719" y="986" type="curve"/>
      <point x="838" y="1109" type="line"/>
      <point x="916" y="1030" type="line"/>
      <point x="801" y="914" type="line"/>
      <point x="843" y="861"/>
      <point x="864" y="791"/>
      <point x="864" y="720" type="curve" smooth="yes"/>
      <point x="864" y="649"/>
      <point x="843" y="579"/>
      <point x="801" y="526" type="curve"/>
      <point x="916" y="412" type="line"/>
      <point x="838" y="333" type="line"/>
      <point x="719" y="454" type="line"/>
      <point x="664" y="410"/>
      <point x="593" y="388"/>
      <point x="524" y="388" type="curve" smooth="yes"/>
      <point x="454" y="388"/>
      <point x="384" y="410"/>
      <point x="329" y="454" type="curve"/>
    </contour>
  </outline>
</glyph>
<glyph name="yen" format="1">
  <advance width="1132"/>
  <unicode hex="00a5"/>
  <outline>
    <contour>
      <point x="239" y="559" type="line" smooth="no"/>
      <point x="239" y="655" type="line" smooth="no"/>
      <point x="473" y="655" type="line" smooth="no"/>
      <point x="117" y="1284" type="line" smooth="no"/>
      <point x="259" y="1284" type="line" smooth="no"/>
      <point x="565" y="704" type="line" smooth="no"/>
      <point x="867" y="1284" type="line" smooth="no"/>
      <point x="1013" y="1284" type="line" smooth="no"/>
      <point x="656" y="655" type="line" smooth="no"/>
      <point x="887" y="655" type="line" smooth="no"/>
      <point x="886" y="559" type="line" smooth="no"/>
      <point x="629" y="559" type="line" smooth="no"/>
      <point x="629" y="452" type="line" smooth="no"/>
      <point x="886" y="452" type="line" smooth="no"/>
      <point x="886" y="355" type="line" smooth="no"/>
      <point x="629" y="355" type="line" smooth="no"/>
      <point x="629" y="0" type="line" smooth="no"/>
      <point x="501" y="0" type="line" smooth="no"/>
      <point x="501" y="355" type="line" smooth="no"/>
      <point x="239" y="355" type="line" smooth="no"/>
      <point x="239" y="452" type="line" smooth="no"/>
      <point x="501" y="452" type="line" smooth="no"/>
      <point x="501" y="559" type="line" smooth="no"/>
    </contour>
  </outline>
</glyph>
<glyph name="brokenbar" format="1">
  <advance width="423"/>
  <unicode hex="00a6"/>
  <outline>
    <contour>
      <point x="162" y="776" type="line" smooth="no"/>
      <point x="162" y="1331" type="line" smooth="no"/>
      <point x="269" y="1331" type="line" smooth="no"/>
      <point x="269" y="776" type="line" smooth="no"/>
    </contour>
    <contour>
      <point x="162" y="-65" type="line" smooth="no"/>
      <point x="162" y="527" type="line" smooth="no"/>
      <point x="269" y="527" type="line" smooth="no"/>
      <point x="269" y="-65" type="line" smooth="no"/>
    </contour>
  </outline>
</glyph>
<glyph name="section" format="1">
  <advance width="935"/>
  <unicode hex="00A7"/>
  <outline>
    <contour>
      <point x="633" y="476" type="line" smooth="yes"/>
      <point x="667" y="516"/>
      <point x="694" y="546"/>
      <point x="695" y="617" type="curve"/>
      <point x="695" y="699"/>
      <point x="627" y="742"/>
      <point x="563" y="771" type="curve" smooth="yes"/>
      <point x="532" y="785"/>
      <point x="389" y="842"/>
      <point x="353" y="859" type="curve"/>
      <point x="286" y="818"/>
      <point x="252" y="765"/>
      <point x="252" y="698" type="curve" smooth="yes"/>
      <point x="252" y="609"/>
      <point x="291" y="574"/>
      <point x="370" y="545" type="curve"/>
      <point x="479" y="500" type="line" smooth="yes"/>
      <point x="530" y="479"/>
      <point x="573" y="463"/>
      <point x="606" y="446" type="curve"/>
      <point x="606" y="444" type="line"/>
    </contour>
    <contour>
      <point x="769" y="200" type="line"/>
      <point x="769" y="8"/>
      <point x="654" y="-79"/>
      <point x="458" y="-79" type="curve" smooth="yes"/>
      <point x="314" y="-79"/>
      <point x="222" y="-50"/>
      <point x="142" y="26" type="curve"/>
      <point x="185" y="116" type="line"/>
      <point x="270" y="56"/>
      <point x="361" y="26"/>
      <point x="460" y="26" type="curve" smooth="yes"/>
      <point x="591" y="26"/>
      <point x="657" y="80"/>
      <point x="657" y="187" type="curve" smooth="yes"/>
      <point x="657" y="275"/>
      <point x="626" y="305"/>
      <point x="550" y="339" type="curve" smooth="yes"/>
      <point x="410" y="400" type="line" smooth="yes"/>
      <point x="209" y="487"/>
      <point x="141" y="519"/>
      <point x="141" y="682" type="curve" smooth="yes"/>
      <point x="141" y="777"/>
      <point x="187" y="851"/>
      <point x="280" y="903" type="curve"/>
      <point x="203" y="952"/>
      <point x="165" y="1025"/>
      <point x="165" y="1124" type="curve" smooth="yes"/>
      <point x="165" y="1319"/>
      <point x="284" y="1407"/>
      <point x="477" y="1407" type="curve" smooth="yes"/>
      <point x="602" y="1407"/>
      <point x="699" y="1376"/>
      <point x="768" y="1313" type="curve"/>
      <point x="722" y="1225" type="line"/>
      <point x="645" y="1277"/>
      <point x="564" y="1303"/>
      <point x="479" y="1303" type="curve" smooth="yes"/>
      <point x="346" y="1303"/>
      <point x="276" y="1256"/>
      <point x="276" y="1133" type="curve" smooth="yes"/>
      <point x="276" y="1031"/>
      <point x="335" y="995"/>
      <point x="418" y="959" type="curve" smooth="yes"/>
      <point x="675" y="846"/>
      <point x="803" y="835"/>
      <point x="803" y="616" type="curve" smooth="yes"/>
      <point x="803" y="532"/>
      <point x="764" y="458"/>
      <point x="687" y="395" type="curve"/>
      <point x="741" y="353"/>
      <point x="768" y="288"/>
      <point x="768" y="199" type="curve"/>
    </contour>
  </outline>
</glyph>
<glyph name="dieresis" format="1">
  <advance width="450"/>
  <unicode hex="00a8"/>
  <outline>
    <contour>
      <point x="451" y="1126" type="line" smooth="no"/>
      <point x="451" y="1000" type="line" smooth="no"/>
      <point x="314" y="1000" type="line" smooth="no"/>
      <point x="314" y="1126" type="line" smooth="no"/>
    </contour>
    <contour>
      <point x="139" y="1126" type="line" smooth="no"/>
      <point x="139" y="1000" type="line" smooth="no"/>
      <point x="0" y="1000" type="line" smooth="no"/>
      <point x="0" y="1126" type="line" smooth="no"/>
    </contour>
  </outline>
</glyph>
<glyph name="copyright" format="1">
  <advance width="1583"/>
  <unicode hex="00A9"/>
  <outline>
    <contour>
      <point x="814" y="292" type="curve" smooth="yes"/>
      <point x="879" y="292"/>
      <point x="944" y="305"/>
      <point x="1021" y="346" type="curve"/>
      <point x="1054" y="273" type="line"/>
      <point x="965" y="226"/>
      <point x="886" y="211"/>
      <point x="807" y="211" type="curve" smooth="yes"/>
      <point x="544" y="211"/>
      <point x="399" y="400"/>
      <point x="399" y="640" type="curve" smooth="yes"/>
      <point x="399" y="866"/>
      <point x="524" y="1085"/>
      <point x="798" y="1085" type="curve" smooth="yes"/>
      <point x="873" y="1085"/>
      <point x="949" y="1067"/>
      <point x="1032" y="1023" type="curve"/>
      <point x="1032" y="825" type="line"/>
      <point x="943" y="825" type="line"/>
      <point x="943" y="978" type="line"/>
      <point x="902" y="994"/>
      <point x="850" y="1004"/>
      <point x="795" y="1004" type="curve" smooth="yes"/>
      <point x="598" y="1004"/>
      <point x="504" y="823"/>
      <point x="504" y="638" type="curve" smooth="yes"/>
      <point x="504" y="436"/>
      <point x="611" y="292"/>
    </contour>
    <contour>
      <point x="140" y="646" type="curve" smooth="yes"/>
      <point x="140" y="1005"/>
      <point x="431" y="1297"/>
      <point x="790" y="1297" type="curve" smooth="yes"/>
      <point x="1149" y="1297"/>
      <point x="1442" y="1005"/>
      <point x="1442" y="646" type="curve" smooth="yes"/>
      <point x="1442" y="287"/>
      <point x="1149" y="-5"/>
      <point x="790" y="-5" type="curve" smooth="yes"/>
      <point x="431" y="-5"/>
      <point x="140" y="287"/>
    </contour>
    <contour>
      <point x="237" y="646" type="curve" smooth="yes"/>
      <point x="237" y="336"/>
      <point x="484" y="84"/>
      <point x="790" y="84" type="curve" smooth="yes"/>
      <point x="1096" y="84"/>
      <point x="1345" y="336"/>
      <point x="1345" y="646" type="curve" smooth="yes"/>
      <point x="1345" y="956"/>
      <point x="1096" y="1208"/>
      <point x="790" y="1208" type="curve" smooth="yes"/>
      <point x="484" y="1208"/>
      <point x="237" y="956"/>
    </contour>
  </outline>
</glyph>
<glyph name="ordfeminine" format="1">
  <advance width="740"/>
  <unicode hex="00AA"/>
  <outline>
    <contour>
      <point x="359" y="1265" type="line"/>
      <point x="278" y="1258"/>
      <point x="224" y="1242"/>
      <point x="191" y="1197" type="curve"/>
      <point x="149" y="1265" type="line"/>
      <point x="205" y="1324"/>
      <point x="282" y="1353"/>
      <point x="379" y="1353" type="curve" smooth="yes"/>
      <point x="538" y="1353"/>
      <point x="586" y="1286"/>
      <point x="586" y="1074" type="curve" smooth="yes"/>
      <point x="586" y="845" type="line" smooth="yes"/>
      <point x="586" y="814"/>
      <point x="584" y="801"/>
      <point x="598" y="789" type="curve"/>
      <point x="605" y="693" type="line"/>
      <point x="569" y="686"/>
      <point x="546" y="683"/>
      <point x="536" y="683" type="curve"/>
      <point x="517" y="699"/>
      <point x="506" y="725"/>
      <point x="503" y="762" type="curve"/>
      <point x="444" y="707"/>
      <point x="382" y="680"/>
      <point x="316" y="680" type="curve" smooth="yes"/>
      <point x="196" y="680"/>
      <point x="128" y="753"/>
      <point x="128" y="881" type="curve" smooth="yes"/>
      <point x="128" y="1024"/>
      <point x="205" y="1078"/>
      <point x="349" y="1085" type="curve"/>
      <point x="382" y="1085"/>
      <point x="468" y="1083"/>
      <point x="496" y="1083" type="curve"/>
      <point x="494" y="1199"/>
      <point x="484" y="1264"/>
      <point x="381" y="1264" type="curve" smooth="yes"/>
      <point x="360" y="1264" type="line"/>
    </contour>
    <contour>
      <point x="496" y="863" type="curve"/>
      <point x="496" y="1007" type="line"/>
      <point x="424" y="1004" type="line" smooth="yes"/>
      <point x="409" y="1004" type="line" smooth="yes"/>
      <point x="307" y="1004"/>
      <point x="220" y="1001"/>
      <point x="220" y="886" type="curve" smooth="yes"/>
      <point x="220" y="798"/>
      <point x="254" y="769"/>
      <point x="338" y="769" type="curve" smooth="yes"/>
      <point x="408" y="769"/>
      <point x="460" y="800"/>
    </contour>
  </outline>
</glyph>
<glyph name="guillemotleft" format="1">
  <advance width="967"/>
  <unicode hex="00ab"/>
  <outline>
    <contour>
      <point x="493" y="817" type="line" smooth="no"/>
      <point x="219" y="545" type="line" smooth="no"/>
      <point x="493" y="279" type="line" smooth="no"/>
      <point x="463" y="160" type="line" smooth="no"/>
      <point x="106" y="520" type="line" smooth="no"/>
      <point x="128" y="600" type="line" smooth="no"/>
      <point x="463" y="936" type="line" smooth="no"/>
    </contour>
    <contour>
      <point x="834" y="817" type="line" smooth="no"/>
      <point x="561" y="545" type="line" smooth="no"/>
      <point x="834" y="279" type="line" smooth="no"/>
      <point x="806" y="160" type="line" smooth="no"/>
      <point x="447" y="520" type="line" smooth="no"/>
      <point x="469" y="600" type="line" smooth="no"/>
      <point x="806" y="936" type="line" smooth="no"/>
    </contour>
  </outline>
</glyph>
<glyph name="logicalnot" format="1">
  <advance width="1151"/>
  <unicode hex="00ac"/>
  <outline>
    <contour>
      <point x="148" y="725" type="line" smooth="no"/>
      <point x="148" y="831" type="line" smooth="no"/>
      <point x="999" y="831" type="line" smooth="no"/>
      <point x="999" y="322" type="line" smooth="no"/>
      <point x="881" y="322" type="line" smooth="no"/>
      <point x="881" y="725" type="line" smooth="no"/>
    </contour>
  </outline>
</glyph>
<glyph name="uni00AD" format="1">
  <advance width="1040"/>
  <unicode hex="00ad"/>
  <outline>
    <contour>
      <point x="153" y="725" type="line" smooth="no"/>
      <point x="153" y="831" type="line" smooth="no"/>
      <point x="886" y="831" type="line" smooth="no"/>
      <point x="886" y="725" type="line" smooth="no"/>
    </contour>
  </outline>
</glyph>
<glyph name="registered" format="1">
  <advance width="1583"/>
  <unicode hex="00AE"/>
  <outline>
    <contour>
      <point x="140" y="646" type="curve" smooth="yes"/>
      <point x="140" y="1005"/>
      <point x="431" y="1297"/>
      <point x="790" y="1297" type="curve" smooth="yes"/>
      <point x="1149" y="1297"/>
      <point x="1442" y="1005"/>
      <point x="1442" y="646" type="curve" smooth="yes"/>
      <point x="1442" y="287"/>
      <point x="1149" y="-5"/>
      <point x="790" y="-5" type="curve" smooth="yes"/>
      <point x="431" y="-5"/>
      <point x="140" y="287"/>
    </contour>
    <contour>
      <point x="237" y="646" type="curve" smooth="yes"/>
      <point x="237" y="336"/>
      <point x="484" y="84"/>
      <point x="790" y="84" type="curve" smooth="yes"/>
      <point x="1096" y="84"/>
      <point x="1345" y="336"/>
      <point x="1345" y="646" type="curve" smooth="yes"/>
      <point x="1345" y="956"/>
      <point x="1096" y="1208"/>
      <point x="790" y="1208" type="curve" smooth="yes"/>
      <point x="484" y="1208"/>
      <point x="237" y="956"/>
    </contour>
    <contour>
      <point x="1102" y="273" type="curve"/>
      <point x="1004" y="226" type="line"/>
      <point x="1004" y="226"/>
      <point x="889" y="455"/>
      <point x="826" y="628" type="curve"/>
      <point x="786" y="625"/>
      <point x="737" y="623"/>
      <point x="689" y="623" type="curve" smooth="yes"/>
      <point x="635" y="623" type="line"/>
      <point x="635" y="227" type="line"/>
      <point x="527" y="227" type="line"/>
      <point x="527" y="1079" type="line"/>
      <point x="722" y="1079" type="line" smooth="yes"/>
      <point x="981" y="1079"/>
      <point x="1134" y="1050"/>
      <point x="1134" y="850" type="curve" smooth="yes"/>
      <point x="1134" y="721"/>
      <point x="1057" y="661"/>
      <point x="926" y="637" type="curve"/>
      <point x="979" y="498"/>
      <point x="1102" y="273"/>
    </contour>
    <contour>
      <point x="1027" y="853" type="curve" smooth="yes"/>
      <point x="1027" y="986"/>
      <point x="915" y="995"/>
      <point x="697" y="995" type="curve" smooth="yes"/>
      <point x="635" y="995" type="line"/>
      <point x="635" y="703" type="line"/>
      <point x="670" y="703" type="line" smooth="yes"/>
      <point x="943" y="703"/>
      <point x="1027" y="724"/>
    </contour>
  </outline>
</glyph>
<glyph name="macron" format="1">
  <advance width="608"/>
  <unicode hex="00af"/>
  <outline>
    <contour>
      <point x="64" y="1078" type="line" smooth="no"/>
      <point x="64" y="1184" type="line" smooth="no"/>
      <point x="544" y="1184" type="line" smooth="no"/>
      <point x="544" y="1078" type="line" smooth="no"/>
    </contour>
  </outline>
</glyph>
<glyph name="degree" format="1">
  <advance width="699"/>
  <unicode hex="00B0"/>
  <outline>
    <contour>
      <point x="350" y="917" type="line"/>
      <point x="208" y="917"/>
      <point x="112" y="1019"/>
      <point x="112" y="1169" type="curve" smooth="yes"/>
      <point x="112" y="1325"/>
      <point x="214" y="1421"/>
      <point x="352" y="1421" type="curve" smooth="yes"/>
      <point x="490" y="1421"/>
      <point x="586" y="1319"/>
      <point x="586" y="1169" type="curve" smooth="yes"/>
      <point x="586" y="1016"/>
      <point x="487" y="918"/>
      <point x="351" y="918" type="curve"/>
    </contour>
    <contour>
      <point x="486" y="1168" type="curve" smooth="yes"/>
      <point x="486" y="1265"/>
      <point x="434" y="1328"/>
      <point x="347" y="1328" type="curve" smooth="yes"/>
      <point x="263" y="1328"/>
      <point x="213" y="1266"/>
      <point x="213" y="1170" type="curve" smooth="yes"/>
      <point x="213" y="1073"/>
      <point x="262" y="1011"/>
      <point x="347" y="1011" type="curve" smooth="yes"/>
      <point x="432" y="1011"/>
      <point x="486" y="1075"/>
    </contour>
  </outline>
</glyph>
<glyph name="plusminus" format="1">
  <advance width="1176"/>
  <unicode hex="00b1"/>
  <outline>
    <contour>
      <point x="151" y="82" type="line" smooth="no"/>
      <point x="151" y="188" type="line" smooth="no"/>
      <point x="1024" y="188" type="line" smooth="no"/>
      <point x="1024" y="82" type="line" smooth="no"/>
    </contour>
    <contour>
      <point x="641" y="1042" type="line" smooth="no"/>
      <point x="641" y="719" type="line" smooth="no"/>
      <point x="1024" y="719" type="line" smooth="no"/>
      <point x="1024" y="610" type="line" smooth="no"/>
      <point x="641" y="610" type="line" smooth="no"/>
      <point x="641" y="299" type="line" smooth="no"/>
      <point x="534" y="299" type="line" smooth="no"/>
      <point x="534" y="610" type="line" smooth="no"/>
      <point x="151" y="610" type="line" smooth="no"/>
      <point x="151" y="719" type="line" smooth="no"/>
      <point x="534" y="719" type="line" smooth="no"/>
      <point x="534" y="1042" type="line" smooth="no"/>
    </contour>
  </outline>
</glyph>
<glyph name="uni00B2" format="1">
  <advance width="775"/>
  <unicode hex="00B2"/>
  <outline>
    <contour>
      <point x="658" y="946" type="curve" smooth="yes"/>
      <point x="658" y="698"/>
      <point x="308" y="583"/>
      <point x="253" y="369" type="curve"/>
      <point x="637" y="369" type="line"/>
      <point x="637" y="264" type="line"/>
      <point x="122" y="264" type="line"/>
      <point x="124" y="468"/>
      <point x="252" y="580"/>
      <point x="373" y="691" type="curve" smooth="yes"/>
      <point x="461" y="772"/>
      <point x="535" y="844"/>
      <point x="535" y="939" type="curve" smooth="yes"/>
      <point x="535" y="1040"/>
      <point x="492" y="1100"/>
      <point x="366" y="1100" type="curve" smooth="yes"/>
      <point x="254" y="1100"/>
      <point x="169" y="1041"/>
      <point x="143" y="1022" type="curve"/>
      <point x="102" y="1122" type="line"/>
      <point x="182" y="1165"/>
      <point x="250" y="1197"/>
      <point x="372" y="1197" type="curve" smooth="yes"/>
      <point x="567" y="1197"/>
      <point x="658" y="1082"/>
    </contour>
  </outline>
</glyph>
<glyph name="uni00B3" format="1">
  <advance width="736"/>
  <unicode hex="00B3"/>
  <outline>
    <contour>
      <point x="82" y="1158" type="line"/>
      <point x="167" y="1184"/>
      <point x="254" y="1201"/>
      <point x="330" y="1201" type="curve" smooth="yes"/>
      <point x="500" y="1201"/>
      <point x="616" y="1124"/>
      <point x="616" y="975" type="curve" smooth="yes"/>
      <point x="616" y="863"/>
      <point x="558" y="804"/>
      <point x="466" y="768" type="curve"/>
      <point x="573" y="738"/>
      <point x="655" y="642"/>
      <point x="655" y="527" type="curve" smooth="yes"/>
      <point x="655" y="330"/>
      <point x="492" y="266"/>
      <point x="325" y="266" type="curve" smooth="yes"/>
      <point x="240" y="266"/>
      <point x="159" y="278"/>
      <point x="82" y="305" type="curve"/>
      <point x="108" y="401" type="line"/>
      <point x="174" y="377"/>
      <point x="262" y="363"/>
      <point x="328" y="363" type="curve" smooth="yes"/>
      <point x="449" y="363"/>
      <point x="545" y="398"/>
      <point x="545" y="535" type="curve" smooth="yes"/>
      <point x="545" y="654"/>
      <point x="444" y="709"/>
      <point x="339" y="709" type="curve" smooth="yes"/>
      <point x="295" y="709"/>
      <point x="237" y="701"/>
      <point x="199" y="693" type="curve"/>
      <point x="189" y="789" type="line"/>
      <point x="382" y="812"/>
      <point x="507" y="845"/>
      <point x="507" y="966" type="curve" smooth="yes"/>
      <point x="507" y="1056"/>
      <point x="446" y="1104"/>
      <point x="334" y="1104" type="curve" smooth="yes"/>
      <point x="260" y="1104"/>
      <point x="181" y="1088"/>
      <point x="108" y="1064" type="curve"/>
    </contour>
  </outline>
</glyph>
<glyph name="acute" format="1">
  <advance width="410"/>
  <unicode hex="00B4"/>
  <outline>
    <contour>
      <point x="113" y="1022" type="line"/>
      <point x="358" y="1363" type="line"/>
      <point x="464" y="1283" type="line"/>
      <point x="367" y="1174" type="line"/>
      <point x="320" y="1116"/>
      <point x="166" y="973"/>
      <point x="166" y="973" type="curve"/>
    </contour>
  </outline>
</glyph>
<glyph name="paragraph" format="1">
  <advance width="1039"/>
  <unicode hex="00B6"/>
  <outline>
    <contour>
      <point x="889" y="0" type="line"/>
      <point x="824" y="0" type="line"/>
      <point x="824" y="1241" type="line"/>
      <point x="629" y="1241" type="line"/>
      <point x="629" y="0" type="line"/>
      <point x="564" y="0" type="line"/>
      <point x="564" y="482" type="line"/>
      <point x="293" y="505"/>
      <point x="121" y="584"/>
      <point x="121" y="906" type="curve" smooth="yes"/>
      <point x="121" y="1218"/>
      <point x="284" y="1301"/>
      <point x="564" y="1301" type="curve" smooth="yes"/>
      <point x="889" y="1301" type="line"/>
    </contour>
    <contour>
      <point x="564" y="547" type="curve"/>
      <point x="564" y="1242" type="line"/>
      <point x="360" y="1242"/>
      <point x="186" y="1211"/>
      <point x="186" y="904" type="curve" smooth="yes"/>
      <point x="186" y="638"/>
      <point x="319" y="567"/>
    </contour>
  </outline>
</glyph>
<glyph name="periodcentered" format="1">
  <advance width="452"/>
  <unicode hex="00b7"/>
  <outline>
    <contour>
      <point x="375" y="746" type="line" smooth="no"/>
      <point x="375" y="554" type="line" smooth="no"/>
      <point x="215" y="554" type="line" smooth="no"/>
      <point x="215" y="746" type="line" smooth="no"/>
    </contour>
  </outline>
</glyph>
<glyph name="cedilla" format="1">
  <advance width="936"/>
  <unicode hex="00B8"/>
  <outline>
    <contour>
      <point x="481" y="-137" type="line"/>
      <point x="595" y="-138"/>
      <point x="667" y="-186"/>
      <point x="667" y="-279" type="curve" smooth="yes"/>
      <point x="667" y="-404"/>
      <point x="584" y="-461"/>
      <point x="483" y="-461" type="curve" smooth="yes"/>
      <point x="440" y="-461"/>
      <point x="395" y="-451"/>
      <point x="351" y="-431" type="curve"/>
      <point x="366" y="-351" type="line"/>
      <point x="399" y="-366"/>
      <point x="433" y="-375"/>
      <point x="463" y="-375" type="curve" smooth="yes"/>
      <point x="516" y="-375"/>
      <point x="555" y="-348"/>
      <point x="555" y="-284" type="curve" smooth="yes"/>
      <point x="555" y="-194"/>
      <point x="469" y="-195"/>
      <point x="386" y="-186" type="curve"/>
      <point x="387" y="-70" type="line"/>
      <point x="491" y="-70" type="line"/>
    </contour>
  </outline>
</glyph>
<glyph name="uni00B9" format="1">
  <advance width="653"/>
  <unicode hex="00b9"/>
  <outline>
    <contour>
      <point x="410" y="373" type="line" smooth="no"/>
      <point x="556" y="373" type="line" smooth="no"/>
      <point x="556" y="280" type="line" smooth="no"/>
      <point x="129" y="280" type="line" smooth="no"/>
      <point x="129" y="373" type="line" smooth="no"/>
      <point x="298" y="373" type="line" smooth="no"/>
      <point x="298" y="1085" type="line" smooth="no"/>
      <point x="133" y="1014" type="line" smooth="no"/>
      <point x="89" y="1099" type="line" smooth="no"/>
      <point x="316" y="1196" type="line" smooth="no"/>
      <point x="410" y="1196" type="line" smooth="no"/>
    </contour>
  </outline>
</glyph>
<glyph name="ordmasculine" format="1">
  <advance width="754"/>
  <unicode hex="00BA"/>
  <outline>
    <contour>
      <point x="534" y="1016" type="curve" smooth="yes"/>
      <point x="534" y="1185"/>
      <point x="501" y="1264"/>
      <point x="373" y="1264" type="curve" smooth="yes"/>
      <point x="246" y="1264"/>
      <point x="215" y="1190"/>
      <point x="215" y="1016" type="curve" smooth="yes"/>
      <point x="215" y="857"/>
      <point x="244" y="768"/>
      <point x="373" y="768" type="curve" smooth="yes"/>
      <point x="504" y="768"/>
      <point x="534" y="843"/>
    </contour>
    <contour>
      <point x="373" y="1349" type="line"/>
      <point x="553" y="1349"/>
      <point x="626" y="1237"/>
      <point x="626" y="1017" type="curve" smooth="yes"/>
      <point x="626" y="806"/>
      <point x="556" y="679"/>
      <point x="373" y="679" type="curve" smooth="yes"/>
      <point x="216" y="679"/>
      <point x="123" y="778"/>
      <point x="123" y="1015" type="curve" smooth="yes"/>
      <point x="123" y="1224"/>
      <point x="193" y="1350"/>
      <point x="373" y="1350" type="curve"/>
    </contour>
  </outline>
</glyph>
<glyph name="guillemotright" format="1">
  <advance width="968"/>
  <unicode hex="00bb"/>
  <outline>
    <contour>
      <point x="831" y="608" type="line" smooth="no"/>
      <point x="859" y="520" type="line" smooth="no"/>
      <point x="502" y="160" type="line" smooth="no"/>
      <point x="472" y="279" type="line" smooth="no"/>
      <point x="747" y="545" type="line" smooth="no"/>
      <point x="472" y="817" type="line" smooth="no"/>
      <point x="502" y="936" type="line" smooth="no"/>
    </contour>
    <contour>
      <point x="497" y="600" type="line" smooth="no"/>
      <point x="518" y="520" type="line" smooth="no"/>
      <point x="159" y="160" type="line" smooth="no"/>
      <point x="131" y="279" type="line" smooth="no"/>
      <point x="404" y="545" type="line" smooth="no"/>
      <point x="131" y="817" type="line" smooth="no"/>
      <point x="159" y="936" type="line" smooth="no"/>
    </contour>
  </outline>
</glyph>
<glyph name="onequarter" format="1">
  <advance width="1863"/>
  <unicode hex="00BC"/>
  <outline>
    <component base="fraction" xOffset="404" yOffset="-114"/>
    <component base="uni00B9" xOffset="-2"/>
    <contour>
      <point x="1498" y="0" type="line"/>
      <point x="1498" y="260" type="line"/>
      <point x="1005" y="260" type="line"/>
      <point x="1005" y="343" type="line"/>
      <point x="1363" y="1130" type="line"/>
      <point x="1477" y="1130" type="line"/>
      <point x="1128" y="347" type="line"/>
      <point x="1498" y="347" type="line"/>
      <point x="1498" y="662" type="line"/>
      <point x="1609" y="662" type="line"/>
      <point x="1609" y="347" type="line"/>
      <point x="1769" y="347" type="line"/>
      <point x="1769" y="260" type="line"/>
      <point x="1609" y="260" type="line"/>
      <point x="1609" y="0" type="line"/>
    </contour>
  </outline>
</glyph>
<glyph name="threequarters" format="1">
  <advance width="2036"/>
  <unicode hex="00BE"/>
  <outline>
    <component base="fraction" xOffset="545" yOffset="-114"/>
    <component base="uni00B3" xOffset="50"/>
    <contour>
      <point x="1639" y="0" type="line"/>
      <point x="1639" y="260" type="line"/>
      <point x="1146" y="260" type="line"/>
      <point x="1146" y="343" type="line"/>
      <point x="1504" y="1130" type="line"/>
      <point x="1618" y="1130" type="line"/>
      <point x="1269" y="347" type="line"/>
      <point x="1639" y="347" type="line"/>
      <point x="1639" y="662" type="line"/>
      <point x="1750" y="662" type="line"/>
      <point x="1750" y="347" type="line"/>
      <point x="1910" y="347" type="line"/>
      <point x="1910" y="260" type="line"/>
      <point x="1750" y="260" type="line"/>
      <point x="1750" y="0" type="line"/>
    </contour>
  </outline>
</glyph>
<glyph name="AE" format="1">
  <advance width="1381"/>
  <unicode hex="00C6"/>
  <outline>
    <contour>
      <point x="689" y="1194" type="line"/>
      <point x="316" y="420" type="line"/>
      <point x="689" y="420" type="line"/>
    </contour>
    <contour>
      <point x="817" y="626" type="line"/>
      <point x="817" y="100" type="line"/>
      <point x="1282" y="100" type="line"/>
      <point x="1298" y="0" type="line"/>
      <point x="689" y="0" type="line"/>
      <point x="689" y="328" type="line"/>
      <point x="278" y="328" type="line"/>
      <point x="114" y="0" type="line"/>
      <point x="-26" y="0" type="line"/>
      <point x="616" y="1284" type="line"/>
      <point x="1294" y="1284" type="line"/>
      <point x="1272" y="1184" type="line"/>
      <point x="817" y="1184" type="line"/>
      <point x="817" y="722" type="line"/>
      <point x="1238" y="722" type="line"/>
      <point x="1238" y="626" type="line"/>
    </contour>
  </outline>
</glyph>
<glyph name="multiply" format="1">
  <advance width="996"/>
  <unicode hex="00d7"/>
  <outline>
    <contour>
      <point x="755" y="925" type="line" smooth="no"/>
      <point x="829" y="851" type="line" smooth="no"/>
      <point x="572" y="593" type="line" smooth="no"/>
      <point x="829" y="335" type="line" smooth="no"/>
      <point x="755" y="261" type="line" smooth="no"/>
      <point x="497" y="519" type="line" smooth="no"/>
      <point x="240" y="261" type="line" smooth="no"/>
      <point x="166" y="335" type="line" smooth="no"/>
      <point x="423" y="593" type="line" smooth="no"/>
      <point x="166" y="851" type="line" smooth="no"/>
      <point x="240" y="925" type="line" smooth="no"/>
      <point x="498" y="667" type="line" smooth="no"/>
    </contour>
  </outline>
</glyph>
<glyph name="Thorn" format="1">
  <advance width="981"/>
  <unicode hex="00DE"/>
  <outline>
    <contour>
      <point x="277" y="431" type="line"/>
      <point x="366" y="431" type="line" smooth="yes"/>
      <point x="656" y="431"/>
      <point x="789" y="447"/>
      <point x="789" y="695" type="curve" smooth="yes"/>
      <point x="789" y="919"/>
      <point x="663" y="952"/>
      <point x="475" y="952" type="curve" smooth="yes"/>
      <point x="277" y="952" type="line"/>
    </contour>
    <contour>
      <point x="278" y="1284" type="line"/>
      <point x="278" y="1052" type="line"/>
      <point x="467" y="1052" type="line" smooth="yes"/>
      <point x="726" y="1052"/>
      <point x="917" y="992"/>
      <point x="917" y="697" type="curve" smooth="yes"/>
      <point x="917" y="389"/>
      <point x="714" y="327"/>
      <point x="369" y="327" type="curve" smooth="yes"/>
      <point x="277" y="327" type="line"/>
      <point x="277" y="0" type="line"/>
      <point x="149" y="0" type="line"/>
      <point x="149" y="1284" type="line"/>
    </contour>
  </outline>
</glyph>
<glyph name="germandbls" format="1">
  <advance width="997"/>
  <unicode hex="00DF"/>
  <outline>
    <contour>
      <point x="802" y="279" type="curve" smooth="yes"/>
      <point x="802" y="514.077"/>
      <point x="411.312" y="464.266"/>
      <point x="411.312" y="664.084" type="curve" smooth="yes"/>
      <point x="411.312" y="784.071"/>
      <point x="544.097" y="849.82"/>
      <point x="693" y="922" type="curve"/>
      <point x="693" y="1121.66"/>
      <point x="648.668" y="1195"/>
      <point x="477" y="1195" type="curve" smooth="yes"/>
      <point x="321.632" y="1195"/>
      <point x="261" y="1100.39"/>
      <point x="261" y="901" type="curve" smooth="yes"/>
      <point x="261" y="0" type="line"/>
      <point x="133" y="0" type="line"/>
      <point x="133" y="912" type="line" smooth="yes"/>
      <point x="133" y="1172"/>
      <point x="245.258" y="1301"/>
      <point x="481" y="1301" type="curve" smooth="yes"/>
      <point x="762.24" y="1301"/>
      <point x="830" y="1150.73"/>
      <point x="830" y="855" type="curve"/>
      <point x="643.727" y="795.306"/>
      <point x="536.873" y="732.555"/>
      <point x="536.873" y="673.646" type="curve" smooth="yes"/>
      <point x="536.873" y="556.983"/>
      <point x="933" y="558.152"/>
      <point x="933" y="270" type="curve" smooth="yes"/>
      <point x="933" y="77.0303"/>
      <point x="787.629" y="-10.4551"/>
      <point x="621.639" y="-10.4551" type="curve" smooth="yes"/>
      <point x="540.995" y="-10.4551"/>
      <point x="455.291" y="15.9453"/>
      <point x="380" y="66" type="curve"/>
      <point x="418" y="156" type="line"/>
      <point x="480.199" y="117.13"/>
      <point x="548.595" y="95.3701"/>
      <point x="610.506" y="95.3701" type="curve" smooth="yes"/>
      <point x="715.954" y="95.3701"/>
      <point x="802" y="149.772"/>
    </contour>
  </outline>
</glyph>
<glyph name="ae" format="1">
  <advance width="1541"/>
  <unicode hex="00E6"/>
  <outline>
    <contour>
      <point x="166" y="942" type="line"/>
      <point x="270" y="976"/>
      <point x="377" y="1000"/>
      <point x="474" y="1000" type="curve" smooth="yes"/>
      <point x="599" y="1000"/>
      <point x="726" y="944"/>
      <point x="762" y="789" type="curve"/>
      <point x="829" y="941"/>
      <point x="950" y="1000"/>
      <point x="1087" y="1000" type="curve" smooth="yes"/>
      <point x="1290" y="1000"/>
      <point x="1429" y="844"/>
      <point x="1429" y="707" type="curve" smooth="yes"/>
      <point x="1429" y="581"/>
      <point x="1341" y="469"/>
      <point x="1128" y="469" type="curve" smooth="yes"/>
      <point x="813" y="469" type="line"/>
      <point x="817" y="162"/>
      <point x="956" y="96"/>
      <point x="1102" y="96" type="curve" smooth="yes"/>
      <point x="1202" y="96"/>
      <point x="1289" y="117"/>
      <point x="1382" y="176" type="curve"/>
      <point x="1421" y="75" type="line"/>
      <point x="1325" y="16"/>
      <point x="1204" y="-10"/>
      <point x="1109" y="-10" type="curve" smooth="yes"/>
      <point x="960" y="-10"/>
      <point x="842" y="38"/>
      <point x="768" y="149" type="curve"/>
      <point x="710" y="64"/>
      <point x="625" y="-10"/>
      <point x="425" y="-10" type="curve" smooth="yes"/>
      <point x="241" y="-10"/>
      <point x="109" y="85"/>
      <point x="109" y="284" type="curve" smooth="yes"/>
      <point x="109" y="429"/>
      <point x="223" y="567"/>
      <point x="597" y="567" type="curve" smooth="yes"/>
      <point x="685" y="567" type="line"/>
      <point x="685" y="599" type="line" smooth="yes"/>
      <point x="684" y="831"/>
      <point x="594" y="895"/>
      <point x="468" y="895" type="curve" smooth="yes"/>
      <point x="386" y="895"/>
      <point x="289" y="868"/>
      <point x="191" y="843" type="curve"/>
    </contour>
    <contour>
      <point x="229" y="278" type="curve" smooth="yes"/>
      <point x="229" y="153"/>
      <point x="305" y="92"/>
      <point x="445" y="92" type="curve" smooth="yes"/>
      <point x="551" y="92"/>
      <point x="627" y="113"/>
      <point x="732" y="216" type="curve"/>
      <point x="703" y="284"/>
      <point x="687" y="369"/>
      <point x="685" y="472" type="curve"/>
      <point x="685" y="473" type="line"/>
      <point x="629" y="473" type="line" smooth="yes"/>
      <point x="462" y="473"/>
      <point x="229" y="455"/>
    </contour>
    <contour>
      <point x="813" y="559" type="curve"/>
      <point x="1126" y="559" type="line" smooth="yes"/>
      <point x="1261" y="559"/>
      <point x="1321" y="630"/>
      <point x="1321" y="707" type="curve" smooth="yes"/>
      <point x="1321" y="798"/>
      <point x="1238" y="896"/>
      <point x="1099" y="896" type="curve" smooth="yes"/>
      <point x="917" y="896"/>
      <point x="829" y="767"/>
    </contour>
  </outline>
</glyph>
<glyph name="eth" format="1">
  <advance width="998"/>
  <unicode hex="00F0"/>
  <outline>
    <contour>
      <point x="751" y="450" type="curve" smooth="yes"/>
      <point x="751" y="650"/>
      <point x="573" y="701"/>
      <point x="469" y="701" type="curve" smooth="yes"/>
      <point x="326" y="701"/>
      <point x="216" y="601"/>
      <point x="216" y="395" type="curve" smooth="yes"/>
      <point x="216" y="170"/>
      <point x="322" y="96"/>
      <point x="490" y="96" type="curve" smooth="yes"/>
      <point x="670" y="96"/>
      <point x="751" y="203"/>
    </contour>
    <contour>
      <point x="761" y="672" type="curve"/>
      <point x="755" y="812"/>
      <point x="688" y="1041"/>
      <point x="588" y="1109" type="curve"/>
      <point x="382" y="967" type="line"/>
      <point x="330" y="1035" type="line"/>
      <point x="513" y="1161" type="line"/>
      <point x="434" y="1206"/>
      <point x="337" y="1235"/>
      <point x="224" y="1245" type="curve"/>
      <point x="245" y="1351" type="line"/>
      <point x="386" y="1328"/>
      <point x="511" y="1293"/>
      <point x="612" y="1229" type="curve"/>
      <point x="822" y="1377" type="line"/>
      <point x="874" y="1309" type="line"/>
      <point x="684" y="1175" type="line"/>
      <point x="807" y="1064"/>
      <point x="879" y="836"/>
      <point x="879" y="544" type="curve" smooth="yes"/>
      <point x="879" y="183"/>
      <point x="757" y="-10"/>
      <point x="485" y="-10" type="curve" smooth="yes"/>
      <point x="253" y="-10"/>
      <point x="88" y="121"/>
      <point x="88" y="394" type="curve" smooth="yes"/>
      <point x="88" y="671"/>
      <point x="272" y="804"/>
      <point x="475" y="804" type="curve" smooth="yes"/>
      <point x="595" y="804"/>
      <point x="700" y="754"/>
    </contour>
  </outline>
</glyph>
<glyph name="divide" format="1">
  <advance width="978"/>
  <unicode hex="00F7"/>
  <outline>
    <contour>
      <point x="401" y="282" type="line" smooth="yes"/>
      <point x="401" y="347"/>
      <point x="418" y="391"/>
      <point x="453" y="414" type="curve"/>
      <point x="506" y="414"/>
      <point x="544" y="393"/>
      <point x="565" y="352" type="curve"/>
      <point x="565" y="287"/>
      <point x="548" y="242"/>
      <point x="514" y="219" type="curve"/>
      <point x="459" y="219"/>
      <point x="421" y="240"/>
      <point x="401" y="281" type="curve"/>
    </contour>
    <contour>
      <point x="453" y="771" type="line"/>
      <point x="418" y="788"/>
      <point x="401" y="824"/>
      <point x="401" y="881" type="curve" smooth="yes"/>
      <point x="401" y="930"/>
      <point x="418" y="959"/>
      <point x="453" y="968" type="curve"/>
      <point x="514" y="968" type="line"/>
      <point x="548" y="951"/>
      <point x="565" y="914"/>
      <point x="565" y="857" type="curve" smooth="yes"/>
      <point x="565" y="808"/>
      <point x="548" y="779"/>
      <point x="514" y="771" type="curve"/>
    </contour>
    <contour>
      <point x="110" y="548" type="line"/>
      <point x="110" y="646" type="line"/>
      <point x="866" y="646" type="line"/>
      <point x="866" y="548" type="line"/>
    </contour>
  </outline>
</glyph>
<glyph name="oslash" format="1">
  <advance width="1016"/>
  <unicode hex="00F8"/>
  <outline>
    <component base="o"/>
    <contour>
      <point x="284.582" y="-118.826" type="line"/>
      <point x="213.126" y="-90.9531" type="line"/>
      <point x="715.006" y="1104.12" type="line"/>
      <point x="786.463" y="1076.25" type="line"/>
    </contour>
  </outline>
</glyph>
<glyph name="thorn" format="1">
  <advance width="982"/>
  <unicode hex="00FE"/>
  <outline>
    <contour>
      <point x="268" y="809" type="curve"/>
      <point x="268" y="137" type="line"/>
      <point x="350" y="99"/>
      <point x="408" y="96"/>
      <point x="463" y="96" type="curve" smooth="yes"/>
      <point x="492" y="96" type="line" smooth="yes"/>
      <point x="672" y="96"/>
      <point x="748" y="206"/>
      <point x="748" y="491" type="curve" smooth="yes"/>
      <point x="748" y="767"/>
      <point x="681" y="895"/>
      <point x="524" y="895" type="curve" smooth="yes"/>
      <point x="456" y="895"/>
      <point x="377" y="872"/>
    </contour>
    <contour>
      <point x="268" y="43" type="curve"/>
      <point x="268" y="-389" type="line"/>
      <point x="140" y="-389" type="line"/>
      <point x="140" y="1301" type="line"/>
      <point x="268" y="1301" type="line"/>
      <point x="268" y="916" type="line"/>
      <point x="370" y="985"/>
      <point x="460" y="1000"/>
      <point x="540" y="1000" type="curve" smooth="yes"/>
      <point x="740" y="1000"/>
      <point x="876" y="852"/>
      <point x="876" y="493" type="curve" smooth="yes"/>
      <point x="876" y="126"/>
      <point x="747" y="-10"/>
      <point x="510" y="-10" type="curve" smooth="yes"/>
      <point x="439" y="-10"/>
      <point x="347" y="4"/>
    </contour>
  </outline>
</glyph>
<glyph name="Dcroat" format="1">
  <advance width="1099"/>
  <unicode hex="0110"/>
  <outline>
    <contour>
      <point x="-0" y="609" type="line"/>
      <point x="-0" y="712" type="line"/>
      <point x="149" y="712" type="line"/>
      <point x="149" y="1284" type="line"/>
      <point x="422" y="1284" type="line" smooth="yes"/>
      <point x="876" y="1284"/>
      <point x="981" y="1101"/>
      <point x="981" y="636" type="curve" smooth="yes"/>
      <point x="981" y="229"/>
      <point x="905" y="0"/>
      <point x="433" y="0" type="curve" smooth="yes"/>
      <point x="149" y="0" type="line"/>
      <point x="149" y="609" type="line"/>
    </contour>
    <contour>
      <point x="422" y="1184" type="curve" smooth="yes"/>
      <point x="277" y="1184" type="line"/>
      <point x="277" y="712" type="line"/>
      <point x="480" y="712" type="line"/>
      <point x="480" y="609" type="line"/>
      <point x="277" y="609" type="line"/>
      <point x="277" y="104" type="line"/>
      <point x="433" y="104" type="line" smooth="yes"/>
      <point x="817" y="104"/>
      <point x="853" y="269"/>
      <point x="853" y="636" type="curve" smooth="yes"/>
      <point x="853" y="1030"/>
      <point x="797" y="1184"/>
    </contour>
  </outline>
</glyph>
<glyph name="dcroat" format="1">
  <advance width="1010"/>
  <unicode hex="0111"/>
  <outline>
    <contour>
      <point x="742" y="1358" type="line"/>
      <point x="870" y="1358" type="line"/>
      <point x="870" y="1195" type="line"/>
      <point x="1010" y="1195" type="line"/>
      <point x="1010" y="1107" type="line"/>
      <point x="870" y="1107" type="line"/>
      <point x="870" y="0" type="line"/>
      <point x="766" y="0" type="line"/>
      <point x="756" y="50" type="line"/>
      <point x="674" y="6"/>
      <point x="589" y="-10"/>
      <point x="514" y="-10" type="curve" smooth="yes"/>
      <point x="277" y="-10"/>
      <point x="108" y="126"/>
      <point x="108" y="493" type="curve" smooth="yes"/>
      <point x="108" y="852"/>
      <point x="284" y="1000"/>
      <point x="484" y="1000" type="curve" smooth="yes"/>
      <point x="568" y="1000"/>
      <point x="640" y="986"/>
      <point x="742" y="923" type="curve"/>
      <point x="742" y="1107" type="line"/>
      <point x="530" y="1107" type="line"/>
      <point x="530" y="1195" type="line"/>
      <point x="742" y="1195" type="line"/>
    </contour>
    <contour>
      <point x="742" y="137" type="curve"/>
      <point x="742" y="809" type="line"/>
      <point x="633" y="872"/>
      <point x="568" y="895"/>
      <point x="500" y="895" type="curve" smooth="yes"/>
      <point x="343" y="895"/>
      <point x="236" y="767"/>
      <point x="236" y="491" type="curve" smooth="yes"/>
      <point x="236" y="206"/>
      <point x="352" y="96"/>
      <point x="532" y="96" type="curve" smooth="yes"/>
      <point x="560" y="96" type="line" smooth="yes"/>
      <point x="612" y="96"/>
      <point x="660" y="99"/>
    </contour>
  </outline>
</glyph>
<glyph name="Hbar" format="1">
  <advance width="1134"/>
  <unicode hex="0126"/>
  <outline>
    <contour>
      <point x="857" y="896" type="line" smooth="no"/>
      <point x="277" y="896" type="line" smooth="no"/>
      <point x="277" y="703" type="line" smooth="no"/>
      <point x="857" y="703" type="line" smooth="no"/>
    </contour>
    <contour>
      <point x="41" y="896" type="line" smooth="no"/>
      <point x="41" y="984" type="line" smooth="no"/>
      <point x="149" y="984" type="line" smooth="no"/>
      <point x="149" y="1284" type="line" smooth="no"/>
      <point x="277" y="1284" type="line" smooth="no"/>
      <point x="277" y="984" type="line" smooth="no"/>
      <point x="857" y="984" type="line" smooth="no"/>
      <point x="857" y="1284" type="line" smooth="no"/>
      <point x="985" y="1284" type="line" smooth="no"/>
      <point x="985" y="984" type="line" smooth="no"/>
      <point x="1097" y="984" type="line" smooth="no"/>
      <point x="1097" y="896" type="line" smooth="no"/>
      <point x="985" y="896" type="line" smooth="no"/>
      <point x="985" y="0" type="line" smooth="no"/>
      <point x="857" y="0" type="line" smooth="no"/>
      <point x="857" y="602" type="line" smooth="no"/>
      <point x="277" y="602" type="line" smooth="no"/>
      <point x="277" y="0" type="line" smooth="no"/>
      <point x="149" y="0" type="line" smooth="no"/>
      <point x="149" y="896" type="line" smooth="no"/>
    </contour>
  </outline>
</glyph>
<glyph name="hbar" format="1">
  <advance width="991"/>
  <unicode hex="0127"/>
  <outline>
    <contour>
      <point x="-31" y="1100" type="line"/>
      <point x="-31" y="1195" type="line"/>
      <point x="159" y="1195" type="line"/>
      <point x="159" y="1358" type="line"/>
      <point x="287" y="1358" type="line"/>
      <point x="287" y="1195" type="line"/>
      <point x="499" y="1195" type="line"/>
      <point x="499" y="1100" type="line"/>
      <point x="287" y="1100" type="line"/>
      <point x="287" y="911" type="line"/>
      <point x="394" y="970"/>
      <point x="491" y="1000"/>
      <point x="586" y="1000" type="curve" smooth="yes"/>
      <point x="772" y="1000"/>
      <point x="863" y="900"/>
      <point x="863" y="663" type="curve" smooth="yes"/>
      <point x="863" y="0" type="line"/>
      <point x="735" y="0" type="line"/>
      <point x="735" y="669" type="line" smooth="yes"/>
      <point x="735" y="826"/>
      <point x="697" y="895"/>
      <point x="578" y="895" type="curve" smooth="yes"/>
      <point x="507" y="895"/>
      <point x="417" y="870"/>
      <point x="287" y="800" type="curve"/>
      <point x="287" y="0" type="line"/>
      <point x="159" y="0" type="line"/>
      <point x="159" y="1100" type="line"/>
    </contour>
  </outline>
</glyph>
<glyph name="dotlessi" format="1">
  <advance width="673"/>
  <unicode hex="0131"/>
  <outline>
    <contour>
      <point x="111" y="895" type="line" smooth="no"/>
      <point x="111" y="985" type="line" smooth="no"/>
      <point x="431" y="985" type="line" smooth="no"/>
      <point x="431" y="90" type="line" smooth="no"/>
      <point x="623" y="90" type="line" smooth="no"/>
      <point x="623" y="0" type="line" smooth="no"/>
      <point x="111" y="0" type="line" smooth="no"/>
      <point x="111" y="90" type="line" smooth="no"/>
      <point x="303" y="90" type="line" smooth="no"/>
      <point x="303" y="895" type="line" smooth="no"/>
    </contour>
  </outline>
</glyph>
<glyph name="kgreenlandic" format="1">
  <advance width="953"/>
  <unicode hex="0138"/>
  <outline>
    <contour>
      <point x="140" y="0" type="line" smooth="no"/>
      <point x="140" y="985" type="line" smooth="no"/>
      <point x="268" y="985" type="line" smooth="no"/>
      <point x="268" y="481" type="line" smooth="no"/>
      <point x="370" y="593"/>
      <point x="520" y="754"/>
      <point x="719" y="985" type="curve" smooth="no"/>
      <point x="885" y="985" type="line" smooth="no"/>
      <point x="457" y="504" type="line" smooth="no"/>
      <point x="921" y="0" type="line" smooth="no"/>
      <point x="760" y="0" type="line" smooth="no"/>
      <point x="567" y="209"/>
      <point x="385" y="416"/>
      <point x="385" y="416" type="curve" smooth="no"/>
      <point x="359" y="445" type="line" smooth="no"/>
      <point x="268" y="364" type="line" smooth="no"/>
      <point x="268" y="0" type="line" smooth="no"/>
    </contour>
  </outline>
</glyph>
<glyph name="Lslash" format="1">
  <advance width="825"/>
  <unicode hex="0141"/>
  <outline>
    <contour>
      <point x="606" y="1000" type="line" smooth="no"/>
      <point x="658" y="920" type="line" smooth="no"/>
      <point x="277" y="623" type="line" smooth="no"/>
      <point x="277" y="100" type="line" smooth="no"/>
      <point x="769" y="100" type="line" smooth="no"/>
      <point x="786" y="0" type="line" smooth="no"/>
      <point x="149" y="0" type="line" smooth="no"/>
      <point x="149" y="523" type="line" smooth="no"/>
      <point x="13" y="418" type="line" smooth="no"/>
      <point x="-40" y="498" type="line" smooth="no"/>
      <point x="149" y="645" type="line" smooth="no"/>
      <point x="149" y="1284" type="line" smooth="no"/>
      <point x="277" y="1284" type="line" smooth="no"/>
      <point x="277" y="744" type="line" smooth="no"/>
    </contour>
  </outline>
</glyph>
<glyph name="lslash" format="1">
  <advance width="744"/>
  <unicode hex="0142"/>
  <outline>
    <contour>
      <point x="134" y="1358" type="line" smooth="no"/>
      <point x="483" y="1358" type="line" smooth="no"/>
      <point x="483" y="810" type="line" smooth="no"/>
      <point x="726" y="1000" type="line" smooth="no"/>
      <point x="784" y="923" type="line" smooth="no"/>
      <point x="483" y="688" type="line" smooth="no"/>
      <point x="483" y="90" type="line" smooth="no"/>
      <point x="694" y="90" type="line" smooth="no"/>
      <point x="694" y="0" type="line" smooth="no"/>
      <point x="132" y="0" type="line" smooth="no"/>
      <point x="132" y="90" type="line" smooth="no"/>
      <point x="355" y="90" type="line" smooth="no"/>
      <point x="355" y="589" type="line" smooth="no"/>
      <point x="139" y="420" type="line" smooth="no"/>
      <point x="81" y="498" type="line" smooth="no"/>
      <point x="355" y="711" type="line" smooth="no"/>
      <point x="355" y="1267" type="line" smooth="no"/>
      <point x="134" y="1267" type="line" smooth="no"/>
    </contour>
  </outline>
</glyph>
<glyph name="Eng" format="1">
  <advance width="1193"/>
  <unicode hex="014a"/>
  <outline>
    <contour>
      <point x="1044" y="100" type="line" smooth="yes"/>
      <point x="1044" y="-211"/>
      <point x="832" y="-250"/>
      <point x="612" y="-250" type="curve" smooth="no"/>
      <point x="610" y="-143" type="line" smooth="no"/>
      <point x="811" y="-143"/>
      <point x="912" y="-121"/>
      <point x="912" y="122" type="curve" smooth="no"/>
      <point x="271" y="1081" type="line" smooth="no"/>
      <point x="271" y="0" type="line" smooth="no"/>
      <point x="149" y="0" type="line" smooth="no"/>
      <point x="149" y="1284" type="line" smooth="no"/>
      <point x="285" y="1284" type="line" smooth="no"/>
      <point x="928" y="317" type="line" smooth="no"/>
      <point x="928" y="1284" type="line" smooth="no"/>
      <point x="1044" y="1284" type="line" smooth="no"/>
    </contour>
  </outline>
</glyph>
<glyph name="eng" format="1">
  <advance width="978"/>
  <unicode hex="014B"/>
  <outline>
    <contour>
      <point x="722" y="108" type="curve" smooth="yes"/>
      <point x="722" y="668" type="line" smooth="yes"/>
      <point x="722" y="825"/>
      <point x="682" y="895"/>
      <point x="546" y="895" type="curve" smooth="yes"/>
      <point x="472" y="895"/>
      <point x="381" y="888"/>
      <point x="261" y="822" type="curve"/>
      <point x="261" y="0" type="line"/>
      <point x="133" y="0" type="line"/>
      <point x="133" y="985" type="line"/>
      <point x="238" y="985" type="line"/>
      <point x="247" y="921" type="line"/>
      <point x="382" y="985"/>
      <point x="456" y="1000"/>
      <point x="553" y="1000" type="curve" smooth="yes"/>
      <point x="756" y="1000"/>
      <point x="850" y="891"/>
      <point x="850" y="663" type="curve" smooth="yes"/>
      <point x="850" y="128" type="line" smooth="yes"/>
      <point x="850" y="-206"/>
      <point x="685" y="-288"/>
      <point x="425" y="-288" type="curve"/>
      <point x="426" y="-184" type="line"/>
      <point x="626" y="-184"/>
      <point x="722" y="-137"/>
    </contour>
  </outline>
</glyph>
<glyph name="OE" format="1">
  <advance width="1656"/>
  <unicode hex="0152"/>
  <outline>
    <contour>
      <point x="885" y="1185" type="line"/>
      <point x="564" y="1184" type="line" smooth="yes"/>
      <point x="317" y="1184"/>
      <point x="244" y="1030"/>
      <point x="244" y="645" type="curve" smooth="yes"/>
      <point x="244" y="264"/>
      <point x="314" y="104"/>
      <point x="564" y="104" type="curve" smooth="yes"/>
      <point x="884" y="105" type="line"/>
    </contour>
    <contour>
      <point x="1012" y="626" type="line"/>
      <point x="1012" y="104" type="line"/>
      <point x="1557" y="104" type="line"/>
      <point x="1573" y="0" type="line"/>
      <point x="564" y="0" type="line" smooth="yes"/>
      <point x="203" y="0"/>
      <point x="116" y="232"/>
      <point x="116" y="648" type="curve" smooth="yes"/>
      <point x="116" y="1065"/>
      <point x="215" y="1284"/>
      <point x="564" y="1284" type="curve" smooth="yes"/>
      <point x="1569" y="1284" type="line"/>
      <point x="1547" y="1184" type="line"/>
      <point x="1012" y="1184" type="line"/>
      <point x="1012" y="722" type="line"/>
      <point x="1513" y="722" type="line"/>
      <point x="1513" y="626" type="line"/>
    </contour>
  </outline>
</glyph>
<glyph name="oe" format="1">
  <advance width="1604"/>
  <unicode hex="0153"/>
  <outline>
    <contour>
      <point x="1165" y="96" type="curve" smooth="yes"/>
      <point x="1265" y="96"/>
      <point x="1352" y="117"/>
      <point x="1445" y="176" type="curve"/>
      <point x="1484" y="75" type="line"/>
      <point x="1388" y="16"/>
      <point x="1267" y="-10"/>
      <point x="1172" y="-10" type="curve" smooth="yes"/>
      <point x="1012" y="-10"/>
      <point x="887" y="62"/>
      <point x="815" y="192" type="curve"/>
      <point x="755" y="73"/>
      <point x="650" y="-10"/>
      <point x="492" y="-10" type="curve" smooth="yes"/>
      <point x="225" y="-10"/>
      <point x="108" y="182"/>
      <point x="108" y="495" type="curve" smooth="yes"/>
      <point x="108" y="826"/>
      <point x="223" y="1000"/>
      <point x="492" y="1000" type="curve" smooth="yes"/>
      <point x="653" y="1000"/>
      <point x="759" y="927"/>
      <point x="818" y="806" type="curve"/>
      <point x="888" y="931"/>
      <point x="1005" y="1000"/>
      <point x="1147" y="1000" type="curve" smooth="yes"/>
      <point x="1369" y="1000"/>
      <point x="1502" y="841"/>
      <point x="1502" y="604" type="curve" smooth="yes"/>
      <point x="1502" y="574"/>
      <point x="1499" y="528"/>
      <point x="1494" y="469" type="curve"/>
      <point x="876" y="469" type="line"/>
      <point x="880" y="162"/>
      <point x="1019" y="96"/>
    </contour>
    <contour>
      <point x="492" y="895" type="curve" smooth="yes"/>
      <point x="295" y="895"/>
      <point x="236" y="730"/>
      <point x="236" y="495" type="curve" smooth="yes"/>
      <point x="236" y="257"/>
      <point x="292" y="96"/>
      <point x="492" y="96" type="curve" smooth="yes"/>
      <point x="692" y="96"/>
      <point x="748" y="257"/>
      <point x="748" y="495" type="curve" smooth="yes"/>
      <point x="748" y="730"/>
      <point x="689" y="895"/>
    </contour>
    <contour>
      <point x="1148" y="895" type="curve" smooth="yes"/>
      <point x="975" y="895"/>
      <point x="891" y="766"/>
      <point x="876" y="559" type="curve"/>
      <point x="1383" y="559" type="line"/>
      <point x="1383" y="609" type="line" smooth="yes"/>
      <point x="1383" y="783"/>
      <point x="1293" y="895"/>
    </contour>
  </outline>
</glyph>
<glyph name="Tbar" format="1">
  <advance width="891"/>
  <unicode hex="0166"/>
  <outline>
    <contour>
      <point x="35" y="1184" type="line"/>
      <point x="35" y="1284" type="line"/>
      <point x="856" y="1284" type="line"/>
      <point x="856" y="1184" type="line"/>
      <point x="507" y="1184" type="line"/>
      <point x="507" y="712" type="line"/>
      <point x="716" y="712" type="line"/>
      <point x="716" y="609" type="line"/>
      <point x="507" y="609" type="line"/>
      <point x="507" y="0" type="line"/>
      <point x="379" y="0" type="line"/>
      <point x="379" y="609" type="line"/>
      <point x="166" y="609" type="line"/>
      <point x="166" y="712" type="line"/>
      <point x="379" y="712" type="line"/>
      <point x="379" y="1184" type="line"/>
    </contour>
  </outline>
</glyph>
<glyph name="florin" format="1">
  <advance width="997"/>
  <unicode hex="0192"/>
  <outline>
    <contour>
      <point x="393" y="-31" type="line"/>
      <point x="365" y="-239"/>
      <point x="315" y="-416"/>
      <point x="88" y="-418" type="curve" smooth="yes"/>
      <point x="79" y="-418"/>
      <point x="65" y="-417"/>
      <point x="48" y="-416" type="curve"/>
      <point x="57" y="-305" type="line"/>
      <point x="62" y="-305"/>
      <point x="67" y="-306"/>
      <point x="72" y="-306" type="curve" smooth="yes"/>
      <point x="108" y="-306"/>
      <point x="139" y="-296"/>
      <point x="165" y="-276" type="curve"/>
      <point x="238" y="-244"/>
      <point x="261" y="-170"/>
      <point x="282" y="-37" type="curve" smooth="yes"/>
      <point x="300" y="81"/>
      <point x="339" y="373"/>
      <point x="397" y="840" type="curve"/>
      <point x="224" y="840" type="line"/>
      <point x="240" y="952" type="line"/>
      <point x="412" y="952" type="line"/>
      <point x="441" y="1186"/>
      <point x="489" y="1389"/>
      <point x="703" y="1403" type="curve"/>
      <point x="776" y="1403" type="line"/>
      <point x="811" y="1399"/>
      <point x="851" y="1391"/>
      <point x="895" y="1380" type="curve"/>
      <point x="867" y="1266" type="line"/>
      <point x="813" y="1282"/>
      <point x="766" y="1290"/>
      <point x="727" y="1290" type="curve" smooth="yes"/>
      <point x="652" y="1290"/>
      <point x="623" y="1261"/>
      <point x="594" y="1194" type="curve"/>
      <point x="560" y="1137"/>
      <point x="537" y="1057"/>
      <point x="525" y="952" type="curve"/>
      <point x="819" y="952" type="line"/>
      <point x="801" y="840" type="line"/>
      <point x="511" y="840" type="line"/>
      <point x="395" y="-31" type="line"/>
    </contour>
  </outline>
</glyph>
<glyph name="uni0237" format="1">
  <advance width="620"/>
  <unicode hex="0237"/>
  <outline>
    <contour>
      <point x="202" y="-182" type="curve" smooth="yes"/>
      <point x="315" y="-182"/>
      <point x="339" y="-123"/>
      <point x="339" y="28" type="curve" smooth="yes"/>
      <point x="339" y="895" type="line"/>
      <point x="115" y="895" type="line"/>
      <point x="115" y="985" type="line"/>
      <point x="467" y="985" type="line"/>
      <point x="467" y="18" type="line" smooth="yes"/>
      <point x="467" y="-203"/>
      <point x="378" y="-295"/>
      <point x="206" y="-295" type="curve" smooth="yes"/>
      <point x="149" y="-295"/>
      <point x="93" y="-291"/>
      <point x="38" y="-275" type="curve"/>
      <point x="54" y="-166" type="line"/>
      <point x="99" y="-177"/>
      <point x="139" y="-182"/>
    </contour>
  </outline>
</glyph>
<glyph name="circumflex" format="1">
  <advance width="869"/>
  <unicode hex="02c6"/>
  <outline>
    <contour>
      <point x="435" y="1260" type="line" smooth="no"/>
      <point x="222" y="1022" type="line" smooth="no"/>
      <point x="136" y="1102" type="line" smooth="no"/>
      <point x="219" y="1195"/>
      <point x="282" y="1267"/>
      <point x="382" y="1363" type="curve" smooth="no"/>
      <point x="487" y="1363" type="line" smooth="no"/>
      <point x="587" y="1267"/>
      <point x="650" y="1195"/>
      <point x="733" y="1102" type="curve" smooth="no"/>
      <point x="647" y="1022" type="line" smooth="no"/>
    </contour>
  </outline>
</glyph>
<glyph name="caron" format="1">
  <advance width="410"/>
  <unicode hex="02C7"/>
  <outline>
    <contour>
      <point x="164" y="1106" type="line"/>
      <point x="356" y="1363" type="line"/>
      <point x="444" y="1303" type="line"/>
      <point x="372" y="1205"/>
      <point x="295" y="1113"/>
      <point x="216" y="1022" type="curve" smooth="yes"/>
      <point x="200" y="1003"/>
      <point x="182" y="993"/>
      <point x="164" y="993" type="curve" smooth="yes"/>
      <point x="146" y="993"/>
      <point x="129" y="1003"/>
      <point x="113" y="1022" type="curve" smooth="yes"/>
      <point x="34" y="1113"/>
      <point x="-43" y="1205"/>
      <point x="-115" y="1303" type="curve"/>
      <point x="-27" y="1363" type="line"/>
    </contour>
  </outline>
</glyph>
<glyph name="breve" format="1">
  <advance width="825"/>
  <unicode hex="02D8"/>
  <outline>
    <contour>
      <point x="626" y="1256" type="curve"/>
      <point x="703" y="1180" type="line"/>
      <point x="614" y="1080"/>
      <point x="524" y="1031"/>
      <point x="434" y="1031" type="curve" smooth="yes"/>
      <point x="344" y="1031"/>
      <point x="255" y="1080"/>
      <point x="166" y="1180" type="curve"/>
      <point x="243" y="1256" type="line"/>
      <point x="299" y="1178"/>
      <point x="365" y="1141"/>
      <point x="431" y="1141" type="curve" smooth="yes"/>
      <point x="499" y="1141"/>
      <point x="567" y="1180"/>
    </contour>
  </outline>
</glyph>
<glyph name="dotaccent" format="1">
  <advance width="442"/>
  <unicode hex="02d9"/>
  <outline>
    <contour>
      <point x="57" y="318" type="line" smooth="no"/>
      <point x="57" y="163" type="line" smooth="no"/>
      <point x="-80" y="163" type="line" smooth="no"/>
      <point x="-80" y="318" type="line" smooth="no"/>
    </contour>
  </outline>
</glyph>
<glyph name="ring" format="1">
  <advance width="699"/>
  <unicode hex="02DA"/>
  <outline>
    <contour>
      <point x="350" y="905" type="curve" smooth="yes"/>
      <point x="209.754" y="905.417"/>
      <point x="116" y="995.165"/>
      <point x="116" y="1127" type="curve" smooth="yes"/>
      <point x="116" y="1265.05"/>
      <point x="214.319" y="1350"/>
      <point x="350" y="1350" type="curve" smooth="yes"/>
      <point x="485.661" y="1350"/>
      <point x="582" y="1259.74"/>
      <point x="582" y="1127" type="curve" smooth="yes"/>
      <point x="582" y="991.677"/>
      <point x="483.695" y="905"/>
    </contour>
    <contour>
      <point x="486" y="1127" type="curve" smooth="yes"/>
      <point x="486" y="1211.88"/>
      <point x="437" y="1266"/>
      <point x="350" y="1266" type="curve" smooth="yes"/>
      <point x="266" y="1266"/>
      <point x="213" y="1210.85"/>
      <point x="213" y="1127" type="curve" smooth="yes"/>
      <point x="213" y="1042.2"/>
      <point x="265" y="989"/>
      <point x="350" y="989" type="curve" smooth="yes"/>
      <point x="435" y="989"/>
      <point x="486" y="1045.85"/>
    </contour>
  </outline>
</glyph>
<glyph name="ogonek" format="1">
  <advance width="936"/>
  <unicode hex="02DB"/>
  <outline>
    <contour>
      <point x="518" y="-117" type="curve"/>
      <point x="612" y="-117" type="line"/>
      <point x="558" y="-134"/>
      <point x="463" y="-249"/>
      <point x="463" y="-319" type="curve" smooth="yes"/>
      <point x="463" y="-358"/>
      <point x="502" y="-371"/>
      <point x="543" y="-371" type="curve" smooth="yes"/>
      <point x="578" y="-371"/>
      <point x="615" y="-362"/>
      <point x="633" y="-351" type="curve"/>
      <point x="648" y="-431" type="line"/>
      <point x="608" y="-448"/>
      <point x="563" y="-457"/>
      <point x="522" y="-457" type="curve" smooth="yes"/>
      <point x="435" y="-457"/>
      <point x="361" y="-418"/>
      <point x="361" y="-329" type="curve" smooth="yes"/>
      <point x="361" y="-256"/>
      <point x="413" y="-170"/>
    </contour>
  </outline>
</glyph>
<glyph name="tilde" format="1">
  <advance width="882"/>
  <unicode hex="02DC"/>
  <outline>
    <contour>
      <point x="759" y="631" type="line"/>
      <point x="708" y="520"/>
      <point x="661" y="475"/>
      <point x="590" y="475" type="curve" smooth="yes"/>
      <point x="543" y="475"/>
      <point x="485" y="495"/>
      <point x="410" y="529" type="curve"/>
      <point x="359" y="553"/>
      <point x="325" y="568"/>
      <point x="299" y="568" type="curve" smooth="yes"/>
      <point x="264" y="568"/>
      <point x="240" y="541"/>
      <point x="203" y="472" type="curve"/>
      <point x="122" y="518" type="line"/>
      <point x="125" y="518" type="line"/>
      <point x="182" y="638"/>
      <point x="223" y="684"/>
      <point x="288" y="684" type="curve" smooth="yes"/>
      <point x="334" y="684"/>
      <point x="391" y="661"/>
      <point x="475" y="625" type="curve"/>
      <point x="529" y="604"/>
      <point x="562" y="589"/>
      <point x="588" y="589" type="curve" smooth="yes"/>
      <point x="621" y="589"/>
      <point x="642" y="613"/>
      <point x="679" y="675" type="curve"/>
    </contour>
  </outline>
</glyph>
<glyph name="hungarumlaut" format="1">
  <advance width="782"/>
  <unicode hex="02dd"/>
  <outline>
    <contour>
      <point x="69" y="1022" type="line" smooth="no"/>
      <point x="314" y="1363" type="line" smooth="no"/>
      <point x="420" y="1283" type="line" smooth="no"/>
      <point x="323" y="1174" type="line" smooth="no"/>
      <point x="276" y="1116"/>
      <point x="122" y="973"/>
      <point x="122" y="973" type="curve" smooth="no"/>
    </contour>
    <contour>
      <point x="364" y="1022" type="line" smooth="no"/>
      <point x="610" y="1363" type="line" smooth="no"/>
      <point x="716" y="1283" type="line" smooth="no"/>
      <point x="618" y="1174" type="line" smooth="no"/>
      <point x="571" y="1116"/>
      <point x="418" y="973"/>
      <point x="418" y="973" type="curve" smooth="no"/>
    </contour>
  </outline>
</glyph>
<glyph name="uni030F" format="1">
  <advance width="788"/>
  <unicode hex="030F"/>
  <outline>
    <contour>
      <point x="419" y="1022" type="line"/>
      <point x="366" y="973" type="line"/>
      <point x="366" y="973"/>
      <point x="214" y="1106"/>
      <point x="167" y="1164" type="curve" smooth="yes"/>
      <point x="68" y="1283" type="line"/>
      <point x="174" y="1363" type="line"/>
    </contour>
    <contour>
      <point x="721" y="1022" type="line"/>
      <point x="668" y="973" type="line"/>
      <point x="668" y="973"/>
      <point x="516" y="1106"/>
      <point x="469" y="1164" type="curve" smooth="yes"/>
      <point x="370" y="1283" type="line"/>
      <point x="476" y="1363" type="line"/>
    </contour>
  </outline>
</glyph>
<glyph name="uni0311" format="1">
  <advance width="825"/>
  <unicode hex="0311"/>
  <outline>
    <contour>
      <point x="243" y="1031" type="curve"/>
      <point x="166" y="1106" type="line"/>
      <point x="255" y="1206"/>
      <point x="344" y="1256"/>
      <point x="434" y="1256" type="curve" smooth="yes"/>
      <point x="524" y="1256"/>
      <point x="614" y="1206"/>
      <point x="703" y="1106" type="curve"/>
      <point x="626" y="1031" type="line"/>
      <point x="570" y="1109"/>
      <point x="504" y="1146"/>
      <point x="438" y="1146" type="curve" smooth="yes"/>
      <point x="370" y="1146"/>
      <point x="302" y="1107"/>
    </contour>
  </outline>
</glyph>
<glyph name="Delta" format="1">
  <advance width="1082"/>
  <unicode hex="0394"/>
  <outline>
    <contour>
      <point x="970" y="0" type="line"/>
      <point x="113" y="0" type="line"/>
      <point x="464" y="1339" type="line"/>
      <point x="640" y="1339" type="line"/>
    </contour>
    <contour>
      <point x="246" y="102" type="line"/>
      <point x="838" y="102" type="line"/>
      <point x="563" y="1245" type="line"/>
      <point x="539" y="1245" type="line"/>
    </contour>
  </outline>
</glyph>
<glyph name="Omega" format="1">
  <advance width="1055"/>
  <unicode hex="03A9"/>
  <outline>
    <contour>
      <point x="804" y="660" type="line"/>
      <point x="804" y="1025"/>
      <point x="772" y="1245"/>
      <point x="526" y="1256" type="curve"/>
      <point x="296" y="1249"/>
      <point x="246" y="1029"/>
      <point x="246" y="763" type="curve"/>
      <point x="251" y="570" type="line"/>
      <point x="275" y="318"/>
      <point x="344" y="153"/>
      <point x="473" y="103" type="curve"/>
      <point x="473" y="1" type="line"/>
      <point x="165" y="1" type="line"/>
      <point x="165" y="93" type="line"/>
      <point x="336" y="93" type="line"/>
      <point x="336" y="103" type="line"/>
      <point x="193" y="211"/>
      <point x="139" y="391"/>
      <point x="139" y="675" type="curve" smooth="yes"/>
      <point x="139" y="1071"/>
      <point x="194" y="1363"/>
      <point x="526" y="1363" type="curve" smooth="yes"/>
      <point x="846" y="1363"/>
      <point x="913" y="1085"/>
      <point x="913" y="710" type="curve" smooth="yes"/>
      <point x="913" y="396"/>
      <point x="863" y="214"/>
      <point x="716" y="102" type="curve"/>
      <point x="899" y="102" type="line"/>
      <point x="899" y="0" type="line"/>
      <point x="580" y="0" type="line"/>
      <point x="580" y="102" type="line"/>
      <point x="740" y="158"/>
      <point x="805" y="413"/>
      <point x="805" y="659" type="curve"/>
    </contour>
  </outline>
</glyph>
<glyph name="mu" format="1">
  <advance width="985"/>
  <unicode hex="03BC"/>
  <outline>
    <contour>
      <point x="132" y="-309" type="line"/>
      <point x="151" y="-243"/>
      <point x="160" y="-162"/>
      <point x="160" y="-66" type="curve" smooth="yes"/>
      <point x="160" y="985" type="line"/>
      <point x="271" y="985" type="line"/>
      <point x="271" y="344" type="line" smooth="yes"/>
      <point x="271" y="177"/>
      <point x="321" y="92"/>
      <point x="454" y="92" type="curve" smooth="yes"/>
      <point x="555" y="92"/>
      <point x="615" y="120"/>
      <point x="711" y="180" type="curve"/>
      <point x="724" y="274"/>
      <point x="730" y="352"/>
      <point x="730" y="414" type="curve" smooth="yes"/>
      <point x="730" y="985" type="line"/>
      <point x="839" y="985" type="line"/>
      <point x="839" y="0" type="line"/>
      <point x="733" y="0" type="line"/>
      <point x="733" y="100" type="line"/>
      <point x="648" y="43" type="line"/>
      <point x="585" y="4"/>
      <point x="520" y="-23"/>
      <point x="441" y="-23" type="curve" smooth="yes"/>
      <point x="366" y="-23"/>
      <point x="298" y="8"/>
      <point x="262" y="55" type="curve"/>
      <point x="268" y="-68" type="line"/>
      <point x="268" y="-183"/>
      <point x="256" y="-269"/>
      <point x="231" y="-328" type="curve"/>
      <point x="133" y="-309" type="line"/>
    </contour>
  </outline>
</glyph>
<glyph name="pi" format="1">
  <advance width="1205"/>
  <unicode hex="03C0"/>
  <outline>
    <contour>
      <point x="114" y="1000" type="line"/>
      <point x="185" y="1013"/>
      <point x="274" y="1019"/>
      <point x="382" y="1019" type="curve" smooth="yes"/>
      <point x="1084" y="1019" type="line"/>
      <point x="1084" y="910" type="line"/>
      <point x="906" y="910" type="line"/>
      <point x="906" y="280" type="line" smooth="yes"/>
      <point x="906" y="177"/>
      <point x="910" y="83"/>
      <point x="917" y="0" type="curve"/>
      <point x="804" y="0" type="line"/>
      <point x="797" y="88"/>
      <point x="793" y="178"/>
      <point x="793" y="270" type="curve" smooth="yes"/>
      <point x="793" y="909" type="line"/>
      <point x="435" y="909" type="line"/>
      <point x="430" y="600"/>
      <point x="413" y="297"/>
      <point x="382" y="0" type="curve"/>
      <point x="269" y="0" type="line"/>
      <point x="298" y="270"/>
      <point x="316" y="573"/>
      <point x="323" y="909" type="curve"/>
      <point x="246" y="909"/>
      <point x="179" y="905"/>
      <point x="122" y="897" type="curve"/>
      <point x="113" y="999" type="line"/>
    </contour>
  </outline>
</glyph>
<glyph name="endash" format="1">
  <advance width="894"/>
  <unicode hex="2013"/>
  <outline>
    <contour>
      <point x="116" y="547" type="line"/>
      <point x="116" y="643" type="line"/>
      <point x="776" y="643" type="line"/>
      <point x="776" y="547" type="line"/>
    </contour>
  </outline>
</glyph>
<glyph name="quoteleft" format="1">
  <advance width="423"/>
  <unicode hex="2018"/>
  <outline>
    <contour>
      <point x="241" y="958" type="curve"/>
      <point x="112" y="987" type="line"/>
      <point x="149" y="1149"/>
      <point x="194" y="1289"/>
      <point x="244" y="1397" type="curve"/>
      <point x="311" y="1364" type="line"/>
      <point x="278" y="1238"/>
      <point x="257" y="1100"/>
    </contour>
  </outline>
</glyph>
<glyph name="quoteright" format="1">
  <advance width="431"/>
  <unicode hex="2019"/>
  <outline>
    <contour>
      <point x="187" y="1407" type="curve"/>
      <point x="317" y="1382" type="line"/>
      <point x="279" y="1221"/>
      <point x="266" y="1132"/>
      <point x="186" y="973" type="curve"/>
      <point x="119" y="994" type="line"/>
      <point x="118" y="994" type="line" smooth="yes"/>
      <point x="119" y="994"/>
      <point x="167" y="1268"/>
    </contour>
  </outline>
</glyph>
<glyph name="quotesinglbase" format="1">
  <advance width="431"/>
  <unicode hex="201a"/>
  <outline>
    <contour>
      <point x="187" y="121" type="curve" smooth="no"/>
      <point x="317" y="96" type="line" smooth="no"/>
      <point x="279" y="-65"/>
      <point x="266" y="-154"/>
      <point x="186" y="-313" type="curve" smooth="no"/>
      <point x="119" y="-292" type="line" smooth="no"/>
      <point x="118" y="-292" type="line" smooth="yes"/>
      <point x="119" y="-292"/>
      <point x="167" y="-18"/>
    </contour>
  </outline>
</glyph>
<glyph name="quotedblleft" format="1">
  <advance width="690"/>
  <unicode hex="201C"/>
  <outline>
    <contour>
      <point x="241" y="958" type="curve"/>
      <point x="112" y="987" type="line"/>
      <point x="149" y="1149"/>
      <point x="194" y="1289"/>
      <point x="244" y="1397" type="curve"/>
      <point x="311" y="1364" type="line"/>
      <point x="278" y="1238"/>
      <point x="257" y="1100"/>
    </contour>
    <contour>
      <point x="508" y="958" type="curve"/>
      <point x="380" y="987" type="line"/>
      <point x="417" y="1149"/>
      <point x="462" y="1289"/>
      <point x="512" y="1397" type="curve"/>
      <point x="578" y="1364" type="line"/>
      <point x="545" y="1238"/>
      <point x="524" y="1100"/>
    </contour>
  </outline>
</glyph>
<glyph name="quotedblright" format="1">
  <advance width="700"/>
  <unicode hex="201D"/>
  <outline>
    <contour>
      <point x="456" y="1407" type="curve"/>
      <point x="586" y="1382" type="line"/>
      <point x="552" y="1231"/>
      <point x="502" y="1043"/>
      <point x="454" y="973" type="curve"/>
      <point x="388" y="994" type="line"/>
      <point x="386" y="994" type="line" smooth="yes"/>
      <point x="387" y="994"/>
      <point x="436" y="1268"/>
    </contour>
    <contour>
      <point x="187" y="1407" type="curve"/>
      <point x="317" y="1382" type="line"/>
      <point x="279" y="1221"/>
      <point x="266" y="1132"/>
      <point x="186" y="973" type="curve"/>
      <point x="119" y="994" type="line"/>
      <point x="118" y="994" type="line" smooth="yes"/>
      <point x="119" y="994"/>
      <point x="167" y="1268"/>
    </contour>
  </outline>
</glyph>
<glyph name="quotedblbase" format="1">
  <advance width="691"/>
  <unicode hex="201E"/>
  <outline>
    <contour>
      <point x="187" y="121" type="curve"/>
      <point x="317" y="96" type="line"/>
      <point x="279" y="-65"/>
      <point x="266" y="-154"/>
      <point x="186" y="-313" type="curve"/>
      <point x="119" y="-292" type="line"/>
      <point x="118" y="-292" type="line" smooth="yes"/>
      <point x="119" y="-292"/>
      <point x="167" y="-18"/>
    </contour>
    <contour>
      <point x="446" y="121" type="curve"/>
      <point x="576" y="96" type="line"/>
      <point x="538" y="-65"/>
      <point x="526" y="-154"/>
      <point x="446" y="-313" type="curve"/>
      <point x="378" y="-292" type="line"/>
      <point x="378" y="-292" type="line" smooth="yes"/>
      <point x="379" y="-292"/>
      <point x="426" y="-18"/>
    </contour>
  </outline>
</glyph>
<glyph name="dagger" format="1">
  <advance width="1013"/>
  <unicode hex="2020"/>
  <outline>
    <contour>
      <point x="560" y="0" type="line"/>
      <point x="450" y="0" type="line"/>
      <point x="450" y="888" type="line"/>
      <point x="142" y="888" type="line"/>
      <point x="142" y="985" type="line"/>
      <point x="450" y="985" type="line"/>
      <point x="450" y="1301" type="line"/>
      <point x="560" y="1301" type="line"/>
      <point x="560" y="985" type="line"/>
      <point x="870" y="985" type="line"/>
      <point x="870" y="888" type="line"/>
      <point x="560" y="888" type="line"/>
    </contour>
  </outline>
</glyph>
<glyph name="daggerdbl" format="1">
  <advance width="1025"/>
  <unicode hex="2021"/>
  <outline>
    <contour>
      <point x="566" y="226" type="line"/>
      <point x="566" y="0" type="line"/>
      <point x="456" y="0" type="line"/>
      <point x="456" y="226" type="line"/>
      <point x="148" y="226" type="line"/>
      <point x="148" y="322" type="line"/>
      <point x="456" y="322" type="line"/>
      <point x="456" y="980" type="line"/>
      <point x="148" y="980" type="line"/>
      <point x="148" y="1077" type="line"/>
      <point x="456" y="1077" type="line"/>
      <point x="456" y="1301" type="line"/>
      <point x="566" y="1301" type="line"/>
      <point x="566" y="1077" type="line"/>
      <point x="876" y="1077" type="line"/>
      <point x="876" y="980" type="line"/>
      <point x="566" y="980" type="line"/>
      <point x="566" y="322" type="line"/>
      <point x="876" y="322" type="line"/>
      <point x="876" y="226" type="line"/>
    </contour>
  </outline>
</glyph>
<glyph name="bullet" format="1">
  <advance width="707"/>
  <unicode hex="2022"/>
  <outline>
    <contour>
      <point x="145" y="582" type="curve" smooth="yes"/>
      <point x="145" y="697"/>
      <point x="238" y="790"/>
      <point x="353" y="790" type="curve" smooth="yes"/>
      <point x="468" y="790"/>
      <point x="561" y="697"/>
      <point x="561" y="582" type="curve" smooth="yes"/>
      <point x="561" y="467"/>
      <point x="468" y="374"/>
      <point x="353" y="374" type="curve" smooth="yes"/>
      <point x="238" y="374"/>
      <point x="145" y="467"/>
    </contour>
  </outline>
</glyph>
<glyph name="perthousand" format="1">
  <advance width="2115"/>
  <unicode hex="2030"/>
  <outline>
    <contour>
      <point x="1402" y="265" type="curve" smooth="yes"/>
      <point x="1402" y="81"/>
      <point x="1273" y="-10"/>
      <point x="1144" y="-10" type="curve" smooth="yes"/>
      <point x="1013" y="-10"/>
      <point x="882" y="84"/>
      <point x="882" y="265" type="curve" smooth="yes"/>
      <point x="882" y="449"/>
      <point x="1014" y="539"/>
      <point x="1144" y="539" type="curve" smooth="yes"/>
      <point x="1274" y="539"/>
      <point x="1402" y="449"/>
    </contour>
    <contour>
      <point x="1306" y="265" type="curve" smooth="yes"/>
      <point x="1306" y="390"/>
      <point x="1226" y="449"/>
      <point x="1144" y="449" type="curve" smooth="yes"/>
      <point x="1063" y="449"/>
      <point x="980" y="386"/>
      <point x="980" y="265" type="curve" smooth="yes"/>
      <point x="980" y="140"/>
      <point x="1062" y="78"/>
      <point x="1144" y="78" type="curve" smooth="yes"/>
      <point x="1225" y="78"/>
      <point x="1306" y="141"/>
    </contour>
    <contour>
      <point x="992" y="1368" type="line"/>
      <point x="1086" y="1337" type="line"/>
      <point x="522" y="-44" type="line"/>
      <point x="430" y="-10" type="line"/>
    </contour>
    <contour>
      <point x="589" y="1027" type="curve" smooth="yes"/>
      <point x="589" y="843"/>
      <point x="459" y="752"/>
      <point x="330" y="752" type="curve" smooth="yes"/>
      <point x="199" y="752"/>
      <point x="68" y="846"/>
      <point x="68" y="1027" type="curve" smooth="yes"/>
      <point x="68" y="1211"/>
      <point x="200" y="1301"/>
      <point x="330" y="1301" type="curve" smooth="yes"/>
      <point x="460" y="1301"/>
      <point x="589" y="1211"/>
    </contour>
    <contour>
      <point x="492" y="1027" type="curve" smooth="yes"/>
      <point x="492" y="1152"/>
      <point x="412" y="1211"/>
      <point x="330" y="1211" type="curve" smooth="yes"/>
      <point x="249" y="1211"/>
      <point x="166" y="1148"/>
      <point x="166" y="1027" type="curve" smooth="yes"/>
      <point x="166" y="902"/>
      <point x="248" y="840"/>
      <point x="330" y="840" type="curve" smooth="yes"/>
      <point x="411" y="840"/>
      <point x="492" y="903"/>
    </contour>
    <contour>
      <point x="2045" y="265" type="curve" smooth="yes"/>
      <point x="2045" y="81"/>
      <point x="1915" y="-10"/>
      <point x="1786" y="-10" type="curve" smooth="yes"/>
      <point x="1655" y="-10"/>
      <point x="1524" y="84"/>
      <point x="1524" y="265" type="curve" smooth="yes"/>
      <point x="1524" y="449"/>
      <point x="1656" y="539"/>
      <point x="1786" y="539" type="curve" smooth="yes"/>
      <point x="1916" y="539"/>
      <point x="2045" y="449"/>
    </contour>
    <contour>
      <point x="1948" y="265" type="curve" smooth="yes"/>
      <point x="1948" y="390"/>
      <point x="1868" y="449"/>
      <point x="1786" y="449" type="curve" smooth="yes"/>
      <point x="1705" y="449"/>
      <point x="1622" y="386"/>
      <point x="1622" y="265" type="curve" smooth="yes"/>
      <point x="1622" y="140"/>
      <point x="1704" y="78"/>
      <point x="1786" y="78" type="curve" smooth="yes"/>
      <point x="1867" y="78"/>
      <point x="1948" y="141"/>
    </contour>
  </outline>
</glyph>
<glyph name="guilsinglleft" format="1">
  <advance width="621"/>
  <unicode hex="2039"/>
  <outline>
    <contour>
      <point x="449" y="123" type="line" smooth="no"/>
      <point x="109" y="483" type="line" smooth="no"/>
      <point x="109" y="573" type="line" smooth="no"/>
      <point x="449" y="934" type="line" smooth="no"/>
      <point x="489" y="823" type="line" smooth="no"/>
      <point x="222" y="526" type="line" smooth="no"/>
      <point x="489" y="236" type="line" smooth="no"/>
    </contour>
  </outline>
</glyph>
<glyph name="guilsinglright" format="1">
  <advance width="620"/>
  <unicode hex="203a"/>
  <outline>
    <contour>
      <point x="397" y="526" type="line" smooth="no"/>
      <point x="130" y="823" type="line" smooth="no"/>
      <point x="170" y="934" type="line" smooth="no"/>
      <point x="508" y="573" type="line" smooth="no"/>
      <point x="508" y="483" type="line" smooth="no"/>
      <point x="170" y="123" type="line" smooth="no"/>
      <point x="130" y="236" type="line" smooth="no"/>
    </contour>
  </outline>
</glyph>
<glyph name="fraction" format="1">
  <advance width="814"/>
  <unicode hex="2044"/>
  <outline>
    <contour>
      <point x="734" y="1446" type="line" smooth="no"/>
      <point x="208" y="-6" type="line" smooth="no"/>
      <point x="109" y="0" type="line" smooth="no"/>
      <point x="632" y="1446" type="line" smooth="no"/>
    </contour>
  </outline>
</glyph>
<glyph name="Euro" format="1">
  <advance width="1059"/>
  <unicode hex="20AC"/>
  <outline>
    <contour>
      <point x="71" y="749" type="line"/>
      <point x="71" y="840" type="line"/>
      <point x="200" y="840" type="line"/>
      <point x="240" y="1167"/>
      <point x="390" y="1301"/>
      <point x="657" y="1301" type="curve" smooth="yes"/>
      <point x="756" y="1301"/>
      <point x="857" y="1280"/>
      <point x="967" y="1226" type="curve"/>
      <point x="967" y="984" type="line"/>
      <point x="858" y="984" type="line"/>
      <point x="858" y="1157" type="line"/>
      <point x="806" y="1180"/>
      <point x="739" y="1195"/>
      <point x="668" y="1195" type="curve" smooth="yes"/>
      <point x="480" y="1195"/>
      <point x="363" y="1124"/>
      <point x="328" y="840" type="curve"/>
      <point x="717" y="840" type="line"/>
      <point x="717" y="749" type="line"/>
      <point x="320" y="749" type="line"/>
      <point x="318" y="717"/>
      <point x="317" y="683"/>
      <point x="317" y="646" type="curve"/>
      <point x="717" y="646" type="line"/>
      <point x="717" y="555" type="line"/>
      <point x="320" y="555" type="line"/>
      <point x="341" y="229"/>
      <point x="487" y="96"/>
      <point x="677" y="96" type="curve" smooth="yes"/>
      <point x="764" y="96"/>
      <point x="851" y="112"/>
      <point x="954" y="161" type="curve"/>
      <point x="994" y="64" type="line"/>
      <point x="877" y="8"/>
      <point x="773" y="-10"/>
      <point x="669" y="-10" type="curve" smooth="yes"/>
      <point x="418" y="-10"/>
      <point x="217" y="164"/>
      <point x="192" y="555" type="curve"/>
      <point x="71" y="555" type="line"/>
      <point x="71" y="646" type="line"/>
      <point x="189" y="646" type="line"/>
      <point x="189" y="682"/>
      <point x="190" y="716"/>
      <point x="192" y="749" type="curve"/>
    </contour>
  </outline>
</glyph>
<glyph name="trademark" format="1">
  <advance width="1379"/>
  <unicode hex="2122"/>
  <outline>
    <contour>
      <point x="910" y="561" type="line"/>
      <point x="759" y="923" type="line"/>
      <point x="754" y="923" type="line"/>
      <point x="754" y="481" type="line"/>
      <point x="663" y="481" type="line"/>
      <point x="663" y="1197" type="line"/>
      <point x="747" y="1197" type="line"/>
      <point x="946" y="703" type="line"/>
      <point x="1150" y="1197" type="line"/>
      <point x="1233" y="1197" type="line"/>
      <point x="1233" y="481" type="line"/>
      <point x="1145" y="481" type="line"/>
      <point x="1145" y="923" type="line"/>
      <point x="1138" y="923" type="line"/>
      <point x="979" y="561" type="line"/>
    </contour>
    <contour>
      <point x="131" y="1114" type="line"/>
      <point x="131" y="1197" type="line"/>
      <point x="574" y="1197" type="line"/>
      <point x="574" y="1114" type="line"/>
      <point x="404" y="1114" type="line"/>
      <point x="404" y="481" type="line"/>
      <point x="306" y="481" type="line"/>
      <point x="306" y="1114" type="line"/>
    </contour>
  </outline>
</glyph>
<glyph name="partialdiff" format="1">
  <advance width="905"/>
  <unicode hex="2202"/>
  <outline>
    <contour>
      <point x="447" y="-13" type="line"/>
      <point x="228" y="-13"/>
      <point x="125" y="150"/>
      <point x="125" y="407" type="curve" smooth="yes"/>
      <point x="125" y="678"/>
      <point x="232" y="814"/>
      <point x="445" y="814" type="curve" smooth="yes"/>
      <point x="539" y="814"/>
      <point x="613" y="770"/>
      <point x="666" y="683" type="curve"/>
      <point x="614" y="886"/>
      <point x="565" y="1001"/>
      <point x="456" y="1084" type="curve" smooth="yes"/>
      <point x="423" y="1109"/>
      <point x="362" y="1145"/>
      <point x="274" y="1190" type="curve"/>
      <point x="315" y="1286" type="line"/>
      <point x="650" y="1141"/>
      <point x="774" y="901"/>
      <point x="774" y="412" type="curve" smooth="yes"/>
      <point x="774" y="128"/>
      <point x="665" y="-14"/>
      <point x="447" y="-14" type="curve"/>
    </contour>
    <contour>
      <point x="440" y="714" type="curve" smooth="yes"/>
      <point x="288" y="714"/>
      <point x="232" y="608"/>
      <point x="232" y="407" type="curve" smooth="yes"/>
      <point x="232" y="194"/>
      <point x="304" y="87"/>
      <point x="447" y="87" type="curve" smooth="yes"/>
      <point x="606" y="87"/>
      <point x="666" y="196"/>
      <point x="666" y="396" type="curve" smooth="yes"/>
      <point x="666" y="589"/>
      <point x="594" y="714"/>
    </contour>
  </outline>
</glyph>
<glyph name="product" format="1">
  <advance width="1194"/>
  <unicode hex="220F"/>
  <outline>
    <contour>
      <point x="392" y="1260" type="line"/>
      <point x="392" y="-96" type="line"/>
      <point x="278" y="-96" type="line"/>
      <point x="278" y="1260" type="line"/>
      <point x="102" y="1260" type="line"/>
      <point x="102" y="1372" type="line"/>
      <point x="1094" y="1372" type="line"/>
      <point x="1094" y="1260" type="line"/>
      <point x="915" y="1260" type="line"/>
      <point x="915" y="-96" type="line"/>
      <point x="801" y="-96" type="line"/>
      <point x="801" y="1260" type="line"/>
    </contour>
  </outline>
</glyph>
<glyph name="summation" format="1">
  <advance width="1020"/>
  <unicode hex="2211"/>
  <outline>
    <contour>
      <point x="896" y="1374" type="line" smooth="no"/>
      <point x="896" y="1264" type="line" smooth="no"/>
      <point x="277" y="1264" type="line" smooth="no"/>
      <point x="277" y="1260" type="line" smooth="no"/>
      <point x="675" y="637" type="line" smooth="no"/>
      <point x="264" y="-51" type="line" smooth="no"/>
      <point x="264" y="-55" type="line" smooth="no"/>
      <point x="905" y="-55" type="line" smooth="no"/>
      <point x="905" y="-168" type="line" smooth="no"/>
      <point x="122" y="-168" type="line" smooth="no"/>
      <point x="122" y="-57" type="line" smooth="no"/>
      <point x="537" y="635" type="line" smooth="no"/>
      <point x="133" y="1264" type="line" smooth="no"/>
      <point x="133" y="1374" type="line" smooth="no"/>
    </contour>
  </outline>
</glyph>
<glyph name="radical" format="1">
  <advance width="1086"/>
  <unicode hex="221a"/>
  <outline>
    <contour>
      <point x="112" y="846" type="line" smooth="no"/>
      <point x="374" y="885" type="line" smooth="no"/>
      <point x="556" y="170" type="line" smooth="no"/>
      <point x="604" y="98" type="line" smooth="no"/>
      <point x="655" y="353"/>
      <point x="717" y="630"/>
      <point x="792" y="971" type="curve" smooth="yes"/>
      <point x="880" y="1372" type="line" smooth="no"/>
      <point x="983" y="1372" type="line" smooth="no"/>
      <point x="674" y="-8" type="line" smooth="no"/>
      <point x="504" y="-8" type="line" smooth="no"/>
      <point x="293" y="778" type="line" smooth="no"/>
      <point x="121" y="756" type="line" smooth="no"/>
    </contour>
  </outline>
</glyph>
<glyph name="infinity" format="1">
  <advance width="1319"/>
  <unicode hex="221E"/>
  <outline>
    <contour>
      <point x="964" y="953" type="line"/>
      <point x="1137" y="953"/>
      <point x="1196" y="797"/>
      <point x="1196" y="599" type="curve" smooth="yes"/>
      <point x="1196" y="391"/>
      <point x="1111" y="249"/>
      <point x="952" y="249" type="curve" smooth="yes"/>
      <point x="805" y="249"/>
      <point x="735" y="346"/>
      <point x="659" y="498" type="curve"/>
      <point x="609" y="398"/>
      <point x="541" y="250"/>
      <point x="363" y="250" type="curve" smooth="yes"/>
      <point x="188" y="250"/>
      <point x="119" y="409"/>
      <point x="119" y="602" type="curve" smooth="yes"/>
      <point x="119" y="814"/>
      <point x="202" y="956"/>
      <point x="373" y="956" type="curve" smooth="yes"/>
      <point x="551" y="956"/>
      <point x="610" y="838"/>
      <point x="670" y="707" type="curve"/>
      <point x="721" y="827"/>
      <point x="789" y="954"/>
      <point x="963" y="954" type="curve"/>
    </contour>
    <contour>
      <point x="217" y="599" type="line"/>
      <point x="217" y="448"/>
      <point x="266" y="349"/>
      <point x="377" y="349" type="curve" smooth="yes"/>
      <point x="497" y="349"/>
      <point x="545" y="445"/>
      <point x="616" y="598" type="curve"/>
      <point x="580" y="677" type="line" smooth="yes"/>
      <point x="526" y="794"/>
      <point x="469" y="857"/>
      <point x="374" y="857" type="curve" smooth="yes"/>
      <point x="372" y="857" type="line" smooth="yes"/>
      <point x="255" y="857"/>
      <point x="216" y="732"/>
      <point x="216" y="599" type="curve"/>
    </contour>
    <contour>
      <point x="1099" y="598" type="line"/>
      <point x="1099" y="771"/>
      <point x="1049" y="858"/>
      <point x="948" y="858" type="curve" smooth="yes"/>
      <point x="829" y="858"/>
      <point x="788" y="767"/>
      <point x="715" y="612" type="curve"/>
      <point x="718" y="607"/>
      <point x="719" y="602"/>
      <point x="722" y="597" type="curve" smooth="yes"/>
      <point x="809" y="397"/>
      <point x="857" y="349"/>
      <point x="948" y="349" type="curve" smooth="yes"/>
      <point x="1054" y="349"/>
      <point x="1100" y="456"/>
      <point x="1100" y="597" type="curve"/>
    </contour>
  </outline>
</glyph>
<glyph name="integral" format="1">
  <advance width="777"/>
  <unicode hex="222B"/>
  <outline>
    <contour>
      <point x="330" y="1153" type="line"/>
      <point x="330" y="1421"/>
      <point x="360" y="1671"/>
      <point x="613" y="1671" type="curve" smooth="yes"/>
      <point x="656" y="1671"/>
      <point x="697" y="1664"/>
      <point x="735" y="1651" type="curve"/>
      <point x="709" y="1548" type="line"/>
      <point x="680" y="1559"/>
      <point x="650" y="1565"/>
      <point x="618" y="1565" type="curve" smooth="yes"/>
      <point x="463" y="1565"/>
      <point x="437" y="1435"/>
      <point x="437" y="1147" type="curve" smooth="yes"/>
      <point x="437" y="969"/>
      <point x="446" y="310"/>
      <point x="446" y="133" type="curve" smooth="yes"/>
      <point x="446" y="-144"/>
      <point x="413" y="-387"/>
      <point x="168" y="-387" type="curve" smooth="yes"/>
      <point x="119" y="-387"/>
      <point x="76" y="-380"/>
      <point x="37" y="-367" type="curve"/>
      <point x="62" y="-260" type="line"/>
      <point x="95" y="-273"/>
      <point x="127" y="-279"/>
      <point x="159" y="-279" type="curve" smooth="yes"/>
      <point x="311" y="-279"/>
      <point x="339" y="-142"/>
      <point x="339" y="135" type="curve" smooth="yes"/>
      <point x="339" y="313"/>
      <point x="329" y="975"/>
      <point x="329" y="1153" type="curve"/>
    </contour>
  </outline>
</glyph>
<glyph name="approxequal" format="1">
  <advance width="1146"/>
  <unicode hex="2248"/>
  <outline>
    <contour>
      <point x="943" y="660" type="line" smooth="yes"/>
      <point x="897" y="606"/>
      <point x="838" y="579"/>
      <point x="773" y="578" type="curve" smooth="yes"/>
      <point x="725" y="578"/>
      <point x="655" y="606"/>
      <point x="630" y="620" type="curve"/>
      <point x="564" y="662" type="line"/>
      <point x="503" y="696" type="line"/>
      <point x="442" y="733"/>
      <point x="410" y="746"/>
      <point x="377" y="746" type="curve" smooth="yes"/>
      <point x="314" y="746"/>
      <point x="259" y="691"/>
      <point x="192" y="603" type="curve"/>
      <point x="125" y="667" type="line"/>
      <point x="211" y="786"/>
      <point x="294" y="848"/>
      <point x="380" y="848" type="curve" smooth="yes"/>
      <point x="433" y="848"/>
      <point x="470" y="829"/>
      <point x="609" y="752" type="curve" smooth="yes"/>
      <point x="697" y="703"/>
      <point x="741" y="683"/>
      <point x="777" y="683" type="curve" smooth="yes"/>
      <point x="832" y="683"/>
      <point x="893" y="733"/>
      <point x="956" y="821" type="curve"/>
      <point x="1020" y="758" type="line"/>
      <point x="1020" y="755" type="line"/>
      <point x="980" y="703" type="line"/>
    </contour>
    <contour>
      <point x="940" y="284" type="line" smooth="yes"/>
      <point x="894" y="230"/>
      <point x="833" y="203"/>
      <point x="771" y="202" type="curve" smooth="yes"/>
      <point x="735" y="202"/>
      <point x="699" y="208"/>
      <point x="663" y="226" type="curve" smooth="yes"/>
      <point x="621" y="247" type="line" smooth="yes"/>
      <point x="611" y="252"/>
      <point x="596" y="261"/>
      <point x="575" y="275" type="curve" smooth="yes"/>
      <point x="537" y="300" type="line"/>
      <point x="467" y="340"/>
      <point x="420" y="368"/>
      <point x="375" y="368" type="curve" smooth="yes"/>
      <point x="308" y="368"/>
      <point x="248" y="302"/>
      <point x="189" y="225" type="curve"/>
      <point x="123" y="289" type="line"/>
      <point x="205" y="408"/>
      <point x="295" y="467"/>
      <point x="377" y="467" type="curve" smooth="yes"/>
      <point x="438" y="467"/>
      <point x="519" y="426"/>
      <point x="599" y="376" type="curve" smooth="yes"/>
      <point x="656" y="340" type="line" smooth="yes"/>
      <point x="681" y="324"/>
      <point x="739" y="302"/>
      <point x="778" y="302" type="curve" smooth="yes"/>
      <point x="832" y="302"/>
      <point x="893" y="355"/>
      <point x="956" y="441" type="curve"/>
      <point x="1020" y="380" type="line"/>
      <point x="1017" y="379" type="line"/>
      <point x="977" y="327" type="line"/>
    </contour>
  </outline>
</glyph>
